<svg width="196" height="50" viewBox="0 0 196 50" fill="none" xmlns="http://www.w3.org/2000/svg">
<path fill-rule="evenodd" clip-rule="evenodd" d="M23.5802 0.547828C24.4103 -0.182609 25.5897 -0.182609 26.4198 0.547828L43.4647 15.5474L49.1469 20.5478C50.1271 21.4104 50.286 22.9836 49.5019 24.0617C48.7178 25.1399 47.2876 25.3147 46.3074 24.4522L44.3181 22.7016V47.5C44.3181 48.8807 43.3006 50 42.0454 50H7.9546C6.69941 50 5.68188 48.8807 5.68188 47.5V22.7016L3.69256 24.4522C2.71242 25.3147 1.28222 25.1399 0.498107 24.0617C-0.286003 22.9836 -0.127091 21.4104 0.853047 20.5478L6.53485 15.5478L23.5802 0.547828Z" fill="#009951"/>
<path d="M68.7324 31H63.5811V15.1797H62.0796V26.3735C62.0796 27.8465 61.8883 28.9045 61.5059 29.5474C61.1315 30.1903 60.5578 30.5931 59.7847 30.7559C59.0116 30.9186 57.7786 31 56.0859 31H55.2803V27.5942C55.9069 27.5942 56.3382 27.5169 56.5742 27.3623C56.8102 27.2077 56.9282 26.6787 56.9282 25.7754V11.2246H68.7324V31ZM79.9077 11.2368L82.8496 31H77.5884L77.332 27.4478H75.4888L75.1836 31H69.8613L72.4736 11.2368H79.9077ZM77.1855 23.9443C76.9251 21.7064 76.6647 18.9435 76.4043 15.6558C75.8835 19.4318 75.5579 22.1947 75.4277 23.9443H77.1855ZM98.6758 34.4058H95.1235V31H86.8228V34.4058H83.2827V26.874H84.3325C84.8859 25.2546 85.3376 23.1265 85.6875 20.4897C86.0456 17.8449 86.2246 14.9559 86.2246 11.8228V11.2246H97.626V26.8496H98.6758V34.4058ZM92.4746 26.8496V15.1309H90.9487V15.2773C90.9487 19.0615 90.5418 22.9189 89.728 26.8496H92.4746ZM110.718 11.2246L109.314 24.3228C109.094 26.3898 108.858 27.8424 108.606 28.6807C108.354 29.5107 107.865 30.1048 107.141 30.4629C106.417 30.821 105.225 31 103.564 31H100.562V28.4487H100.867C101.542 28.4487 101.957 28.3958 102.112 28.29C102.275 28.1761 102.356 28.0052 102.356 27.7773C102.356 27.7611 102.258 27.2036 102.063 26.105L99.3652 11.2246H103.833L105.457 23.5293L106.238 11.2246H110.718ZM123.993 19.855H118.854V16.4126C118.854 15.4116 118.797 14.7891 118.683 14.5449C118.577 14.2926 118.337 14.1665 117.962 14.1665C117.539 14.1665 117.271 14.3171 117.157 14.6182C117.043 14.9193 116.986 15.5703 116.986 16.5713V25.751C116.986 26.7113 117.043 27.3379 117.157 27.6309C117.271 27.9238 117.527 28.0703 117.926 28.0703C118.308 28.0703 118.556 27.9238 118.67 27.6309C118.792 27.3379 118.854 26.6502 118.854 25.5679V23.0898H123.993V23.8589C123.993 25.9015 123.846 27.3501 123.553 28.2046C123.268 29.0591 122.63 29.8078 121.637 30.4507C120.652 31.0936 119.435 31.415 117.987 31.415C116.481 31.415 115.24 31.1424 114.264 30.5972C113.287 30.0519 112.64 29.2992 112.323 28.3389C112.005 27.3704 111.847 25.9178 111.847 23.981V18.207C111.847 16.7829 111.896 15.7168 111.993 15.0088C112.091 14.2926 112.38 13.605 112.86 12.9458C113.348 12.2866 114.02 11.7699 114.874 11.3955C115.737 11.013 116.725 10.8218 117.84 10.8218C119.354 10.8218 120.603 11.1147 121.588 11.7007C122.573 12.2866 123.22 13.019 123.529 13.8979C123.838 14.7687 123.993 16.1278 123.993 17.9751V19.855ZM142.754 19.855H137.615V16.4126C137.615 15.4116 137.558 14.7891 137.444 14.5449C137.339 14.2926 137.098 14.1665 136.724 14.1665C136.301 14.1665 136.032 14.3171 135.918 14.6182C135.805 14.9193 135.748 15.5703 135.748 16.5713V25.751C135.748 26.7113 135.805 27.3379 135.918 27.6309C136.032 27.9238 136.289 28.0703 136.688 28.0703C137.07 28.0703 137.318 27.9238 137.432 27.6309C137.554 27.3379 137.615 26.6502 137.615 25.5679V23.0898H142.754V23.8589C142.754 25.9015 142.608 27.3501 142.315 28.2046C142.03 29.0591 141.391 29.8078 140.398 30.4507C139.414 31.0936 138.197 31.415 136.749 31.415C135.243 31.415 134.002 31.1424 133.025 30.5972C132.049 30.0519 131.402 29.2992 131.084 28.3389C130.767 27.3704 130.608 25.9178 130.608 23.981V18.207C130.608 16.7829 130.657 15.7168 130.755 15.0088C130.853 14.2926 131.141 13.605 131.622 12.9458C132.11 12.2866 132.781 11.7699 133.636 11.3955C134.498 11.013 135.487 10.8218 136.602 10.8218C138.116 10.8218 139.365 11.1147 140.35 11.7007C141.334 12.2866 141.981 13.019 142.291 13.8979C142.6 14.7687 142.754 16.1278 142.754 17.9751V19.855ZM155.199 11.2368V15.1919H152.147V31H147.008V15.1919H143.969V11.2368H155.199ZM156.621 11.2368H161.797C163.197 11.2368 164.271 11.3467 165.02 11.5664C165.776 11.7861 166.342 12.1035 166.716 12.5186C167.099 12.9336 167.355 13.4382 167.485 14.0322C167.624 14.6182 167.693 15.5296 167.693 16.7666V18.4878C167.693 19.7492 167.563 20.6688 167.302 21.2466C167.042 21.8244 166.562 22.2679 165.862 22.5771C165.17 22.8864 164.263 23.041 163.14 23.041H161.76V31H156.621V11.2368ZM161.76 14.6182V19.6475C161.907 19.6556 162.033 19.6597 162.139 19.6597C162.611 19.6597 162.936 19.5457 163.115 19.3179C163.302 19.0819 163.396 18.5977 163.396 17.8652V16.2417C163.396 15.5662 163.29 15.1268 163.079 14.9233C162.867 14.7199 162.428 14.6182 161.76 14.6182ZM181.163 22.8091C181.163 24.7948 181.114 26.2026 181.017 27.0327C180.927 27.8547 180.634 28.6074 180.138 29.291C179.649 29.9746 178.986 30.4995 178.148 30.8657C177.31 31.2319 176.333 31.415 175.218 31.415C174.16 31.415 173.208 31.2441 172.362 30.9023C171.524 30.5524 170.848 30.0316 170.335 29.3398C169.823 28.6481 169.518 27.8953 169.42 27.0815C169.322 26.2677 169.273 24.8436 169.273 22.8091V19.4277C169.273 17.4421 169.318 16.0382 169.408 15.2163C169.505 14.3862 169.798 13.6294 170.287 12.9458C170.783 12.2622 171.45 11.7373 172.289 11.3711C173.127 11.0049 174.103 10.8218 175.218 10.8218C176.276 10.8218 177.224 10.9967 178.062 11.3467C178.909 11.6885 179.588 12.2052 180.101 12.897C180.614 13.5887 180.919 14.3415 181.017 15.1553C181.114 15.9691 181.163 17.3932 181.163 19.4277V22.8091ZM176.024 16.3149C176.024 15.3953 175.971 14.8094 175.865 14.5571C175.768 14.2967 175.56 14.1665 175.243 14.1665C174.974 14.1665 174.767 14.2723 174.62 14.4839C174.482 14.6873 174.413 15.2977 174.413 16.3149V25.5435C174.413 26.6909 174.457 27.3989 174.547 27.6675C174.645 27.936 174.864 28.0703 175.206 28.0703C175.556 28.0703 175.78 27.9157 175.877 27.6064C175.975 27.2972 176.024 26.5607 176.024 25.397V16.3149ZM194.816 31H190.52V22.0034L187.846 31H183.342V11.2246H187.639V20.1479L190.52 11.2246H194.816V31ZM190.434 6.92773H192.509C192.46 8.03451 192.135 8.92562 191.533 9.60107C190.939 10.2765 190.109 10.6143 189.042 10.6143C187.968 10.6143 187.134 10.2765 186.54 9.60107C185.954 8.91748 185.637 8.02637 185.588 6.92773H187.663C187.761 8.04264 188.221 8.6001 189.042 8.6001C189.873 8.6001 190.336 8.04264 190.434 6.92773Z" fill="#1E1E1E"/>
<path d="M59.4935 47.144C58.9895 47.144 58.5455 47.064 58.1615 46.904C57.7855 46.744 57.4655 46.52 57.2015 46.232C56.9455 45.944 56.7535 45.604 56.6255 45.212C56.4975 44.812 56.4335 44.372 56.4335 43.892C56.4335 43.412 56.5015 42.972 56.6375 42.572C56.7815 42.172 56.9815 41.828 57.2375 41.54C57.4935 41.244 57.8055 41.016 58.1735 40.856C58.5495 40.688 58.9655 40.604 59.4215 40.604C59.7015 40.604 59.9815 40.628 60.2615 40.676C60.5415 40.724 60.8095 40.8 61.0655 40.904L60.8135 41.852C60.6455 41.772 60.4495 41.708 60.2255 41.66C60.0095 41.612 59.7775 41.588 59.5295 41.588C58.9055 41.588 58.4255 41.784 58.0895 42.176C57.7615 42.568 57.5975 43.14 57.5975 43.892C57.5975 44.228 57.6335 44.536 57.7055 44.816C57.7855 45.096 57.9055 45.336 58.0655 45.536C58.2335 45.736 58.4455 45.892 58.7015 46.004C58.9575 46.108 59.2695 46.16 59.6375 46.16C59.9335 46.16 60.2015 46.132 60.4415 46.076C60.6815 46.02 60.8695 45.96 61.0055 45.896L61.1615 46.832C61.0975 46.872 61.0055 46.912 60.8855 46.952C60.7655 46.984 60.6295 47.012 60.4775 47.036C60.3255 47.068 60.1615 47.092 59.9855 47.108C59.8175 47.132 59.6535 47.144 59.4935 47.144ZM67.0594 40.76V41.696H65.0314V47H63.9154V41.696H61.8874V40.76H67.0594ZM72.6621 43.892C72.6621 43.164 72.4821 42.604 72.1221 42.212C71.7621 41.82 71.2821 41.624 70.6821 41.624C70.3461 41.624 70.0821 41.636 69.8901 41.66C69.7061 41.684 69.5581 41.712 69.4461 41.744V45.68C69.5821 45.792 69.7781 45.9 70.0341 46.004C70.2901 46.108 70.5701 46.16 70.8741 46.16C71.1941 46.16 71.4661 46.104 71.6901 45.992C71.9221 45.872 72.1101 45.712 72.2541 45.512C72.3981 45.304 72.5021 45.064 72.5661 44.792C72.6301 44.512 72.6621 44.212 72.6621 43.892ZM73.8261 43.892C73.8261 44.364 73.7621 44.8 73.6341 45.2C73.5141 45.6 73.3341 45.944 73.0941 46.232C72.8541 46.52 72.5581 46.744 72.2061 46.904C71.8621 47.064 71.4661 47.144 71.0181 47.144C70.6581 47.144 70.3381 47.096 70.0581 47C69.7861 46.904 69.5821 46.812 69.4461 46.724V49.22H68.3301V40.952C68.5941 40.888 68.9221 40.82 69.3141 40.748C69.7141 40.668 70.1741 40.628 70.6941 40.628C71.1741 40.628 71.6061 40.704 71.9901 40.856C72.3741 41.008 72.7021 41.224 72.9741 41.504C73.2461 41.784 73.4541 42.128 73.5981 42.536C73.7501 42.936 73.8261 43.388 73.8261 43.892ZM81.0245 43.88C81.0245 44.376 80.9525 44.824 80.8085 45.224C80.6645 45.624 80.4605 45.968 80.1965 46.256C79.9405 46.544 79.6325 46.768 79.2725 46.928C78.9125 47.08 78.5205 47.156 78.0965 47.156C77.6725 47.156 77.2805 47.08 76.9205 46.928C76.5605 46.768 76.2485 46.544 75.9845 46.256C75.7285 45.968 75.5285 45.624 75.3845 45.224C75.2405 44.824 75.1685 44.376 75.1685 43.88C75.1685 43.392 75.2405 42.948 75.3845 42.548C75.5285 42.14 75.7285 41.792 75.9845 41.504C76.2485 41.216 76.5605 40.996 76.9205 40.844C77.2805 40.684 77.6725 40.604 78.0965 40.604C78.5205 40.604 78.9125 40.684 79.2725 40.844C79.6325 40.996 79.9405 41.216 80.1965 41.504C80.4605 41.792 80.6645 42.14 80.8085 42.548C80.9525 42.948 81.0245 43.392 81.0245 43.88ZM79.8605 43.88C79.8605 43.176 79.7005 42.62 79.3805 42.212C79.0685 41.796 78.6405 41.588 78.0965 41.588C77.5525 41.588 77.1205 41.796 76.8005 42.212C76.4885 42.62 76.3325 43.176 76.3325 43.88C76.3325 44.584 76.4885 45.144 76.8005 45.56C77.1205 45.968 77.5525 46.172 78.0965 46.172C78.6405 46.172 79.0685 45.968 79.3805 45.56C79.7005 45.144 79.8605 44.584 79.8605 43.88ZM87.9586 40.76V47H86.8786V42.248C86.6386 42.552 86.3746 42.908 86.0866 43.316C85.7986 43.724 85.5106 44.148 85.2226 44.588C84.9346 45.02 84.6586 45.448 84.3946 45.872C84.1306 46.296 83.9026 46.672 83.7106 47H82.7146V40.76H83.7946V45.248C84.0026 44.904 84.2386 44.528 84.5026 44.12C84.7666 43.704 85.0386 43.296 85.3186 42.896C85.6066 42.488 85.8906 42.1 86.1706 41.732C86.4586 41.356 86.7266 41.032 86.9746 40.76H87.9586ZM94.3988 40.76V41.696H92.3708V47H91.2548V41.696H89.2268V40.76H94.3988ZM95.3215 43.892C95.3215 43.34 95.4015 42.86 95.5615 42.452C95.7215 42.036 95.9335 41.692 96.1975 41.42C96.4615 41.148 96.7655 40.944 97.1095 40.808C97.4535 40.672 97.8055 40.604 98.1655 40.604C99.0055 40.604 99.6495 40.868 100.097 41.396C100.545 41.916 100.769 42.712 100.769 43.784C100.769 43.832 100.769 43.896 100.769 43.976C100.769 44.048 100.765 44.116 100.757 44.18H96.4855C96.5335 44.828 96.7215 45.32 97.0495 45.656C97.3775 45.992 97.8895 46.16 98.5855 46.16C98.9775 46.16 99.3055 46.128 99.5695 46.064C99.8415 45.992 100.045 45.924 100.181 45.86L100.337 46.796C100.201 46.868 99.9615 46.944 99.6175 47.024C99.2815 47.104 98.8975 47.144 98.4655 47.144C97.9215 47.144 97.4495 47.064 97.0495 46.904C96.6575 46.736 96.3335 46.508 96.0775 46.22C95.8215 45.932 95.6295 45.592 95.5015 45.2C95.3815 44.8 95.3215 44.364 95.3215 43.892ZM99.6055 43.28C99.6135 42.776 99.4855 42.364 99.2215 42.044C98.9655 41.716 98.6095 41.552 98.1535 41.552C97.8975 41.552 97.6695 41.604 97.4695 41.708C97.2775 41.804 97.1135 41.932 96.9775 42.092C96.8415 42.252 96.7335 42.436 96.6535 42.644C96.5815 42.852 96.5335 43.064 96.5095 43.28H99.6055ZM104.665 41.696C104.665 41.96 104.657 42.244 104.641 42.548C104.633 42.844 104.613 43.144 104.581 43.448C104.549 43.744 104.505 44.04 104.449 44.336C104.393 44.624 104.321 44.896 104.233 45.152C104.145 45.408 104.033 45.648 103.897 45.872C103.769 46.096 103.609 46.296 103.417 46.472C103.225 46.64 103.001 46.784 102.745 46.904C102.489 47.016 102.189 47.088 101.845 47.12L101.689 46.184C102.081 46.104 102.389 45.956 102.613 45.74C102.845 45.524 103.029 45.26 103.165 44.948C103.285 44.676 103.373 44.368 103.429 44.024C103.485 43.68 103.525 43.324 103.549 42.956C103.573 42.58 103.585 42.204 103.585 41.828C103.593 41.452 103.597 41.096 103.597 40.76H107.749V47H106.633V41.696H104.665ZM112.148 46.22C112.62 46.22 112.992 46.128 113.264 45.944C113.536 45.76 113.672 45.464 113.672 45.056C113.672 44.856 113.632 44.684 113.552 44.54C113.472 44.396 113.36 44.28 113.216 44.192C113.08 44.096 112.92 44.028 112.736 43.988C112.552 43.94 112.356 43.916 112.148 43.916C111.932 43.916 111.708 43.924 111.476 43.94C111.252 43.948 111.06 43.972 110.9 44.012V46.16C110.948 46.168 111.02 46.176 111.116 46.184C111.212 46.192 111.316 46.2 111.428 46.208C111.548 46.208 111.668 46.212 111.788 46.22C111.916 46.22 112.036 46.22 112.148 46.22ZM109.784 46.868V40.76H110.9V43.148C110.964 43.132 111.048 43.116 111.152 43.1C111.264 43.084 111.38 43.068 111.5 43.052C111.628 43.036 111.76 43.024 111.896 43.016C112.032 43.008 112.16 43.004 112.28 43.004C112.624 43.004 112.948 43.044 113.252 43.124C113.556 43.196 113.82 43.316 114.044 43.484C114.276 43.644 114.46 43.856 114.596 44.12C114.732 44.376 114.8 44.684 114.8 45.044C114.8 45.42 114.736 45.74 114.608 46.004C114.48 46.268 114.296 46.484 114.056 46.652C113.816 46.82 113.528 46.94 113.192 47.012C112.864 47.092 112.496 47.132 112.088 47.132C111.688 47.132 111.296 47.108 110.912 47.06C110.528 47.02 110.152 46.956 109.784 46.868ZM121.356 47H120.24V44.24H117.36V47H116.244V40.76H117.36V43.304H120.24V40.76H121.356V47ZM125.508 46.196C125.772 46.196 126.004 46.192 126.204 46.184C126.412 46.168 126.584 46.144 126.72 46.112V44.252C126.64 44.212 126.508 44.18 126.324 44.156C126.148 44.124 125.932 44.108 125.676 44.108C125.508 44.108 125.328 44.12 125.136 44.144C124.952 44.168 124.78 44.22 124.62 44.3C124.468 44.372 124.34 44.476 124.236 44.612C124.132 44.74 124.08 44.912 124.08 45.128C124.08 45.528 124.208 45.808 124.464 45.968C124.72 46.12 125.068 46.196 125.508 46.196ZM125.412 40.604C125.86 40.604 126.236 40.664 126.54 40.784C126.852 40.896 127.1 41.06 127.284 41.276C127.476 41.484 127.612 41.736 127.692 42.032C127.772 42.32 127.812 42.64 127.812 42.992V46.892C127.716 46.908 127.58 46.932 127.404 46.964C127.236 46.988 127.044 47.012 126.828 47.036C126.612 47.06 126.376 47.08 126.12 47.096C125.872 47.12 125.624 47.132 125.376 47.132C125.024 47.132 124.7 47.096 124.404 47.024C124.108 46.952 123.852 46.84 123.636 46.688C123.42 46.528 123.252 46.32 123.132 46.064C123.012 45.808 122.952 45.5 122.952 45.14C122.952 44.796 123.02 44.5 123.156 44.252C123.3 44.004 123.492 43.804 123.732 43.652C123.972 43.5 124.252 43.388 124.572 43.316C124.892 43.244 125.228 43.208 125.58 43.208C125.692 43.208 125.808 43.216 125.928 43.232C126.048 43.24 126.16 43.256 126.264 43.28C126.376 43.296 126.472 43.312 126.552 43.328C126.632 43.344 126.688 43.356 126.72 43.364V43.052C126.72 42.868 126.7 42.688 126.66 42.512C126.62 42.328 126.548 42.168 126.444 42.032C126.34 41.888 126.196 41.776 126.012 41.696C125.836 41.608 125.604 41.564 125.316 41.564C124.948 41.564 124.624 41.592 124.344 41.648C124.072 41.696 123.868 41.748 123.732 41.804L123.6 40.88C123.744 40.816 123.984 40.756 124.32 40.7C124.656 40.636 125.02 40.604 125.412 40.604ZM132.365 44.576C132.245 44.576 132.129 44.576 132.017 44.576C131.905 44.568 131.797 44.56 131.693 44.552C131.437 44.936 131.189 45.348 130.949 45.788C130.717 46.22 130.509 46.624 130.325 47H129.197C129.293 46.768 129.405 46.532 129.533 46.292C129.661 46.044 129.789 45.804 129.917 45.572C130.053 45.34 130.189 45.12 130.325 44.912C130.461 44.704 130.589 44.516 130.709 44.348C130.485 44.268 130.301 44.172 130.157 44.06C130.013 43.94 129.897 43.808 129.809 43.664C129.721 43.52 129.657 43.368 129.617 43.208C129.585 43.04 129.569 42.872 129.569 42.704C129.569 42.352 129.633 42.044 129.761 41.78C129.897 41.516 130.081 41.3 130.313 41.132C130.545 40.956 130.817 40.824 131.129 40.736C131.449 40.648 131.797 40.604 132.173 40.604C132.701 40.604 133.149 40.628 133.517 40.676C133.885 40.724 134.193 40.78 134.441 40.844V47H133.337V44.576H132.365ZM133.337 41.588C133.249 41.572 133.101 41.556 132.893 41.54C132.693 41.524 132.461 41.516 132.197 41.516C131.741 41.516 131.373 41.612 131.093 41.804C130.813 41.988 130.673 42.284 130.673 42.692C130.673 43.092 130.817 43.368 131.105 43.52C131.393 43.672 131.765 43.748 132.221 43.748H133.337V41.588ZM141.657 43.604C141.905 43.78 142.173 44.004 142.461 44.276C142.749 44.54 143.029 44.828 143.301 45.14C143.581 45.452 143.841 45.772 144.081 46.1C144.321 46.42 144.525 46.72 144.693 47H143.373C143.197 46.728 142.989 46.452 142.749 46.172C142.517 45.884 142.273 45.608 142.017 45.344C141.761 45.08 141.501 44.836 141.237 44.612C140.973 44.388 140.725 44.2 140.493 44.048V47H139.377V40.76H140.493V43.436C140.685 43.252 140.905 43.04 141.153 42.8C141.401 42.552 141.649 42.304 141.897 42.056C142.153 41.8 142.389 41.56 142.605 41.336C142.821 41.104 142.997 40.912 143.133 40.76H144.429C144.253 40.952 144.045 41.172 143.805 41.42C143.573 41.66 143.329 41.908 143.073 42.164C142.825 42.42 142.577 42.676 142.329 42.932C142.081 43.18 141.857 43.404 141.657 43.604ZM151.098 43.88C151.098 44.376 151.026 44.824 150.882 45.224C150.738 45.624 150.534 45.968 150.27 46.256C150.014 46.544 149.706 46.768 149.346 46.928C148.986 47.08 148.594 47.156 148.17 47.156C147.746 47.156 147.354 47.08 146.994 46.928C146.634 46.768 146.322 46.544 146.058 46.256C145.802 45.968 145.602 45.624 145.458 45.224C145.314 44.824 145.242 44.376 145.242 43.88C145.242 43.392 145.314 42.948 145.458 42.548C145.602 42.14 145.802 41.792 146.058 41.504C146.322 41.216 146.634 40.996 146.994 40.844C147.354 40.684 147.746 40.604 148.17 40.604C148.594 40.604 148.986 40.684 149.346 40.844C149.706 40.996 150.014 41.216 150.27 41.504C150.534 41.792 150.738 42.14 150.882 42.548C151.026 42.948 151.098 43.392 151.098 43.88ZM149.934 43.88C149.934 43.176 149.774 42.62 149.454 42.212C149.142 41.796 148.714 41.588 148.17 41.588C147.626 41.588 147.194 41.796 146.874 42.212C146.562 42.62 146.406 43.176 146.406 43.88C146.406 44.584 146.562 45.144 146.874 45.56C147.194 45.968 147.626 46.172 148.17 46.172C148.714 46.172 149.142 45.968 149.454 45.56C149.774 45.144 149.934 44.584 149.934 43.88ZM153.977 42.404C153.897 43.196 153.837 43.988 153.797 44.78C153.757 45.564 153.725 46.304 153.701 47H152.633C152.649 46.512 152.673 46.004 152.705 45.476C152.737 44.94 152.773 44.404 152.813 43.868C152.853 43.324 152.897 42.792 152.945 42.272C152.993 41.744 153.045 41.24 153.101 40.76H154.121C154.377 41.176 154.677 41.748 155.021 42.476C155.365 43.196 155.761 44.028 156.209 44.972C156.657 44.028 157.053 43.196 157.397 42.476C157.741 41.748 158.041 41.176 158.297 40.76H159.329C159.385 41.24 159.437 41.744 159.485 42.272C159.533 42.792 159.577 43.324 159.617 43.868C159.657 44.404 159.693 44.94 159.725 45.476C159.757 46.004 159.781 46.512 159.797 47H158.693C158.669 46.304 158.637 45.564 158.597 44.78C158.557 43.988 158.497 43.196 158.417 42.404C158.289 42.652 158.141 42.952 157.973 43.304C157.805 43.648 157.637 44 157.469 44.36C157.309 44.72 157.157 45.064 157.013 45.392C156.869 45.72 156.757 45.98 156.677 46.172H155.741C155.653 45.972 155.533 45.708 155.381 45.38C155.237 45.052 155.081 44.708 154.913 44.348C154.753 43.98 154.589 43.624 154.421 43.28C154.253 42.928 154.105 42.636 153.977 42.404ZM166.702 47H165.586V41.696H162.802V47H161.686V40.76H166.702V47ZM170.855 46.196C171.119 46.196 171.351 46.192 171.551 46.184C171.759 46.168 171.931 46.144 172.067 46.112V44.252C171.987 44.212 171.855 44.18 171.671 44.156C171.495 44.124 171.279 44.108 171.023 44.108C170.855 44.108 170.675 44.12 170.483 44.144C170.299 44.168 170.127 44.22 169.967 44.3C169.815 44.372 169.687 44.476 169.583 44.612C169.479 44.74 169.427 44.912 169.427 45.128C169.427 45.528 169.555 45.808 169.811 45.968C170.067 46.12 170.415 46.196 170.855 46.196ZM170.759 40.604C171.207 40.604 171.583 40.664 171.887 40.784C172.199 40.896 172.447 41.06 172.631 41.276C172.823 41.484 172.959 41.736 173.039 42.032C173.119 42.32 173.159 42.64 173.159 42.992V46.892C173.063 46.908 172.927 46.932 172.751 46.964C172.583 46.988 172.391 47.012 172.175 47.036C171.959 47.06 171.723 47.08 171.467 47.096C171.219 47.12 170.971 47.132 170.723 47.132C170.371 47.132 170.047 47.096 169.751 47.024C169.455 46.952 169.199 46.84 168.983 46.688C168.767 46.528 168.599 46.32 168.479 46.064C168.359 45.808 168.299 45.5 168.299 45.14C168.299 44.796 168.367 44.5 168.503 44.252C168.647 44.004 168.839 43.804 169.079 43.652C169.319 43.5 169.599 43.388 169.919 43.316C170.239 43.244 170.575 43.208 170.927 43.208C171.039 43.208 171.155 43.216 171.275 43.232C171.395 43.24 171.507 43.256 171.611 43.28C171.723 43.296 171.819 43.312 171.899 43.328C171.979 43.344 172.035 43.356 172.067 43.364V43.052C172.067 42.868 172.047 42.688 172.007 42.512C171.967 42.328 171.895 42.168 171.791 42.032C171.687 41.888 171.543 41.776 171.359 41.696C171.183 41.608 170.951 41.564 170.663 41.564C170.295 41.564 169.971 41.592 169.691 41.648C169.419 41.696 169.215 41.748 169.079 41.804L168.947 40.88C169.091 40.816 169.331 40.756 169.667 40.7C170.003 40.636 170.367 40.604 170.759 40.604ZM180.245 47H179.129V44.24H176.249V47H175.133V40.76H176.249V43.304H179.129V40.76H180.245V47ZM187.528 40.76V47H186.448V42.248C186.208 42.552 185.944 42.908 185.656 43.316C185.368 43.724 185.08 44.148 184.792 44.588C184.504 45.02 184.228 45.448 183.964 45.872C183.7 46.296 183.472 46.672 183.28 47H182.284V40.76H183.364V45.248C183.572 44.904 183.808 44.528 184.072 44.12C184.336 43.704 184.608 43.296 184.888 42.896C185.176 42.488 185.46 42.1 185.74 41.732C186.028 41.356 186.296 41.032 186.544 40.76H187.528ZM192.144 44.576C192.024 44.576 191.908 44.576 191.796 44.576C191.684 44.568 191.576 44.56 191.472 44.552C191.216 44.936 190.968 45.348 190.728 45.788C190.496 46.22 190.288 46.624 190.104 47H188.976C189.072 46.768 189.184 46.532 189.312 46.292C189.44 46.044 189.568 45.804 189.696 45.572C189.832 45.34 189.968 45.12 190.104 44.912C190.24 44.704 190.368 44.516 190.488 44.348C190.264 44.268 190.08 44.172 189.936 44.06C189.792 43.94 189.676 43.808 189.588 43.664C189.5 43.52 189.436 43.368 189.396 43.208C189.364 43.04 189.348 42.872 189.348 42.704C189.348 42.352 189.412 42.044 189.54 41.78C189.676 41.516 189.86 41.3 190.092 41.132C190.324 40.956 190.596 40.824 190.908 40.736C191.228 40.648 191.576 40.604 191.952 40.604C192.48 40.604 192.928 40.628 193.296 40.676C193.664 40.724 193.972 40.78 194.22 40.844V47H193.116V44.576H192.144ZM193.116 41.588C193.028 41.572 192.88 41.556 192.672 41.54C192.472 41.524 192.24 41.516 191.976 41.516C191.52 41.516 191.152 41.612 190.872 41.804C190.592 41.988 190.452 42.284 190.452 42.692C190.452 43.092 190.596 43.368 190.884 43.52C191.172 43.672 191.544 43.748 192 43.748H193.116V41.588Z" fill="#1E1E1E"/>
</svg>
