<svg width="246" height="57" viewBox="0 0 246 57" fill="none" xmlns="http://www.w3.org/2000/svg">
<path fill-rule="evenodd" clip-rule="evenodd" d="M26.4099 1.28007C27.3395 0.461981 28.6605 0.461981 29.5901 1.28007L48.6804 18.0796L55.0446 23.6801C56.1423 24.6461 56.3203 26.4081 55.4421 27.6156C54.5639 28.8232 52.9621 29.019 51.8643 28.0529L49.6363 26.0923V53.8665C49.6363 55.4129 48.4967 56.6665 47.0908 56.6665H8.90915C7.50334 56.6665 6.36371 55.4129 6.36371 53.8665V26.0923L4.13567 28.0529C3.03791 29.019 1.43608 28.8232 0.55788 27.6156C-0.320323 26.4081 -0.142342 24.6461 0.955412 23.6801L7.31903 18.0801L26.4099 1.28007Z" fill="#009951"/>
<path d="M80.8375 32.6665H74.2438V12.4165H72.3219V26.7446C72.3219 28.63 72.0771 29.9842 71.5875 30.8071C71.1083 31.63 70.374 32.1457 69.3844 32.354C68.3948 32.5623 66.8167 32.6665 64.65 32.6665H63.6188V28.3071C64.4208 28.3071 64.9729 28.2082 65.275 28.0103C65.5771 27.8123 65.7281 27.1353 65.7281 25.979V7.354H80.8375V32.6665ZM95.1419 7.36963L98.9075 32.6665H92.1731L91.845 28.1196H89.4856L89.095 32.6665H82.2825L85.6263 7.36963H95.1419ZM91.6575 23.6353C91.3242 20.7707 90.9908 17.2342 90.6575 13.0259C89.9908 17.8592 89.5742 21.3957 89.4075 23.6353H91.6575ZM119.165 37.0259H114.618V32.6665H103.993V37.0259H99.4619V27.3853H100.806C101.514 25.3123 102.092 22.5884 102.54 19.2134C102.998 15.828 103.228 12.13 103.228 8.11963V7.354H117.821V27.354H119.165V37.0259ZM111.228 27.354V12.354H109.274V12.5415C109.274 17.3853 108.754 22.3228 107.712 27.354H111.228ZM134.579 7.354L132.782 24.1196C132.501 26.7655 132.199 28.6248 131.876 29.6978C131.553 30.7603 130.928 31.5207 130.001 31.979C129.074 32.4373 127.548 32.6665 125.423 32.6665H121.579V29.4009H121.969C122.834 29.4009 123.365 29.3332 123.563 29.1978C123.771 29.0519 123.876 28.8332 123.876 28.5415C123.876 28.5207 123.751 27.8071 123.501 26.4009L120.048 7.354H125.766L127.844 23.104L128.844 7.354H134.579ZM151.571 18.4009H144.993V13.9946C144.993 12.7134 144.92 11.9165 144.774 11.604C144.638 11.2811 144.331 11.1196 143.852 11.1196C143.31 11.1196 142.966 11.3123 142.821 11.6978C142.675 12.0832 142.602 12.9165 142.602 14.1978V25.9478C142.602 27.1769 142.675 27.979 142.821 28.354C142.966 28.729 143.295 28.9165 143.805 28.9165C144.295 28.9165 144.612 28.729 144.758 28.354C144.914 27.979 144.993 27.0988 144.993 25.7134V22.5415H151.571V23.5259C151.571 26.1405 151.383 27.9946 151.008 29.0884C150.644 30.1821 149.826 31.1405 148.555 31.9634C147.295 32.7863 145.737 33.1978 143.883 33.1978C141.956 33.1978 140.368 32.8488 139.118 32.1509C137.868 31.453 137.039 30.4894 136.633 29.2603C136.227 28.0207 136.024 26.1613 136.024 23.6821V16.2915C136.024 14.4686 136.086 13.104 136.211 12.1978C136.336 11.2811 136.706 10.4009 137.321 9.55713C137.946 8.71338 138.805 8.05192 139.899 7.57275C141.003 7.08317 142.269 6.83838 143.696 6.83838C145.633 6.83838 147.232 7.21338 148.493 7.96338C149.753 8.71338 150.581 9.65088 150.977 10.7759C151.373 11.8905 151.571 13.63 151.571 15.9946V18.4009ZM175.586 18.4009H169.007V13.9946C169.007 12.7134 168.935 11.9165 168.789 11.604C168.653 11.2811 168.346 11.1196 167.867 11.1196C167.325 11.1196 166.981 11.3123 166.836 11.6978C166.69 12.0832 166.617 12.9165 166.617 14.1978V25.9478C166.617 27.1769 166.69 27.979 166.836 28.354C166.981 28.729 167.31 28.9165 167.82 28.9165C168.31 28.9165 168.627 28.729 168.773 28.354C168.929 27.979 169.007 27.0988 169.007 25.7134V22.5415H175.586V23.5259C175.586 26.1405 175.398 27.9946 175.023 29.0884C174.659 30.1821 173.841 31.1405 172.57 31.9634C171.31 32.7863 169.752 33.1978 167.898 33.1978C165.971 33.1978 164.382 32.8488 163.132 32.1509C161.882 31.453 161.054 30.4894 160.648 29.2603C160.242 28.0207 160.039 26.1613 160.039 23.6821V16.2915C160.039 14.4686 160.101 13.104 160.226 12.1978C160.351 11.2811 160.721 10.4009 161.336 9.55713C161.961 8.71338 162.82 8.05192 163.914 7.57275C165.018 7.08317 166.284 6.83838 167.711 6.83838C169.648 6.83838 171.247 7.21338 172.507 7.96338C173.768 8.71338 174.596 9.65088 174.992 10.7759C175.388 11.8905 175.586 13.63 175.586 15.9946V18.4009ZM191.515 7.36963V12.4321H187.609V32.6665H181.031V12.4321H177.14V7.36963H191.515ZM193.335 7.36963H199.96C201.752 7.36963 203.127 7.51025 204.085 7.7915C205.054 8.07275 205.778 8.479 206.257 9.01025C206.746 9.5415 207.075 10.1873 207.241 10.9478C207.418 11.6978 207.507 12.8644 207.507 14.4478V16.6509C207.507 18.2655 207.34 19.4425 207.007 20.1821C206.674 20.9217 206.059 21.4894 205.163 21.8853C204.278 22.2811 203.116 22.479 201.679 22.479H199.913V32.6665H193.335V7.36963ZM199.913 11.6978V18.1353C200.101 18.1457 200.262 18.1509 200.397 18.1509C201.002 18.1509 201.418 18.005 201.647 17.7134C201.887 17.4113 202.007 16.7915 202.007 15.854V13.7759C202.007 12.9113 201.871 12.3488 201.601 12.0884C201.33 11.828 200.767 11.6978 199.913 11.6978ZM224.749 22.1821C224.749 24.7238 224.686 26.5259 224.561 27.5884C224.447 28.6405 224.072 29.604 223.436 30.479C222.811 31.354 221.962 32.0259 220.889 32.4946C219.816 32.9634 218.566 33.1978 217.139 33.1978C215.785 33.1978 214.566 32.979 213.483 32.5415C212.41 32.0936 211.546 31.4269 210.889 30.5415C210.233 29.6561 209.842 28.6925 209.717 27.6509C209.592 26.6092 209.53 24.7863 209.53 22.1821V17.854C209.53 15.3123 209.587 13.5155 209.702 12.4634C209.827 11.4009 210.202 10.4321 210.827 9.55713C211.462 8.68213 212.316 8.01025 213.389 7.5415C214.462 7.07275 215.712 6.83838 217.139 6.83838C218.494 6.83838 219.707 7.06234 220.78 7.51025C221.863 7.94775 222.733 8.60921 223.389 9.49463C224.046 10.38 224.436 11.3436 224.561 12.3853C224.686 13.4269 224.749 15.2498 224.749 17.854V22.1821ZM218.171 13.8696C218.171 12.6925 218.103 11.9425 217.967 11.6196C217.842 11.2863 217.577 11.1196 217.171 11.1196C216.827 11.1196 216.561 11.255 216.374 11.5259C216.197 11.7863 216.108 12.5675 216.108 13.8696V25.6821C216.108 27.1509 216.165 28.0571 216.28 28.4009C216.405 28.7446 216.686 28.9165 217.124 28.9165C217.572 28.9165 217.858 28.7186 217.983 28.3228C218.108 27.9269 218.171 26.9842 218.171 25.4946V13.8696ZM242.225 32.6665H236.725V21.1509L233.303 32.6665H227.538V7.354H233.038V18.7759L236.725 7.354H242.225V32.6665ZM236.616 1.854H239.272C239.209 3.27067 238.793 4.4113 238.022 5.27588C237.261 6.14046 236.199 6.57275 234.834 6.57275C233.459 6.57275 232.392 6.14046 231.631 5.27588C230.881 4.40088 230.475 3.26025 230.413 1.854H233.069C233.194 3.28109 233.782 3.99463 234.834 3.99463C235.897 3.99463 236.491 3.28109 236.616 1.854Z" fill="#F3F3F3"/>
<path d="M70.9919 53.8465C70.3619 53.8465 69.8069 53.7465 69.3269 53.5465C68.8569 53.3465 68.4569 53.0665 68.1269 52.7065C67.8069 52.3465 67.5669 51.9215 67.4069 51.4315C67.2469 50.9315 67.1669 50.3815 67.1669 49.7815C67.1669 49.1815 67.2519 48.6315 67.4219 48.1315C67.6019 47.6315 67.8519 47.2015 68.1719 46.8415C68.4919 46.4715 68.8819 46.1865 69.3419 45.9865C69.8119 45.7765 70.3319 45.6715 70.9019 45.6715C71.2519 45.6715 71.6019 45.7015 71.9519 45.7615C72.3019 45.8215 72.6369 45.9165 72.9569 46.0465L72.6419 47.2315C72.4319 47.1315 72.1869 47.0515 71.9069 46.9915C71.6369 46.9315 71.3469 46.9015 71.0369 46.9015C70.2569 46.9015 69.6569 47.1465 69.2369 47.6365C68.8269 48.1265 68.6219 48.8415 68.6219 49.7815C68.6219 50.2015 68.6669 50.5865 68.7569 50.9365C68.8569 51.2865 69.0069 51.5865 69.2069 51.8365C69.4169 52.0865 69.6819 52.2815 70.0019 52.4215C70.3219 52.5515 70.7119 52.6165 71.1719 52.6165C71.5419 52.6165 71.8769 52.5815 72.1769 52.5115C72.4769 52.4415 72.7119 52.3665 72.8819 52.2865L73.0769 53.4565C72.9969 53.5065 72.8819 53.5565 72.7319 53.6065C72.5819 53.6465 72.4119 53.6815 72.2219 53.7115C72.0319 53.7515 71.8269 53.7815 71.6069 53.8015C71.3969 53.8315 71.1919 53.8465 70.9919 53.8465ZM80.4492 45.8665V47.0365H77.9142V53.6665H76.5192V47.0365H73.9842V45.8665H80.4492ZM87.4526 49.7815C87.4526 48.8715 87.2276 48.1715 86.7776 47.6815C86.3276 47.1915 85.7276 46.9465 84.9776 46.9465C84.5576 46.9465 84.2276 46.9615 83.9876 46.9915C83.7576 47.0215 83.5726 47.0565 83.4326 47.0965V52.0165C83.6026 52.1565 83.8476 52.2915 84.1676 52.4215C84.4876 52.5515 84.8376 52.6165 85.2176 52.6165C85.6176 52.6165 85.9576 52.5465 86.2376 52.4065C86.5276 52.2565 86.7626 52.0565 86.9426 51.8065C87.1226 51.5465 87.2526 51.2465 87.3326 50.9065C87.4126 50.5565 87.4526 50.1815 87.4526 49.7815ZM88.9076 49.7815C88.9076 50.3715 88.8276 50.9165 88.6676 51.4165C88.5176 51.9165 88.2926 52.3465 87.9926 52.7065C87.6926 53.0665 87.3226 53.3465 86.8826 53.5465C86.4526 53.7465 85.9576 53.8465 85.3976 53.8465C84.9476 53.8465 84.5476 53.7865 84.1976 53.6665C83.8576 53.5465 83.6026 53.4315 83.4326 53.3215V56.4415H82.0376V46.1065C82.3676 46.0265 82.7776 45.9415 83.2676 45.8515C83.7676 45.7515 84.3426 45.7015 84.9926 45.7015C85.5926 45.7015 86.1326 45.7965 86.6126 45.9865C87.0926 46.1765 87.5026 46.4465 87.8426 46.7965C88.1826 47.1465 88.4426 47.5765 88.6226 48.0865C88.8126 48.5865 88.9076 49.1515 88.9076 49.7815ZM97.9056 49.7665C97.9056 50.3865 97.8156 50.9465 97.6356 51.4465C97.4556 51.9465 97.2006 52.3765 96.8706 52.7365C96.5506 53.0965 96.1656 53.3765 95.7156 53.5765C95.2656 53.7665 94.7756 53.8615 94.2456 53.8615C93.7156 53.8615 93.2256 53.7665 92.7756 53.5765C92.3256 53.3765 91.9356 53.0965 91.6056 52.7365C91.2856 52.3765 91.0356 51.9465 90.8556 51.4465C90.6756 50.9465 90.5856 50.3865 90.5856 49.7665C90.5856 49.1565 90.6756 48.6015 90.8556 48.1015C91.0356 47.5915 91.2856 47.1565 91.6056 46.7965C91.9356 46.4365 92.3256 46.1615 92.7756 45.9715C93.2256 45.7715 93.7156 45.6715 94.2456 45.6715C94.7756 45.6715 95.2656 45.7715 95.7156 45.9715C96.1656 46.1615 96.5506 46.4365 96.8706 46.7965C97.2006 47.1565 97.4556 47.5915 97.6356 48.1015C97.8156 48.6015 97.9056 49.1565 97.9056 49.7665ZM96.4506 49.7665C96.4506 48.8865 96.2506 48.1915 95.8506 47.6815C95.4606 47.1615 94.9256 46.9015 94.2456 46.9015C93.5656 46.9015 93.0256 47.1615 92.6256 47.6815C92.2356 48.1915 92.0406 48.8865 92.0406 49.7665C92.0406 50.6465 92.2356 51.3465 92.6256 51.8665C93.0256 52.3765 93.5656 52.6315 94.2456 52.6315C94.9256 52.6315 95.4606 52.3765 95.8506 51.8665C96.2506 51.3465 96.4506 50.6465 96.4506 49.7665ZM106.573 45.8665V53.6665H105.223V47.7265C104.923 48.1065 104.593 48.5515 104.233 49.0615C103.873 49.5715 103.513 50.1015 103.153 50.6515C102.793 51.1915 102.448 51.7265 102.118 52.2565C101.788 52.7865 101.503 53.2565 101.263 53.6665H100.018V45.8665H101.368V51.4765C101.628 51.0465 101.923 50.5765 102.253 50.0665C102.583 49.5465 102.923 49.0365 103.273 48.5365C103.633 48.0265 103.988 47.5415 104.338 47.0815C104.698 46.6115 105.033 46.2065 105.343 45.8665H106.573ZM114.623 45.8665V47.0365H112.088V53.6665H110.693V47.0365H108.158V45.8665H114.623ZM115.777 49.7815C115.777 49.0915 115.877 48.4915 116.077 47.9815C116.277 47.4615 116.542 47.0315 116.872 46.6915C117.202 46.3515 117.582 46.0965 118.012 45.9265C118.442 45.7565 118.882 45.6715 119.332 45.6715C120.382 45.6715 121.187 46.0015 121.747 46.6615C122.307 47.3115 122.587 48.3065 122.587 49.6465C122.587 49.7065 122.587 49.7865 122.587 49.8865C122.587 49.9765 122.582 50.0615 122.572 50.1415H117.232C117.292 50.9515 117.527 51.5665 117.937 51.9865C118.347 52.4065 118.987 52.6165 119.857 52.6165C120.347 52.6165 120.757 52.5765 121.087 52.4965C121.427 52.4065 121.682 52.3215 121.852 52.2415L122.047 53.4115C121.877 53.5015 121.577 53.5965 121.147 53.6965C120.727 53.7965 120.247 53.8465 119.707 53.8465C119.027 53.8465 118.437 53.7465 117.937 53.5465C117.447 53.3365 117.042 53.0515 116.722 52.6915C116.402 52.3315 116.162 51.9065 116.002 51.4165C115.852 50.9165 115.777 50.3715 115.777 49.7815ZM121.132 49.0165C121.142 48.3865 120.982 47.8715 120.652 47.4715C120.332 47.0615 119.887 46.8565 119.317 46.8565C118.997 46.8565 118.712 46.9215 118.462 47.0515C118.222 47.1715 118.017 47.3315 117.847 47.5315C117.677 47.7315 117.542 47.9615 117.442 48.2215C117.352 48.4815 117.292 48.7465 117.262 49.0165H121.132ZM127.456 47.0365C127.456 47.3665 127.446 47.7215 127.426 48.1015C127.416 48.4715 127.391 48.8465 127.351 49.2265C127.311 49.5965 127.256 49.9665 127.186 50.3365C127.116 50.6965 127.026 51.0365 126.916 51.3565C126.806 51.6765 126.666 51.9765 126.496 52.2565C126.336 52.5365 126.136 52.7865 125.896 53.0065C125.656 53.2165 125.376 53.3965 125.056 53.5465C124.736 53.6865 124.361 53.7765 123.931 53.8165L123.736 52.6465C124.226 52.5465 124.611 52.3615 124.891 52.0915C125.181 51.8215 125.411 51.4915 125.581 51.1015C125.731 50.7615 125.841 50.3765 125.911 49.9465C125.981 49.5165 126.031 49.0715 126.061 48.6115C126.091 48.1415 126.106 47.6715 126.106 47.2015C126.116 46.7315 126.121 46.2865 126.121 45.8665H131.311V53.6665H129.916V47.0365H127.456ZM136.811 52.6915C137.401 52.6915 137.866 52.5765 138.206 52.3465C138.546 52.1165 138.716 51.7465 138.716 51.2365C138.716 50.9865 138.666 50.7715 138.566 50.5915C138.466 50.4115 138.326 50.2665 138.146 50.1565C137.976 50.0365 137.776 49.9515 137.546 49.9015C137.316 49.8415 137.071 49.8115 136.811 49.8115C136.541 49.8115 136.261 49.8215 135.971 49.8415C135.691 49.8515 135.451 49.8815 135.251 49.9315V52.6165C135.311 52.6265 135.401 52.6365 135.521 52.6465C135.641 52.6565 135.771 52.6665 135.911 52.6765C136.061 52.6765 136.211 52.6815 136.361 52.6915C136.521 52.6915 136.671 52.6915 136.811 52.6915ZM133.856 53.5015V45.8665H135.251V48.8515C135.331 48.8315 135.436 48.8115 135.566 48.7915C135.706 48.7715 135.851 48.7515 136.001 48.7315C136.161 48.7115 136.326 48.6965 136.496 48.6865C136.666 48.6765 136.826 48.6715 136.976 48.6715C137.406 48.6715 137.811 48.7215 138.191 48.8215C138.571 48.9115 138.901 49.0615 139.181 49.2715C139.471 49.4715 139.701 49.7365 139.871 50.0665C140.041 50.3865 140.126 50.7715 140.126 51.2215C140.126 51.6915 140.046 52.0915 139.886 52.4215C139.726 52.7515 139.496 53.0215 139.196 53.2315C138.896 53.4415 138.536 53.5915 138.116 53.6815C137.706 53.7815 137.246 53.8315 136.736 53.8315C136.236 53.8315 135.746 53.8015 135.266 53.7415C134.786 53.6915 134.316 53.6115 133.856 53.5015ZM148.32 53.6665H146.925V50.2165H143.325V53.6665H141.93V45.8665H143.325V49.0465H146.925V45.8665H148.32V53.6665ZM153.509 52.6615C153.839 52.6615 154.129 52.6565 154.379 52.6465C154.639 52.6265 154.854 52.5965 155.024 52.5565V50.2315C154.924 50.1815 154.759 50.1415 154.529 50.1115C154.309 50.0715 154.039 50.0515 153.719 50.0515C153.509 50.0515 153.284 50.0665 153.044 50.0965C152.814 50.1265 152.599 50.1915 152.399 50.2915C152.209 50.3815 152.049 50.5115 151.919 50.6815C151.789 50.8415 151.724 51.0565 151.724 51.3265C151.724 51.8265 151.884 52.1765 152.204 52.3765C152.524 52.5665 152.959 52.6615 153.509 52.6615ZM153.389 45.6715C153.949 45.6715 154.419 45.7465 154.799 45.8965C155.189 46.0365 155.499 46.2415 155.729 46.5115C155.969 46.7715 156.139 47.0865 156.239 47.4565C156.339 47.8165 156.389 48.2165 156.389 48.6565V53.5315C156.269 53.5515 156.099 53.5815 155.879 53.6215C155.669 53.6515 155.429 53.6815 155.159 53.7115C154.889 53.7415 154.594 53.7665 154.274 53.7865C153.964 53.8165 153.654 53.8315 153.344 53.8315C152.904 53.8315 152.499 53.7865 152.129 53.6965C151.759 53.6065 151.439 53.4665 151.169 53.2765C150.899 53.0765 150.689 52.8165 150.539 52.4965C150.389 52.1765 150.314 51.7915 150.314 51.3415C150.314 50.9115 150.399 50.5415 150.569 50.2315C150.749 49.9215 150.989 49.6715 151.289 49.4815C151.589 49.2915 151.939 49.1515 152.339 49.0615C152.739 48.9715 153.159 48.9265 153.599 48.9265C153.739 48.9265 153.884 48.9365 154.034 48.9565C154.184 48.9665 154.324 48.9865 154.454 49.0165C154.594 49.0365 154.714 49.0565 154.814 49.0765C154.914 49.0965 154.984 49.1115 155.024 49.1215V48.7315C155.024 48.5015 154.999 48.2765 154.949 48.0565C154.899 47.8265 154.809 47.6265 154.679 47.4565C154.549 47.2765 154.369 47.1365 154.139 47.0365C153.919 46.9265 153.629 46.8715 153.269 46.8715C152.809 46.8715 152.404 46.9065 152.054 46.9765C151.714 47.0365 151.459 47.1015 151.289 47.1715L151.124 46.0165C151.304 45.9365 151.604 45.8615 152.024 45.7915C152.444 45.7115 152.899 45.6715 153.389 45.6715ZM162.081 50.6365C161.931 50.6365 161.786 50.6365 161.646 50.6365C161.506 50.6265 161.371 50.6165 161.241 50.6065C160.921 51.0865 160.611 51.6015 160.311 52.1515C160.021 52.6915 159.761 53.1965 159.531 53.6665H158.121C158.241 53.3765 158.381 53.0815 158.541 52.7815C158.701 52.4715 158.861 52.1715 159.021 51.8815C159.191 51.5915 159.361 51.3165 159.531 51.0565C159.701 50.7965 159.861 50.5615 160.011 50.3515C159.731 50.2515 159.501 50.1315 159.321 49.9915C159.141 49.8415 158.996 49.6765 158.886 49.4965C158.776 49.3165 158.696 49.1265 158.646 48.9265C158.606 48.7165 158.586 48.5065 158.586 48.2965C158.586 47.8565 158.666 47.4715 158.826 47.1415C158.996 46.8115 159.226 46.5415 159.516 46.3315C159.806 46.1115 160.146 45.9465 160.536 45.8365C160.936 45.7265 161.371 45.6715 161.841 45.6715C162.501 45.6715 163.061 45.7015 163.521 45.7615C163.981 45.8215 164.366 45.8915 164.676 45.9715V53.6665H163.296V50.6365H162.081ZM163.296 46.9015C163.186 46.8815 163.001 46.8615 162.741 46.8415C162.491 46.8215 162.201 46.8115 161.871 46.8115C161.301 46.8115 160.841 46.9315 160.491 47.1715C160.141 47.4015 159.966 47.7715 159.966 48.2815C159.966 48.7815 160.146 49.1265 160.506 49.3165C160.866 49.5065 161.331 49.6015 161.901 49.6015H163.296V46.9015ZM173.696 49.4215C174.006 49.6415 174.341 49.9215 174.701 50.2615C175.061 50.5915 175.411 50.9515 175.751 51.3415C176.101 51.7315 176.426 52.1315 176.726 52.5415C177.026 52.9415 177.281 53.3165 177.491 53.6665H175.841C175.621 53.3265 175.361 52.9815 175.061 52.6315C174.771 52.2715 174.466 51.9265 174.146 51.5965C173.826 51.2665 173.501 50.9615 173.171 50.6815C172.841 50.4015 172.531 50.1665 172.241 49.9765V53.6665H170.846V45.8665H172.241V49.2115C172.481 48.9815 172.756 48.7165 173.066 48.4165C173.376 48.1065 173.686 47.7965 173.996 47.4865C174.316 47.1665 174.611 46.8665 174.881 46.5865C175.151 46.2965 175.371 46.0565 175.541 45.8665H177.161C176.941 46.1065 176.681 46.3815 176.381 46.6915C176.091 46.9915 175.786 47.3015 175.466 47.6215C175.156 47.9415 174.846 48.2615 174.536 48.5815C174.226 48.8915 173.946 49.1715 173.696 49.4215ZM185.498 49.7665C185.498 50.3865 185.408 50.9465 185.228 51.4465C185.048 51.9465 184.793 52.3765 184.463 52.7365C184.143 53.0965 183.758 53.3765 183.308 53.5765C182.858 53.7665 182.368 53.8615 181.838 53.8615C181.308 53.8615 180.818 53.7665 180.368 53.5765C179.918 53.3765 179.528 53.0965 179.198 52.7365C178.878 52.3765 178.628 51.9465 178.448 51.4465C178.268 50.9465 178.178 50.3865 178.178 49.7665C178.178 49.1565 178.268 48.6015 178.448 48.1015C178.628 47.5915 178.878 47.1565 179.198 46.7965C179.528 46.4365 179.918 46.1615 180.368 45.9715C180.818 45.7715 181.308 45.6715 181.838 45.6715C182.368 45.6715 182.858 45.7715 183.308 45.9715C183.758 46.1615 184.143 46.4365 184.463 46.7965C184.793 47.1565 185.048 47.5915 185.228 48.1015C185.408 48.6015 185.498 49.1565 185.498 49.7665ZM184.043 49.7665C184.043 48.8865 183.843 48.1915 183.443 47.6815C183.053 47.1615 182.518 46.9015 181.838 46.9015C181.158 46.9015 180.618 47.1615 180.218 47.6815C179.828 48.1915 179.633 48.8865 179.633 49.7665C179.633 50.6465 179.828 51.3465 180.218 51.8665C180.618 52.3765 181.158 52.6315 181.838 52.6315C182.518 52.6315 183.053 52.3765 183.443 51.8665C183.843 51.3465 184.043 50.6465 184.043 49.7665ZM189.096 47.9215C188.996 48.9115 188.921 49.9015 188.871 50.8915C188.821 51.8715 188.781 52.7965 188.751 53.6665H187.416C187.436 53.0565 187.466 52.4215 187.506 51.7615C187.546 51.0915 187.591 50.4215 187.641 49.7515C187.691 49.0715 187.746 48.4065 187.806 47.7565C187.866 47.0965 187.931 46.4665 188.001 45.8665H189.276C189.596 46.3865 189.971 47.1015 190.401 48.0115C190.831 48.9115 191.326 49.9515 191.886 51.1315C192.446 49.9515 192.941 48.9115 193.371 48.0115C193.801 47.1015 194.176 46.3865 194.496 45.8665H195.786C195.856 46.4665 195.921 47.0965 195.981 47.7565C196.041 48.4065 196.096 49.0715 196.146 49.7515C196.196 50.4215 196.241 51.0915 196.281 51.7615C196.321 52.4215 196.351 53.0565 196.371 53.6665H194.991C194.961 52.7965 194.921 51.8715 194.871 50.8915C194.821 49.9015 194.746 48.9115 194.646 47.9215C194.486 48.2315 194.301 48.6065 194.091 49.0465C193.881 49.4765 193.671 49.9165 193.461 50.3665C193.261 50.8165 193.071 51.2465 192.891 51.6565C192.711 52.0665 192.571 52.3915 192.471 52.6315H191.301C191.191 52.3815 191.041 52.0515 190.851 51.6415C190.671 51.2315 190.476 50.8015 190.266 50.3515C190.066 49.8915 189.861 49.4465 189.651 49.0165C189.441 48.5765 189.256 48.2115 189.096 47.9215ZM205.002 53.6665H203.607V47.0365H200.127V53.6665H198.732V45.8665H205.002V53.6665ZM210.194 52.6615C210.524 52.6615 210.814 52.6565 211.064 52.6465C211.324 52.6265 211.539 52.5965 211.709 52.5565V50.2315C211.609 50.1815 211.444 50.1415 211.214 50.1115C210.994 50.0715 210.724 50.0515 210.404 50.0515C210.194 50.0515 209.969 50.0665 209.729 50.0965C209.499 50.1265 209.284 50.1915 209.084 50.2915C208.894 50.3815 208.734 50.5115 208.604 50.6815C208.474 50.8415 208.409 51.0565 208.409 51.3265C208.409 51.8265 208.569 52.1765 208.889 52.3765C209.209 52.5665 209.644 52.6615 210.194 52.6615ZM210.074 45.6715C210.634 45.6715 211.104 45.7465 211.484 45.8965C211.874 46.0365 212.184 46.2415 212.414 46.5115C212.654 46.7715 212.824 47.0865 212.924 47.4565C213.024 47.8165 213.074 48.2165 213.074 48.6565V53.5315C212.954 53.5515 212.784 53.5815 212.564 53.6215C212.354 53.6515 212.114 53.6815 211.844 53.7115C211.574 53.7415 211.279 53.7665 210.959 53.7865C210.649 53.8165 210.339 53.8315 210.029 53.8315C209.589 53.8315 209.184 53.7865 208.814 53.6965C208.444 53.6065 208.124 53.4665 207.854 53.2765C207.584 53.0765 207.374 52.8165 207.224 52.4965C207.074 52.1765 206.999 51.7915 206.999 51.3415C206.999 50.9115 207.084 50.5415 207.254 50.2315C207.434 49.9215 207.674 49.6715 207.974 49.4815C208.274 49.2915 208.624 49.1515 209.024 49.0615C209.424 48.9715 209.844 48.9265 210.284 48.9265C210.424 48.9265 210.569 48.9365 210.719 48.9565C210.869 48.9665 211.009 48.9865 211.139 49.0165C211.279 49.0365 211.399 49.0565 211.499 49.0765C211.599 49.0965 211.669 49.1115 211.709 49.1215V48.7315C211.709 48.5015 211.684 48.2765 211.634 48.0565C211.584 47.8265 211.494 47.6265 211.364 47.4565C211.234 47.2765 211.054 47.1365 210.824 47.0365C210.604 46.9265 210.314 46.8715 209.954 46.8715C209.494 46.8715 209.089 46.9065 208.739 46.9765C208.399 47.0365 208.144 47.1015 207.974 47.1715L207.809 46.0165C207.989 45.9365 208.289 45.8615 208.709 45.7915C209.129 45.7115 209.584 45.6715 210.074 45.6715ZM221.931 53.6665H220.536V50.2165H216.936V53.6665H215.541V45.8665H216.936V49.0465H220.536V45.8665H221.931V53.6665ZM231.035 45.8665V53.6665H229.685V47.7265C229.385 48.1065 229.055 48.5515 228.695 49.0615C228.335 49.5715 227.975 50.1015 227.615 50.6515C227.255 51.1915 226.91 51.7265 226.58 52.2565C226.25 52.7865 225.965 53.2565 225.725 53.6665H224.48V45.8665H225.83V51.4765C226.09 51.0465 226.385 50.5765 226.715 50.0665C227.045 49.5465 227.385 49.0365 227.735 48.5365C228.095 48.0265 228.45 47.5415 228.8 47.0815C229.16 46.6115 229.495 46.2065 229.805 45.8665H231.035ZM236.805 50.6365C236.655 50.6365 236.51 50.6365 236.37 50.6365C236.23 50.6265 236.095 50.6165 235.965 50.6065C235.645 51.0865 235.335 51.6015 235.035 52.1515C234.745 52.6915 234.485 53.1965 234.255 53.6665H232.845C232.965 53.3765 233.105 53.0815 233.265 52.7815C233.425 52.4715 233.585 52.1715 233.745 51.8815C233.915 51.5915 234.085 51.3165 234.255 51.0565C234.425 50.7965 234.585 50.5615 234.735 50.3515C234.455 50.2515 234.225 50.1315 234.045 49.9915C233.865 49.8415 233.72 49.6765 233.61 49.4965C233.5 49.3165 233.42 49.1265 233.37 48.9265C233.33 48.7165 233.31 48.5065 233.31 48.2965C233.31 47.8565 233.39 47.4715 233.55 47.1415C233.72 46.8115 233.95 46.5415 234.24 46.3315C234.53 46.1115 234.87 45.9465 235.26 45.8365C235.66 45.7265 236.095 45.6715 236.565 45.6715C237.225 45.6715 237.785 45.7015 238.245 45.7615C238.705 45.8215 239.09 45.8915 239.4 45.9715V53.6665H238.02V50.6365H236.805ZM238.02 46.9015C237.91 46.8815 237.725 46.8615 237.465 46.8415C237.215 46.8215 236.925 46.8115 236.595 46.8115C236.025 46.8115 235.565 46.9315 235.215 47.1715C234.865 47.4015 234.69 47.7715 234.69 48.2815C234.69 48.7815 234.87 49.1265 235.23 49.3165C235.59 49.5065 236.055 49.6015 236.625 49.6015H238.02V46.9015Z" fill="#F3F3F3"/>
</svg>
