<svg width="48" height="48" viewBox="0 0 48 48" fill="none" xmlns="http://www.w3.org/2000/svg">
<rect width="48" height="48" rx="24" fill="#14AE5C"/>
<rect x="4" y="4" width="40" height="40" rx="20" fill="#14AE5C"/>
<path fill-rule="evenodd" clip-rule="evenodd" d="M23.8005 10H23.7979C20.2367 9.99561 16.7595 11.4262 14.215 13.9137C10.1591 17.8617 8.88411 24.1118 11.0308 29.3609C12.3707 32.6376 14.9595 35.3491 18.192 36.8031C21.6259 38.3476 25.6112 38.4009 29.0841 36.9422C32.355 35.5684 35.0071 32.9318 36.4297 29.6825C37.5506 27.1226 37.8822 24.2418 37.3969 21.492L34.4231 23.7131C34.4231 25.3203 34.1584 26.8892 33.5097 28.3685C32.4144 30.8657 30.3769 32.8942 27.8628 33.9517C25.1903 35.0758 22.1327 35.0349 19.4883 33.8439C17.0011 32.7237 15.0146 30.6431 13.9815 28.1204C12.8742 25.4164 12.9132 22.3084 14.0864 19.6334C15.1809 17.1379 17.2174 15.1106 19.7322 14.0526C23.025 12.6673 26.8401 13.064 29.7872 15.113L32.4735 13.1063C30.0446 11.113 26.9414 9.996 23.8005 10ZM34.7307 15.4419C35.3871 16.3019 35.9427 17.2362 36.3864 18.226L23.8008 27.6284L18.5409 24.2869V20.2668L23.8008 23.6084L34.7307 15.4419Z" fill="white"/>
</svg>
