<svg width="180" height="28" viewBox="0 0 180 28" fill="none" xmlns="http://www.w3.org/2000/svg">
<path d="M80.5 8.49999L84.3 5.7H71.7V22.3H84.3V19.5H75.3V15.3H82.9V12.5H75.3V8.49999H80.5ZM64.8 8.49999L68.6 5.7H54.2V22.3H61.7C65.9 22.3 68.3 20.4 68.3 17.1C68.3 13.9 66.1 12.2 62.1 12.2H57.7V8.49999H64.8ZM61.6 14.9C63.9 14.9 64.9 15.7 64.9 17.2C64.9 18.7 63.8 19.5 61.6 19.5H57.8V14.9H61.6ZM94.4 5.7H87.6V22.3H91.2V17.6H94.5C98.9 17.6 101.6 15.3 101.6 11.6C101.6 7.89999 98.8 5.7 94.4 5.7ZM94.4 14.8H91.2V8.39999H94.4C96.7 8.39999 98 9.49999 98 11.6C97.9 13.7 96.7 14.8 94.4 14.8ZM48.1 18.7C47.1 19.2 46.1 19.5 45 19.5C41.8 19.5 39.4 17.2 39.4 14C39.4 10.8 41.7 8.49999 45 8.49999C46.2 8.49999 47.3 8.89999 48.3 9.49999L50.9 7.59999L50.7 7.39999C49.2 6.09999 47.2 5.39999 44.9 5.39999C42.4 5.39999 40.2 6.19999 38.5 7.79999C36.9 9.39999 35.9 11.6 36 13.9C36 16.2 36.9 18.4 38.5 20.1C40.2 21.7 42.5 22.6 44.8 22.5C47.4 22.5 49.6 21.6 51.2 20L48.9 18.3L48.1 18.7ZM156 12.5H148.3V5.7H144.7V22.3H148.3V15.5H156V22.3H159.6V5.7H156V12.5ZM131.7 5.7L124.5 22.3H128.1L129.5 19H137.1L138.5 22.3H142.3L135.3 5.7H131.7ZM130.7 16.2L133.5 9.49999L136.1 16.2H130.7ZM172.6 13.7L179.1 5.7H175L169.6 12.8H167.6V5.7H164V22.3H167.6V15.6H169.9L175.4 22.3H180L172.6 13.7ZM117 12.2H112.6V8.49999H122V5.7H109V22.3H116.5C120.7 22.3 123.1 20.4 123.1 17.1C123.2 13.9 121 12.2 117 12.2ZM116.4 19.6H112.6V15H116.4C118.7 15 119.7 15.8 119.7 17.3C119.8 18.8 118.6 19.6 116.4 19.6Z" fill="#21A038"/>
<path d="M24.4808 5.38132C25.13 6.23195 25.6796 7.15608 26.1184 8.13517L13.6695 17.4354L8.4668 14.1302V10.1538L13.6695 13.459L24.4808 5.38132Z" fill="#21A038"/>
<path d="M3.15729 13.8494C3.15729 13.671 3.16159 13.4937 3.17017 13.3175L0.0171718 13.1609C0.00644001 13.3893 3.81025e-06 13.6199 3.81025e-06 13.8526C-0.0013377 15.671 0.351574 17.4717 1.0385 19.1514C1.72543 20.8312 2.73284 22.357 4.00296 23.6412L6.23946 21.3757C5.26177 20.3889 4.48617 19.2159 3.95722 17.9243C3.42828 16.6327 3.15643 15.2478 3.15729 13.8494Z" fill="url(#paint0_linear_102_7347)"/>
<path d="M13.6669 3.19926C13.8429 3.19926 14.0178 3.20579 14.1917 3.21449L14.3494 0.0179719C14.1234 0.00709566 13.8958 0.00165822 13.6669 0.00165822C11.8719 -0.00056026 10.0942 0.356585 8.43573 1.05259C6.7773 1.74859 5.27087 2.76974 4.00293 4.0574L6.23943 6.324C7.21322 5.33283 8.37073 4.5465 9.64541 4.01025C10.9201 3.474 12.2867 3.19838 13.6669 3.19926Z" fill="url(#paint1_linear_102_7347)"/>
<path d="M13.667 24.5008C13.491 24.5008 13.316 24.5008 13.1412 24.4867L12.9834 27.6821C13.2102 27.6937 13.4381 27.6996 13.667 27.6996C15.4613 27.7014 17.2382 27.3441 18.8957 26.6479C20.5532 25.9517 22.0587 24.9304 23.3257 23.6427L21.0934 21.3772C20.1195 22.3679 18.9621 23.1538 17.6877 23.6898C16.4132 24.2259 15.0468 24.5015 13.667 24.5008Z" fill="url(#paint2_linear_102_7347)"/>
<path d="M19.5914 5.05746L22.2486 3.07255C19.8199 1.07944 16.7882 -0.00553265 13.6631 2.12167e-05V3.19871C15.7793 3.19605 17.8464 3.84418 19.5914 5.05746Z" fill="url(#paint3_linear_102_7347)"/>
<path d="M27.3332 13.8499C27.3349 13.0178 27.263 12.1872 27.1185 11.368L24.1769 13.565C24.1769 13.6597 24.1769 13.7543 24.1769 13.8499C24.1777 15.3381 23.8699 16.8099 23.2735 18.1697C22.6771 19.5296 21.8053 20.7473 20.7148 21.7439L22.8365 24.1204C24.2543 22.8233 25.3872 21.2387 26.1618 19.4695C26.9365 17.7002 27.3355 15.7856 27.3332 13.8499Z" fill="#21A038"/>
<path d="M13.6672 24.5014C12.1987 24.5019 10.7465 24.1898 9.40445 23.5854C8.06251 22.981 6.86075 22.0976 5.87702 20.9927L3.5332 23.1418C4.81292 24.5788 6.37638 25.7272 8.1222 26.5125C9.86801 27.2977 11.7572 27.7023 13.6672 27.7V24.5014Z" fill="url(#paint4_linear_102_7347)"/>
<path d="M6.61938 5.95572L4.49877 3.57927C3.08064 4.87612 1.94732 6.46058 1.1723 8.22989C0.397285 9.99919 -0.00211296 11.9138 8.40637e-06 13.8497H3.1573C3.15665 12.3616 3.46451 10.8898 4.0609 9.52995C4.6573 8.17011 5.52895 6.95239 6.61938 5.95572Z" fill="url(#paint5_linear_102_7347)"/>
<defs>
<linearGradient id="paint0_linear_102_7347" x1="4.6415" y1="23.2421" x2="1.10907" y2="13.1662" gradientUnits="userSpaceOnUse">
<stop offset="0.14" stop-color="#F1E813"/>
<stop offset="0.3" stop-color="#E6E418"/>
<stop offset="0.58" stop-color="#C9DA26"/>
<stop offset="0.89" stop-color="#A2CC39"/>
</linearGradient>
<linearGradient id="paint1_linear_102_7347" x1="4.9044" y1="4.62296" x2="13.819" y2="1.27083" gradientUnits="userSpaceOnUse">
<stop offset="0.06" stop-color="#0FA7DF"/>
<stop offset="0.54" stop-color="#0098F8"/>
<stop offset="0.92" stop-color="#0290EA"/>
</linearGradient>
<linearGradient id="paint2_linear_102_7347" x1="12.7752" y1="25.769" x2="22.8352" y2="23.5265" gradientUnits="userSpaceOnUse">
<stop offset="0.12" stop-color="#A2CC39"/>
<stop offset="0.28" stop-color="#86C239"/>
<stop offset="0.87" stop-color="#219F38"/>
</linearGradient>
<linearGradient id="paint3_linear_102_7347" x1="13.0064" y1="1.07133" x2="21.6158" y2="3.69289" gradientUnits="userSpaceOnUse">
<stop offset="0.06" stop-color="#0290EA"/>
<stop offset="0.79" stop-color="#0C89CA"/>
</linearGradient>
<linearGradient id="paint4_linear_102_7347" x1="4.3252" y1="22.7524" x2="13.7051" y2="26.2115" gradientUnits="userSpaceOnUse">
<stop offset="0.13" stop-color="#F1E813"/>
<stop offset="0.3" stop-color="#EAE616"/>
<stop offset="0.53" stop-color="#D8DF1F"/>
<stop offset="0.8" stop-color="#BAD52D"/>
<stop offset="0.98" stop-color="#A2CC39"/>
</linearGradient>
<linearGradient id="paint5_linear_102_7347" x1="1.17621" y1="14.2368" x2="5.01741" y2="4.37718" gradientUnits="userSpaceOnUse">
<stop offset="0.07" stop-color="#A2CC39"/>
<stop offset="0.26" stop-color="#81C45E"/>
<stop offset="0.92" stop-color="#0FA7DF"/>
</linearGradient>
</defs>
</svg>
