<svg width="50" height="50" viewBox="0 0 50 50" fill="none" xmlns="http://www.w3.org/2000/svg">
<circle cx="25" cy="25" r="25" fill="white"/>
<path d="M27.9852 5.42615V15.7968H23.965C18.8855 15.7968 14.7939 19.8882 14.7939 24.9675C14.7939 30.0452 18.8855 34.1366 23.9634 34.1366H27.9852V44.5073C37.1547 42.7435 43.9998 34.7021 43.9998 24.9659C43.9998 15.302 37.1579 7.26062 27.9852 5.42615Z" fill="#003791"/>
<path d="M23.9651 37.3794C17.1217 37.3794 11.5464 31.8069 11.5464 24.9655C11.5464 18.124 17.12 12.5499 23.9619 12.5499H24.7394V5H23.9635C12.9605 5 4 13.9603 4 24.9638C4 36.0397 12.9605 45 23.9651 45H24.741V37.3827H23.9651V37.3794Z" fill="#FF4B5F"/>
</svg>
