<svg viewBox="0 0 18 19" fill="none" xmlns="http://www.w3.org/2000/svg">
<g clip-path="url(#clip0_3501_82734)">
<path d="M3.98918 11.378L3.36263 13.717L1.07258 13.7654C0.388195 12.496 0 11.0437 0 9.50034C0 8.00793 0.362953 6.60055 1.00631 5.36133H1.0068L3.04559 5.73511L3.9387 7.76166C3.75177 8.30661 3.64989 8.89161 3.64989 9.50034C3.64996 10.161 3.76963 10.794 3.98918 11.378Z" fill="#FBBB00"/>
<path d="M17.8426 7.81836C17.946 8.36279 17.9999 8.92504 17.9999 9.49967C17.9999 10.144 17.9321 10.7725 17.8031 11.3788C17.365 13.4419 16.2202 15.2434 14.6343 16.5182L14.6338 16.5177L12.0659 16.3867L11.7024 14.1179C12.7547 13.5007 13.5771 12.535 14.0103 11.3788H9.19775V7.81836H14.0805H17.8426Z" fill="#518EF8"/>
<path d="M14.6341 16.5173L14.6346 16.5178C13.0922 17.7575 11.133 18.4993 9.00017 18.4993C5.57275 18.4993 2.59287 16.5836 1.07275 13.7644L3.98935 11.377C4.74939 13.4054 6.70616 14.8494 9.00017 14.8494C9.9862 14.8494 10.91 14.5828 11.7026 14.1175L14.6341 16.5173Z" fill="#28B446"/>
<path d="M14.7447 2.57197L11.8291 4.95894C11.0087 4.44615 10.039 4.14992 9.00004 4.14992C6.65409 4.14992 4.66073 5.66013 3.93877 7.76131L1.00684 5.36098H1.00635C2.50421 2.47307 5.52168 0.5 9.00004 0.5C11.1838 0.5 13.186 1.27787 14.7447 2.57197Z" fill="#F14336"/>
</g>
<defs>
<clipPath id="clip0_3501_82734">
<rect width="18" height="18" fill="white" transform="translate(0 0.5)"/>
</clipPath>
</defs>
</svg>
