<?xml version="1.0" standalone="no"?>
<!DOCTYPE svg PUBLIC "-//W3C//DTD SVG 1.1//EN" "http://www.w3.org/Graphics/SVG/1.1/DTD/svg11.dtd" >
<svg xmlns="http://www.w3.org/2000/svg">
<metadata>Generated by IcoMoon</metadata>
<defs>
<font id="icomoon" horiz-adv-x="1024">
<font-face units-per-em="1024" ascent="960" descent="-64" />
<missing-glyph horiz-adv-x="1024" />
<glyph unicode="&#x20;" horiz-adv-x="512" d="" />
<glyph unicode="&#xe900;" glyph-name="arrow-down" d="M151.453 600.76c12.497 12.497 32.758 12.497 45.255 0l278.185-278.188c20.356-20.356 53.858-20.356 74.214 0l278.187 278.188c12.497 12.497 32.755 12.497 45.252 0s12.497-32.758 0-45.255l-278.187-278.185c-45.35-45.35-119.369-45.35-164.719 0l-278.188 278.185c-12.497 12.497-12.497 32.758 0 45.255z" />
<glyph unicode="&#xe901;" glyph-name="arrow-left" d="M640 817.917c-0.023 0-0.051 0-0.078 0-8.817 0-16.801-3.566-22.589-9.334l-278.166-278.249c-45.196-45.195-45.196-119.471 0-164.667l278.167-278.25c5.795-5.814 13.811-9.412 22.667-9.412s16.872 3.598 22.666 9.411l0.001 0.001c5.789 5.791 9.37 13.79 9.37 22.625s-3.581 16.834-9.37 22.625l-278.25 278.25c-20.511 20.511-20.511 53.656 0 74.167l278.25 278.25c5.789 5.791 9.37 13.79 9.37 22.625s-3.581 16.834-9.37 22.625v0c-5.787 5.767-13.771 9.333-22.588 9.333-0.028 0-0.055 0-0.083 0h0.004z" />
<glyph unicode="&#xe902;" glyph-name="arrow-left-1" d="M430.946 729.615c12.497-12.497 12.497-32.758 0-45.255l-236.358-236.36 236.358-236.361c12.497-12.497 12.497-32.755 0-45.252-12.495-12.497-32.757-12.497-45.254 0l-258.987 258.987c-6.001 5.999-9.373 14.14-9.373 22.626s3.372 16.627 9.373 22.626l258.987 258.988c12.497 12.497 32.758 12.497 45.254 0zM124.586 448c0 17.673 14.327 32 32 32h718.081c17.673 0 32-14.327 32-32s-14.327-32-32-32h-718.081c-17.673 0-32 14.327-32 32z" />
<glyph unicode="&#xe903;" glyph-name="arrow-right" d="M380.167 817.917c-0.023 0-0.051 0-0.078 0-8.817 0-16.801-3.566-22.589-9.334l0.001 0.001c-5.789-5.791-9.37-13.79-9.37-22.625s3.581-16.834 9.37-22.625l278.25-278.25c20.511-20.511 20.511-53.656 0-74.167l-278.25-278.25c-5.789-5.791-9.37-13.79-9.37-22.625s3.581-16.834 9.37-22.625v0c5.791-5.789 13.79-9.37 22.625-9.37s16.834 3.581 22.625 9.37l278.25 278.25c45.195 45.196 45.195 119.471 0 164.667l-278.25 278.25c-5.786 5.766-13.768 9.332-22.583 9.333v0z" />
<glyph unicode="&#xe904;" glyph-name="arrow-right-1" d="M593.054 729.615c12.497 12.497 32.755 12.497 45.252 0l258.987-258.988c6.003-5.999 9.374-14.14 9.374-22.626s-3.371-16.627-9.374-22.626l-258.987-258.987c-12.497-12.497-32.755-12.497-45.252 0s-12.497 32.755 0 45.252l236.356 236.361-236.356 236.36c-12.497 12.497-12.497 32.758 0 45.255zM117.333 448c0 17.673 14.327 32 32 32h718.080c17.673 0 32-14.327 32-32s-14.327-32-32-32h-718.080c-17.673 0-32 14.327-32 32z" />
<glyph unicode="&#xe905;" glyph-name="arrow-up" d="M429.641 618.68c45.35 45.35 119.369 45.35 164.719 0l278.187-278.188c12.497-12.497 12.497-32.759 0-45.252-12.497-12.497-32.755-12.497-45.252 0l-278.187 278.185c-20.356 20.356-53.858 20.356-74.214 0l-278.185-278.185c-12.497-12.497-32.758-12.497-45.255 0-12.497 12.493-12.497 32.755 0 45.252l278.188 278.188z" />
<glyph unicode="&#xe906;" glyph-name="bag" d="M672 682.24c0 93.583-80.405 168.54-175.684 159.296l-0.115-0.011c-77.716-7.254-144.201-86.003-144.201-167.392v-41.387c0-17.673-14.327-32-32-32s-32 14.327-32 32v41.387c0 110.592 87.939 220.411 202.193 231.11 133.389 12.907 245.807-92.178 245.807-223.003v-58.88c0-17.673-14.327-32-32-32s-32 14.327-32 32v58.88zM143.938 583.798c37.777 44.913 102.546 66.868 197.396 66.868h341.333c94.848 0 159.62-21.955 197.397-66.868 37.47-44.551 40.981-103.103 34.94-157.665l-0.047-0.448-31.97-255.731c-4.719-43.785-15.765-91.742-54.844-127.445-38.874-35.516-99.102-53.175-188.143-53.175h-256c-89.039 0-149.268 17.66-188.143 53.175-39.081 35.703-50.127 83.661-54.844 127.45l-32.022 256.175c-6.038 54.562-2.526 113.114 34.947 157.665zM172.582 433.395l32.041-256.333c4.26-39.761 13.086-67.831 34.4-87.305 21.605-19.738 62.496-36.425 144.977-36.425h256c82.479 0 123.371 16.687 144.977 36.425 21.316 19.473 30.144 47.543 34.406 87.305l0.060 0.559 31.974 255.778c5.44 49.429-0.239 85.308-20.335 109.202-19.819 23.567-61.077 44.065-148.416 44.065h-341.333c-87.337 0-128.595-20.498-148.418-44.065-20.097-23.895-25.775-59.777-20.334-109.207zM618.475 448c0 23.565 19.102 42.667 42.667 42.667h0.384c23.565 0 42.667-19.102 42.667-42.667s-19.102-42.667-42.667-42.667h-0.384c-23.565 0-42.667 19.102-42.667 42.667zM319.766 448c0 23.565 19.102 42.667 42.667 42.667h0.383c23.564 0 42.667-19.102 42.667-42.667s-19.103-42.667-42.667-42.667h-0.383c-23.564 0-42.667 19.102-42.667 42.667z" />
<glyph unicode="&#xe907;" glyph-name="bag-bold" d="M661.333 682.24c0 87.373-75.063 157.306-163.985 148.679l-0.158-0.015c-71.619-6.685-134.524-80.253-134.524-156.771v-41.387c0-23.564-19.103-42.667-42.667-42.667s-42.667 19.102-42.667 42.667v41.387c0 115.456 91.51 230.45 211.853 241.728 139.733 13.512 257.481-96.593 257.481-233.621v-58.88c0-23.564-19.102-42.667-42.667-42.667s-42.667 19.102-42.667 42.667v58.88zM135.775 590.665c40.77 48.471 109.457 70.669 205.559 70.669h341.333c96.102 0 164.787-22.198 205.559-70.669 40.363-47.988 43.511-110.306 37.38-165.705l-0.068-0.597-31.957-255.637c-4.796-44.459-16.222-95.706-58.244-134.093-41.754-38.144-105.203-55.966-195.337-55.966h-256c-90.132 0-153.584 17.822-195.338 55.966-42.020 38.387-53.447 89.634-58.245 134.093l-32.025 256.235c-6.13 55.398-2.981 117.716 37.383 165.705zM183.176 434.637l31.962-255.693 0.087-0.747c4.187-39.078 12.655-63.808 30.994-80.563 18.726-17.109 56.394-33.634 137.782-33.634h256c81.387 0 119.057 16.525 137.783 33.634 18.338 16.755 26.807 41.485 30.993 80.563l0.085 0.747 31.962 255.693c5.333 48.546-0.7 80.649-17.903 101.099-16.828 20.009-54.17 40.265-140.254 40.265h-341.333c-86.085 0-123.425-20.256-140.255-40.265-17.201-20.45-23.237-52.553-17.903-101.099zM607.808 448c0 29.457 23.876 53.333 53.333 53.333h0.384c29.453 0 53.333-23.876 53.333-53.333s-23.881-53.333-53.333-53.333h-0.384c-29.457 0-53.333 23.876-53.333 53.333zM309.099 448c0 29.457 23.878 53.333 53.333 53.333h0.383c29.455 0 53.333-23.876 53.333-53.333s-23.878-53.333-53.333-53.333h-0.383c-29.455 0-53.333 23.876-53.333 53.333z" />
<glyph unicode="&#xe908;" glyph-name="bag-reverse" d="M851.627 577.707c-28.587 31.573-71.68 49.92-131.413 56.32v32.427c0 58.453-24.747 114.773-68.267 154.027-43.947 40.107-101.12 58.88-160.427 53.333-101.974-9.813-187.734-108.373-187.734-215.040v-24.747c-59.733-6.4-102.827-24.747-131.413-56.32-41.387-46.080-40.107-107.52-35.413-150.187l29.867-237.653c8.96-83.2 42.667-168.533 226.133-168.533h238.080c183.467 0 217.173 85.333 226.133 168.107l29.867 238.507c4.693 42.24 5.547 103.68-35.413 149.76zM497.493 814.507c42.667 3.84 83.2-9.387 114.773-37.973 31.147-28.16 48.64-68.267 48.64-110.080v-29.867h-297.814v22.187c0 75.947 62.72 148.907 134.4 155.733zM359.253 398.933h-0.427c-23.467 0-42.667 19.2-42.667 42.667s19.2 42.667 42.667 42.667c23.893 0 43.093-19.2 43.093-42.667s-19.2-42.667-42.667-42.667zM657.92 398.933h-0.427c-23.467 0-42.667 19.2-42.667 42.667s19.2 42.667 42.667 42.667c23.893 0 43.093-19.2 43.093-42.667s-19.2-42.667-42.667-42.667z" />
<glyph unicode="&#xe909;" glyph-name="balance" d="M512 906.667c64.768 0 117.333-52.565 117.333-117.333s-52.565-117.333-117.333-117.333c-64.768 0-117.333 52.565-117.333 117.333s52.565 117.333 117.333 117.333zM512 842.667c-29.44 0-53.333-23.893-53.333-53.333s23.893-53.333 53.333-53.333c29.44 0 53.333 23.893 53.333 53.333s-23.893 53.333-53.333 53.333zM640 458.667h298.667c17.664 0 32-14.336 32-32 0-100.096-81.237-181.333-181.333-181.333s-181.333 81.237-181.333 181.333c0 17.664 14.336 32 32 32zM676.437 394.667c13.909-49.237 59.221-85.333 112.896-85.333s98.987 36.096 112.896 85.333h-225.792zM85.333 544h298.667c17.664 0 32-14.336 32-32 0-100.096-81.237-181.333-181.333-181.333s-181.333 81.237-181.333 181.333c0 17.664 14.336 32 32 32zM121.771 480c13.909-49.237 59.221-85.333 112.896-85.333s98.987 36.096 112.896 85.333h-225.792zM287.531-10.667c-17.707 0-34.261 8.789-44.203 23.424-9.899 14.677-11.904 33.28-5.333 49.707l20.224 50.603c11.349 28.331 38.784 46.933 69.333 46.933h368.896c30.549 0 57.984-18.603 69.333-46.933l20.224-50.603c6.571-16.427 4.565-35.029-5.333-49.707-9.941-14.635-26.496-23.424-44.203-23.424h-448.939zM303.275 53.333h417.451l-14.379 35.968c-1.621 4.053-5.547 6.699-9.899 6.699h-368.896c-4.352 0-8.277-2.645-9.899-6.699l-14.379-35.968zM938.965 761.6c17.493-2.432 29.696-18.645 27.221-36.139-2.432-17.493-18.645-29.696-36.139-27.221l-338.005 47.531c-17.493 2.432-29.696 18.645-27.221 36.139 2.432 17.493 18.645 29.696 36.139 27.221l338.005-47.531zM431.957 832.896c17.493-2.432 29.696-18.645 27.221-36.139-2.432-17.493-18.645-29.696-36.138-27.221l-338.005 47.531c-17.493 2.432-29.696 18.645-27.221 36.139 2.432 17.493 18.645 29.696 36.139 27.221l338.005-47.531zM480 704c0 17.664 14.336 32 32 32s32-14.336 32-32v-576c0-17.664-14.336-32-32-32s-32 14.336-32 32v576zM789.333 614.698l-121.856-204.416c-9.045-15.189-28.672-20.139-43.861-11.093s-20.139 28.672-11.093 43.861l130.987 219.776c9.643 16.171 27.051 26.027 45.824 26.027s36.181-9.856 45.824-26.027l130.987-219.776c9.045-15.189 4.096-34.816-11.093-43.861s-34.816-4.096-43.861 11.093l-121.856 204.416zM234.667 700.032l-121.856-204.416c-9.045-15.189-28.672-20.139-43.861-11.093s-20.139 28.672-11.093 43.861l130.987 219.776c9.643 16.171 27.051 26.027 45.824 26.027s36.181-9.856 45.824-26.027l130.987-219.776c9.045-15.189 4.096-34.816-11.093-43.861s-34.816-4.096-43.861 11.093l-121.856 204.416z" />
<glyph unicode="&#xe90a;" glyph-name="blender" d="M430.541 116.002h120v-60.002h-120v60.002zM430.541 475.998h120v-59.998h-120v59.998zM430.541 596h120v-60h-120v60zM430.541 716h120v-60h-120v60zM850.539 776h-120v60h-59.998v124h-360.002v-124h-138.539l78.539-157.078v-292.921c0-39.113 25.086-72.452 60-84.847v-83.226c-38.773-43.14-60-98.325-60-156.779v-125.15h480v125.15c0 58.453-21.218 113.638-59.998 156.779v83.226c34.918 12.395 59.998 45.734 59.998 84.847v29.999h120v360zM370.539 900h240v-64h-240v64zM370.539 296h240v-60.002h-240v60.002zM670.541-4.002h-360.002v65.152c0 42.688 15.234 83.008 43.063 114.85h273.876c27.827-31.842 43.063-72.162 43.063-114.85v-65.152zM670.541 386.001c0-16.542-13.461-29.999-30.003-29.999h-299.999c-16.539 0-30 13.457-30 29.999v307.077l-41.461 82.922h401.463v-389.999zM790.541 475.998h-60.002v240.002h60.002v-240.002z" />
<glyph unicode="&#xe90b;" glyph-name="box-search" d="M107.558 658.588c8.852 15.296 28.428 20.52 43.725 11.668l360.709-208.748 358.157 207.463c15.292 8.858 34.871 3.642 43.729-11.651s3.639-34.871-11.652-43.729l-374.187-216.748c-9.916-5.743-22.148-5.747-32.068-0.004l-376.745 218.025c-15.296 8.852-20.52 28.428-11.668 43.725zM512 456.96c17.673 0 32-14.327 32-32v-386.987c0-17.673-14.327-32-32-32s-32 14.327-32 32v386.987c0 17.673 14.327 32 32 32zM615.906 882.134c0.026-0.015 0.051-0.029 0.081-0.044l227.674-126.203c-0.004 0.002 0.004-0.003 0 0 31.996-17.721 59.226-47.508 78.357-79.954 19.132-32.448 32.009-70.662 32.009-107.186v-156.16c0-17.673-14.327-32-32-32s-32 14.327-32 32v156.16c0 22.355-8.243 49.421-23.138 74.679-14.891 25.256-34.603 45.605-54.229 56.471l-228.002 126.385c-18.364 10.307-44.617 16.384-72.657 16.384s-54.293-6.076-72.657-16.384l-0.149-0.084-227.84-126.294c-19.625-10.866-39.35-31.223-54.242-56.478-14.894-25.259-23.138-52.325-23.138-74.679v-241.493c0-22.357 8.244-49.421 23.138-74.679 14.892-25.259 34.604-45.606 54.229-56.474l228.002-126.383c18.364-10.308 44.617-16.384 72.657-16.384s54.293 6.076 72.657 16.38c15.407 8.653 34.914 3.174 43.567-12.237s3.17-34.918-12.237-43.567c-30.281-17.003-68.028-24.576-103.987-24.576-35.93 0-73.643 7.561-103.908 24.533-0.026 0.013-0.052 0.026-0.077 0.043l-227.676 126.204c-0.004 0 0.004-0.004 0 0-31.997 17.719-59.225 47.505-78.357 79.953s-32.008 70.66-32.008 107.187v241.493c0 36.525 12.876 74.739 32.008 107.186s46.348 62.226 78.344 79.947l227.767 126.254c30.269 16.968 67.977 24.532 103.907 24.532s73.638-7.564 103.906-24.532zM819.2 288c-57.732 0-104.533-46.801-104.533-104.533s46.801-104.533 104.533-104.533c57.732 0 104.533 46.801 104.533 104.533s-46.801 104.533-104.533 104.533zM650.667 183.467c0 93.077 75.456 168.533 168.533 168.533s168.533-75.456 168.533-168.533c0-93.077-75.456-168.533-168.533-168.533s-168.533 75.456-168.533 168.533zM916.041 86.626c12.497 12.497 32.755 12.497 45.252 0l42.667-42.667c12.497-12.497 12.497-32.755 0-45.252s-32.755-12.497-45.252 0l-42.667 42.667c-12.497 12.497-12.497 32.755 0 45.252z" />
<glyph unicode="&#xe90c;" glyph-name="calendar" d="M341.333 906.667c17.673 0 32-14.327 32-32v-128c0-17.673-14.327-32-32-32s-32 14.327-32 32v128c0 17.673 14.327 32 32 32zM682.667 906.667c17.673 0 32-14.327 32-32v-128c0-17.673-14.327-32-32-32s-32 14.327-32 32v128c0 17.673 14.327 32 32 32zM117.333 572.159c0 17.673 14.327 32 32 32h725.333c17.673 0 32-14.327 32-32s-14.327-32-32-32h-725.333c-17.673 0-32 14.327-32 32zM202.116 730.225c-27.338-29.44-42.116-73.798-42.116-132.892v-362.667c0-59.093 14.778-103.45 42.116-132.894 26.939-29.009 70.65-48.439 139.217-48.439h341.333c68.565 0 112.277 19.43 139.217 48.439 27.337 29.444 42.116 73.801 42.116 132.894v362.667c0 59.095-14.78 103.452-42.116 132.892-26.94 29.012-70.652 48.441-139.217 48.441h-341.333c-68.567 0-112.278-19.43-139.217-48.441zM155.217 773.775c42.394 45.655 105.35 68.892 186.116 68.892h341.333c80.768 0 143.723-23.237 186.116-68.892 41.997-45.226 59.217-107.536 59.217-176.441v-362.667c0-68.907-17.22-131.217-59.217-176.439-42.394-45.658-105.348-68.894-186.116-68.894h-341.333c-80.766 0-143.722 23.236-186.116 68.894-41.996 45.222-59.217 107.533-59.217 176.439v362.667c0 68.905 17.222 131.215 59.217 176.441zM626.974 375.467c0 23.565 19.102 42.667 42.667 42.667h0.384c23.565 0 42.667-19.102 42.667-42.667s-19.102-42.667-42.667-42.667h-0.384c-23.565 0-42.667 19.102-42.667 42.667zM626.974 247.467c0 23.565 19.102 42.667 42.667 42.667h0.384c23.565 0 42.667-19.102 42.667-42.667s-19.102-42.667-42.667-42.667h-0.384c-23.565 0-42.667 19.102-42.667 42.667zM469.141 375.467c0 23.565 19.102 42.667 42.667 42.667h0.384c23.565 0 42.667-19.102 42.667-42.667s-19.102-42.667-42.667-42.667h-0.384c-23.565 0-42.667 19.102-42.667 42.667zM469.141 247.467c0 23.565 19.102 42.667 42.667 42.667h0.384c23.565 0 42.667-19.102 42.667-42.667s-19.102-42.667-42.667-42.667h-0.384c-23.565 0-42.667 19.102-42.667 42.667zM311.224 375.467c0 23.565 19.103 42.667 42.667 42.667h0.383c23.564 0 42.667-19.102 42.667-42.667s-19.102-42.667-42.667-42.667h-0.383c-23.564 0-42.667 19.102-42.667 42.667zM311.224 247.467c0 23.565 19.103 42.667 42.667 42.667h0.383c23.564 0 42.667-19.102 42.667-42.667s-19.102-42.667-42.667-42.667h-0.383c-23.564 0-42.667 19.102-42.667 42.667z" />
<glyph unicode="&#xe90d;" glyph-name="call-calling" d="M238.5 906.667c-40.378 0-79.013-17.892-110.833-49.083-25.572-24.183-44.688-52.047-56.667-82.417-0.010-0.025 0.010-0.058 0-0.083-11.813-29.563-17.667-61.333-17.667-94.083 0-49.296 11.419-100.153 33.25-152v-0.085c21.579-50.8 50.944-101.425 87.083-151.667l0.166-0.171c36.395-49.989 77.131-97.693 122.167-143.167l0.083-0.085 0.083-0.166c45.473-45.036 93.293-85.789 143.667-122.583 50.393-36.689 101.561-66.13 153.083-88.083 52.308-22.288 103.044-33.667 151.583-33.667 33.8 0 65.899 6.379 95.417 18.667h0.085c30.631 12.586 57.844 32.438 81.417 58.417 14.539 16.044 25.767 33.369 34.25 51.333 9.213 19.51 13.75 40.066 13.75 60.167 0 16.518-3.807 31.768-9.167 45.167l-0.166 0.5-0.252 0.5c-7.168 16.291-19.397 30.146-34.25 40.5l-0.085 0.085-141.666 100.583c-11.941 8.12-23.603 14.781-35.75 19.75-12.602 5.155-25.485 8-38.083 8-16.344 0-32.381-5.244-46.083-13.417-13.56-7.259-25.721-16.971-37.583-28.833l-29.333-29c-0.488 0.226-1.010 0.41-1.583 0.667-11.371 6.046-28.166 17.551-49.083 35.25v-0.085c-21.607 18.345-43.082 38.595-65.667 60.75l-0.166 0.166c-0.090 0.090-0.162 0.162-0.252 0.252-21.349 21.782-41.162 43.684-59.833 65.25l-0.25 0.333c-17.529 20.765-29.498 37.694-35.414 48.423-0.177 0.418-0.345 0.982-0.5 1.333l29.667 30.833-0.5-0.417c11.662 11.662 21.439 23.717 28.833 36.667 8.505 14.119 13.417 30.188 13.417 46.5 0 13.693-3.409 26.49-8.583 38.583-4.956 12.004-11.754 23.852-20.5 36l-98.75 139.25c-10.969 15.759-25.726 27.231-41.25 34.417-15.23 7.249-31.68 10.75-48.083 10.75zM238.5 842.667c7.375 0 14.735-1.613 20.75-4.5l0.167-0.167 0.25-0.083c6.558-3.027 11.314-6.713 15.667-13l0.083-0.167 99.25-139.833c6.511-9.043 10.706-16.707 13.417-23.333l0.083-0.25 0.167-0.25c2.488-5.805 3.333-10.924 3.333-13.417 0-4.018-0.954-8.252-4.25-13.667l-0.333-0.417-0.25-0.417c-3.667-6.487-9.998-14.748-18.667-23.417l-0.167-0.25-32.25-33.5c-10.179-10.179-16.167-26.173-16.167-39.667 0-6.080 0.94-12.344 2.25-17.583l0.417-1.75 0.667-1.75c1.896-5.055 3.159-7.892 3-7.417l0.917-2.667 1.333-2.5c9.48-17.38 23.728-36.831 43.333-60l0.167-0.085 0.083-0.166c19.528-22.565 40.489-45.718 63.25-68.917l0.418-0.418c23.333-22.9 46.022-44.316 69.5-64.25h0.085c23.352-19.759 43.109-33.828 60.75-43.167l1.5-0.75 1.583-0.667c0.085-0.034 2.916-1.369 6.917-3.084l0.667-0.333 0.75-0.252c7.791-2.922 15.623-3.75 21.833-3.75 14.783 0 30.674 7.174 40.167 16.667l32.419 32.002c9.158 9.158 17.291 15.231 22.917 18.167l0.916 0.418 0.916 0.583c5.767 3.51 8.973 4.333 13.667 4.333 3.616 0 7.745-0.642 13.917-3.167 6.626-2.711 14.524-7.113 23.917-13.5l141.083-100.166c7.038-4.873 9.922-8.718 12.083-13.5 2.965-7.576 4.417-13.606 4.417-20.75 0-10.619-2.373-21.624-7.667-32.833-6.023-12.755-13.543-24.404-23.75-35.667-18.197-20.054-37.064-33.499-58.417-42.25l-0.085-0.085h-0.085c-21.663-9.023-45.013-13.747-70.918-13.747-38.5 0-80.675 9.058-126.5 28.583-46.611 19.86-93.613 46.78-140.5 80.917-47.759 34.885-92.977 73.476-136.25 116.333-42.743 43.179-81.227 88.322-115.583 135.5l-0.083 0.085c-33.777 46.969-60.636 93.518-80 139.081-19.129 45.432-28.25 87.716-28.25 127.167 0 25.249 4.437 48.801 13.083 70.417v0.083l0.083 0.083c8.47 21.527 21.758 41.279 41.25 59.667l0.5 0.5c22.733 22.378 43.614 30.917 66.25 30.917zM640 757.333c-17.673 0-32-14.327-32-32v0c0-17.673 14.327-32 32-32v0c22.126 0 52.556-17.064 75.917-42.25 0.022-0.022 0.050-0.049 0.078-0.076l0.007-0.007c25.833-27.681 41.331-66.111 41.331-75 0-17.673 14.327-32 32-32v0c17.673 0 32 14.327 32 32v0c0 42.291-24.627 82.278-58.5 118.583-31.253 33.694-73.279 62.75-122.833 62.75zM640 906.667c-17.673 0-32-14.327-32-32v0c0-17.673 14.327-32 32-32v0c147.866 0 266.667-118.801 266.667-266.667 0-17.673 14.327-32 32-32v0c17.673 0 32 14.327 32 32v0c0 182.374-148.293 330.667-330.667 330.667z" />
<glyph unicode="&#xe90e;" glyph-name="checkbox" d="M1000.205 792.633c-31.684 31.725-83.132 31.705-114.854 0l-516.93-516.951-229.753 229.751c-31.725 31.726-83.151 31.726-114.876 0-31.725-31.723-31.725-83.149 0-114.876l287.178-287.177c15.852-15.855 36.639-23.799 57.428-23.799s41.595 7.927 57.448 23.799l574.359 574.378c31.727 31.703 31.727 83.151 0 114.874z" />
<glyph unicode="&#xe90f;" glyph-name="close" d="M624.781 448l382.861 382.876c10.53 10.54 16.341 24.601 16.358 39.595 0 15.002-5.811 29.080-16.358 39.603l-33.553 33.542c-10.547 10.565-24.606 16.351-39.616 16.351-14.989 0-29.047-5.786-39.595-16.351l-382.861-382.851-382.877 382.851c-10.531 10.565-24.601 16.351-39.603 16.351-14.985 0-29.055-5.786-39.587-16.351l-33.567-33.542c-21.845-21.845-21.845-57.377 0-79.197l382.868-382.876-382.868-382.861c-10.54-10.556-16.342-24.619-16.342-39.612s5.803-29.052 16.342-39.603l33.559-33.54c10.531-10.556 24.609-16.35 39.586-16.35 15.002 0 29.072 5.794 39.603 16.35l382.876 382.861 382.861-382.861c10.547-10.556 24.606-16.35 39.595-16.35h0.017c14.993 0 29.052 5.794 39.599 16.35l33.553 33.54c10.53 10.543 16.341 24.61 16.341 39.603s-5.811 29.056-16.341 39.603l-382.852 382.869z" />
<glyph unicode="&#xe910;" glyph-name="close-circle" d="M53.333 448c0 252.34 206.327 458.667 458.667 458.667s458.667-206.327 458.667-458.667c0-252.339-206.327-458.667-458.667-458.667s-458.667 206.327-458.667 458.667zM512 842.667c-216.994 0-394.667-177.673-394.667-394.667s177.673-394.667 394.667-394.667c216.994 0 394.667 177.673 394.667 394.667s-177.673 394.667-394.667 394.667zM655.373 591.374c12.497-12.497 12.497-32.758 0-45.255l-241.492-241.492c-12.497-12.497-32.758-12.497-45.255 0-12.497 12.493-12.497 32.755 0 45.252l241.494 241.494c12.497 12.497 32.759 12.497 45.252 0zM368.626 591.374c12.497 12.497 32.758 12.497 45.255 0l241.492-241.494c12.497-12.497 12.497-32.759 0-45.252-12.493-12.497-32.755-12.497-45.252 0l-241.494 241.492c-12.497 12.497-12.497 32.758 0 45.255z" />
<glyph unicode="&#xe911;" glyph-name="cooking-panel" d="M945.229 782.768h-866.46c-10.876 0-19.692-8.816-19.692-19.692v-630.152c0-10.876 8.816-19.695 19.692-19.695h866.46c10.876 0 19.695 8.819 19.695 19.695v630.152c0 10.876-8.819 19.692-19.695 19.692zM925.538 152.614h-827.077v590.769h827.077v-590.769zM256 467.691c65.15 0 118.154 53.005 118.154 118.156s-53.004 118.154-118.154 118.154c-65.15 0-118.154-53.004-118.154-118.154s53.004-118.156 118.154-118.156zM256 664.615c43.433 0 78.769-35.336 78.769-78.769s-35.336-78.77-78.769-78.77c-43.433 0-78.769 35.337-78.769 78.77s35.336 78.769 78.769 78.769zM256 192c65.15 0 118.154 53.005 118.154 118.153 0 65.152-53.004 118.157-118.154 118.157s-118.154-53.005-118.154-118.157c0-65.148 53.004-118.153 118.154-118.153zM256 388.924c43.433 0 78.769-35.337 78.769-78.771 0-43.43-35.336-78.767-78.769-78.767s-78.769 35.337-78.769 78.767c0 43.435 35.336 78.771 78.769 78.771zM571.076 467.691c65.152 0 118.153 53.005 118.153 118.156s-53.001 118.154-118.153 118.154c-65.148 0-118.153-53.004-118.153-118.154s53.005-118.156 118.153-118.156zM571.076 664.615c43.435 0 78.771-35.336 78.771-78.769s-35.337-78.77-78.771-78.77c-43.435 0-78.767 35.337-78.767 78.77s35.332 78.769 78.767 78.769zM571.076 526.767c32.576 0 59.076 26.503 59.076 59.078s-26.5 59.077-59.076 59.077c-32.576 0-59.076-26.502-59.076-59.077s26.5-59.078 59.076-59.078zM571.076 605.537c10.859 0 19.695-8.834 19.695-19.692s-8.836-19.692-19.695-19.692c-10.859 0-19.691 8.834-19.691 19.692s8.832 19.692 19.691 19.692zM571.076 251.076c32.576 0 59.076 26.5 59.076 59.076s-26.5 59.076-59.076 59.076c-32.576 0-59.076-26.5-59.076-59.076s26.5-59.076 59.076-59.076zM571.076 329.843c10.859 0 19.695-8.832 19.695-19.691s-8.836-19.691-19.695-19.691c-10.859 0-19.691 8.832-19.691 19.691s8.832 19.691 19.691 19.691zM256 251.076c32.575 0 59.077 26.5 59.077 59.076s-26.502 59.076-59.077 59.076c-32.575 0-59.077-26.5-59.077-59.076s26.502-59.076 59.077-59.076zM256 329.843c10.858 0 19.692-8.832 19.692-19.691s-8.834-19.691-19.692-19.691c-10.858 0-19.692 8.832-19.692 19.691s8.834 19.691 19.692 19.691zM256 526.767c32.575 0 59.077 26.503 59.077 59.078s-26.502 59.077-59.077 59.077c-32.575 0-59.077-26.502-59.077-59.077s26.502-59.078 59.077-59.078zM256 605.537c10.858 0 19.692-8.834 19.692-19.692s-8.834-19.692-19.692-19.692c-10.858 0-19.692 8.834-19.692 19.692s8.834 19.692 19.692 19.692zM571.076 192c65.152 0 118.153 53.005 118.153 118.153 0 65.152-53.001 118.157-118.153 118.157-65.148 0-118.153-53.005-118.153-118.157 0-65.148 53.005-118.153 118.153-118.153zM571.076 388.924c43.435 0 78.771-35.337 78.771-78.771 0-43.43-35.337-78.767-78.771-78.767s-78.767 35.337-78.767 78.767c0 43.435 35.332 78.771 78.767 78.771zM827.076 546.461c32.576 0 59.076 26.502 59.076 59.077v39.384c0 32.575-26.5 59.077-59.076 59.077s-59.076-26.502-59.076-59.077v-39.384c0-32.575 26.5-59.077 59.076-59.077zM807.386 644.923c0 10.859 8.832 19.692 19.691 19.692s19.695-8.834 19.695-19.692v-39.384c0-10.858-8.836-19.692-19.695-19.692s-19.691 8.834-19.691 19.692v39.384zM827.076 369.229c32.576 0 59.076 26.505 59.076 59.076v39.386c0 32.576-26.5 59.076-59.076 59.076s-59.076-26.5-59.076-59.076v-39.386c0-32.572 26.5-59.076 59.076-59.076zM807.386 467.691c0 10.859 8.832 19.695 19.691 19.695s19.695-8.836 19.695-19.695v-39.386c0-10.859-8.836-19.691-19.695-19.691s-19.691 8.832-19.691 19.691v39.386zM827.076 192c32.576 0 59.076 26.5 59.076 59.076v39.381c0 32.576-26.5 59.081-59.076 59.081s-59.076-26.505-59.076-59.081v-39.381c0-32.576 26.5-59.076 59.076-59.076zM807.386 290.458c0 10.859 8.832 19.695 19.691 19.695s19.695-8.836 19.695-19.695v-39.381c0-10.859-8.836-19.695-19.695-19.695s-19.691 8.836-19.691 19.695v39.381z" />
<glyph unicode="&#xe912;" glyph-name="delivery" d="M1015.556 448.444l-172.1 177.819c-5.649 5.84-13.427 9.136-21.555 9.136h-109.973v129.432c0 16.568-13.431 30-29.999 30h-557.21c-16.568 0-30-13.432-30-30v-90.028h-22.708c-16.568 0-30-13.432-30-30s13.432-30 30-30h22.708v-60.028h-64.718c-16.568 0-30-13.432-30-30s13.432-29.999 30-29.999h64.718v-275.516c0-16.567 13.432-29.999 30-29.999h63.858c5.816-19.362 16.362-37.099 31.058-51.797 23.404-23.403 54.522-36.292 87.62-36.292s64.214 12.89 87.62 36.292c14.872 14.874 25.148 32.623 30.864 51.469h286.488c5.717-18.846 15.996-36.595 30.865-51.469 23.407-23.403 54.524-36.292 87.62-36.292s64.213 12.89 87.62 36.292c14.874 14.874 25.148 32.623 30.865 51.469h44.804c16.567 0 29.999 13.431 29.999 29.999v208.649c0 7.791-3.029 15.27-8.444 20.864zM923.217 457.579h-212.13v117.82h98.099l114.031-117.82zM154.718 494.775h156.146c16.568 0 30 13.431 30 30.003 0 16.566-13.432 29.998-30 29.998h-156.146v60.028h178.152c16.568 0 30 13.432 30 30s-13.432 30-30 30h-178.152v60.028h497.207l-0.841-485.898h-222.276c-4.55 23.386-15.86 45.7-33.935 63.778-23.404 23.407-54.522 36.292-87.62 36.292s-64.214-12.885-87.62-36.292c-17.6-17.6-29.25-39.561-33.948-63.45h-30.968v245.513zM352.448 179.891c-12.072-12.070-28.124-18.722-45.194-18.722s-33.122 6.652-45.194 18.722c-12.072 12.070-18.72 28.122-18.72 45.197 0 17.071 6.648 33.126 18.72 45.197s28.124 18.718 45.194 18.718c17.070 0 33.122-6.647 45.194-18.718 24.92-24.922 24.92-65.472 0-90.394zM875.904 179.891c-12.075-12.070-28.126-18.722-45.197-18.722s-33.122 6.652-45.193 18.722c-24.922 24.922-24.922 65.468 0 90.394 12.070 12.070 28.122 18.718 45.193 18.718s33.122-6.647 45.197-18.718c12.070-12.075 18.718-28.126 18.718-45.201 0-17.071-6.647-33.122-18.718-45.193zM952.265 248.934c-4.553 23.381-15.859 45.7-33.937 63.778-23.403 23.403-54.519 36.292-87.62 36.292-33.097 0-64.213-12.89-87.62-36.292-15.936-15.94-26.581-35.179-32.004-55.535v140.403h252.919v-148.646h-11.738z" />
<glyph unicode="&#xe913;" glyph-name="discount" d="M955.913 434.735c-4.122 8.431-4.122 18.099 0 26.526l38.191 78.13c21.265 43.502 4.416 95.351-38.357 118.045l-76.817 40.76c-8.29 4.396-13.973 12.22-15.595 21.458l-15.023 85.657c-8.367 47.692-52.48 79.74-100.416 72.958l-86.106-12.18c-9.293-1.312-18.483 1.676-25.225 8.198l-62.502 60.464c-34.803 33.668-89.323 33.67-124.122 0l-62.503-60.47c-6.744-6.524-15.934-9.506-25.226-8.198l-86.106 12.18c-47.95 6.786-92.049-25.266-100.415-72.958l-15.024-85.653c-1.622-9.24-7.304-17.062-15.59-21.46l-76.82-40.759c-42.772-22.692-59.62-74.545-38.356-118.048l38.19-78.129c4.12-8.427 4.12-18.095 0-26.526l-38.192-78.127c-21.264-43.503-4.416-95.351 38.356-118.046l76.82-40.759c8.288-4.395 13.97-12.22 15.592-21.457l15.024-85.658c7.616-43.418 44.844-73.865 87.629-73.86 4.214 0 8.49 0.299 12.788 0.905l86.106 12.181c9.286 1.318 18.482-1.677 25.226-8.201l62.501-60.463c17.404-16.836 39.727-25.25 62.059-25.25 22.327 0.004 44.668 8.418 62.063 25.25l62.502 60.463c6.746 6.524 15.936 9.502 25.225 8.201l86.106-12.181c47.957-6.784 92.049 25.267 100.416 72.96l15.027 85.653c1.621 9.237 7.305 17.058 15.59 21.457l76.817 40.759c42.773 22.694 59.622 74.547 38.357 118.050l-38.191 78.127zM393.881 713.768c59.704 0 108.276-48.573 108.276-108.277s-48.572-108.279-108.276-108.279c-59.704 0-108.277 48.576-108.277 108.279s48.573 108.277 108.277 108.277zM337.993 232.23c-5.766-5.764-13.324-8.649-20.88-8.649s-15.116 2.88-20.88 8.649c-11.532 11.533-11.532 30.229 0 41.762l389.774 389.776c11.533 11.532 30.229 11.532 41.762 0s11.533-30.23 0-41.762l-389.777-389.776zM630.118 182.229c-59.703 0-108.275 48.572-108.275 108.275s48.572 108.279 108.275 108.279c59.703 0 108.279-48.576 108.279-108.279s-48.576-108.275-108.279-108.275zM630.118 339.721c-27.136 0-49.216-22.076-49.216-49.216 0-27.136 22.076-49.216 49.216-49.216s49.216 22.080 49.216 49.216c0 27.14-22.076 49.216-49.216 49.216zM393.877 654.711c-27.138 0-49.216-22.078-49.216-49.216s22.078-49.218 49.216-49.218c27.138 0 49.216 22.078 49.216 49.218 0 27.136-22.078 49.216-49.216 49.216z" />
<glyph unicode="&#xe914;" glyph-name="discount-shape" d="M537.114 831.116c-13.956 13.956-37.218 13.957-51.174 0 0 0 0 0 0 0l-64.852-64.854c-9.385-9.385-21.58-16.434-32.879-21.119-11.282-4.678-24.828-8.306-37.963-8.306h-91.733c-19.874 0-36.267-16.393-36.267-36.266v-91.734c0-13.135-3.629-26.681-8.307-37.963-4.685-11.3-11.734-23.493-21.119-32.878 0 0 0 0 0 0l-64.853-64.853c-13.957-13.956-13.957-37.218 0-51.174l64.666-64.666c9.577-9.306 16.649-21.513 21.306-32.747 4.729-11.405 8.307-25.033 8.307-38.281v-91.729c0-19.878 16.396-36.271 36.267-36.271h91.733c13.135 0 26.68-3.631 37.963-8.307 11.299-4.685 23.493-11.733 32.879-21.12l64.852-64.853c13.956-13.956 37.218-13.956 51.174 0l64.853 64.853c9.382 9.387 21.577 16.435 32.879 21.12 11.281 4.676 24.823 8.307 37.961 8.307h91.733c19.87 0 36.267 16.393 36.267 36.271v91.729c0 13.133 3.627 26.679 8.307 37.961 4.685 11.302 11.733 23.492 21.12 32.879l64.853 64.853c13.956 13.956 13.956 37.218 0 51.174l-64.853 64.852c-9.387 9.385-16.435 21.578-21.12 32.878-4.681 11.282-8.307 24.828-8.307 37.963v91.734c0 19.874-16.393 36.266-36.267 36.266h-91.733c-13.137 0-26.679 3.628-37.961 8.306-11.302 4.685-23.497 11.734-32.879 21.119l-64.853 64.854zM440.687 876.371c38.95 38.95 102.729 38.95 141.679 0l64.853-64.854c1.711-1.708 5.943-4.686 12.139-7.253 6.208-2.575 11.221-3.426 13.449-3.426h91.733c55.219 0 100.267-45.046 100.267-100.266v-91.734c0-2.225 0.849-7.239 3.426-13.45 2.569-6.194 5.547-10.427 7.253-12.136l64.853-64.855c38.95-38.95 38.95-102.733 0-141.679l-64.853-64.858c-1.707-1.707-4.685-5.939-7.253-12.134-2.577-6.212-3.426-11.226-3.426-13.449v-91.729c0-55.219-45.043-100.271-100.267-100.271h-91.733c-2.227 0-7.241-0.853-13.449-3.426-6.195-2.569-10.428-5.547-12.139-7.253l-64.853-64.858c-38.95-38.95-102.729-38.95-141.679 0l-64.855 64.858c-1.708 1.707-5.941 4.685-12.135 7.253-6.211 2.573-11.226 3.426-13.452 3.426h-91.733c-55.222 0-100.267 45.052-100.267 100.271v91.729c0 2.534-0.902 7.68-3.426 13.769-2.554 6.161-5.423 10.048-6.807 11.375l-0.448 0.439-64.853 64.858c0 0 0 0 0 0-38.95 38.946-38.95 102.729 0 141.679 0 0 0 0 0 0l64.853 64.855c1.708 1.708 4.686 5.942 7.255 12.136 2.575 6.211 3.426 11.226 3.426 13.45v91.734c0 55.221 45.048 100.266 100.267 100.266h91.733c2.225 0 7.24 0.851 13.452 3.426 6.193 2.568 10.426 5.545 12.134 7.253 0 0 0 0 0 0l64.855 64.855zM662.626 598.627c12.497-12.497 12.497-32.758 0-45.255l-255.999-255.999c-12.497-12.497-32.758-12.497-45.255 0s-12.497 32.755 0 45.252l256.001 256.001c12.497 12.497 32.755 12.497 45.252 0zM575.765 341.333c0 23.565 19.102 42.667 42.667 42.667h0.384c23.565 0 42.667-19.102 42.667-42.667s-19.102-42.667-42.667-42.667h-0.384c-23.565 0-42.667 19.102-42.667 42.667zM362.432 554.667c0 23.564 19.102 42.667 42.667 42.667h0.383c23.565 0 42.667-19.103 42.667-42.667s-19.102-42.667-42.667-42.667h-0.383c-23.564 0-42.667 19.102-42.667 42.667z" />
<glyph unicode="&#xe915;" glyph-name="dishes" d="M1024 374.771c0 11.046-8.956 19.998-20.002 19.998h-302.114c0.188 4.719 0.286 9.455 0.286 14.217 0 193.589-157.495 351.085-351.084 351.085s-351.086-157.494-351.086-351.085c0-193.587 157.496-351.087 351.084-351.087 42.394 0 83.058 7.552 120.711 21.385 19.593-17.109 44.877-26.722 71.147-26.722h372.962c59.605 0 108.096 48.495 108.096 108.1v12.638c0 11.046-8.956 19.998-20.002 19.998h-4.203c15.13 18.603 24.205 42.308 24.205 68.096v12.642c0 11.046-8.956 19.998-20.002 19.998h-4.203c15.13 18.603 24.205 42.308 24.205 68.092v12.646zM40 408.986c0 171.535 139.552 311.085 311.084 311.085s311.086-139.552 311.086-311.085c0-171.533-139.55-311.087-311.086-311.087-171.532 0-311.084 139.554-311.084 311.087zM915.904 92.561h-372.958c-9.728 0-19.243 2.095-27.942 6.007 27.917 14.801 53.606 33.259 76.433 54.729h392.166c-3.678-34.099-32.64-60.736-67.699-60.736zM627.925 193.297c14.69 18.812 27.503 39.151 38.165 60.736h317.517c-3.682-34.095-32.64-60.736-67.708-60.736h-287.974zM682.846 294.037c6.784 19.524 11.887 39.825 15.142 60.736h285.615c-3.682-34.099-32.64-60.736-67.708-60.736h-233.050zM351.084 658.964c-137.838 0-249.978-112.14-249.978-249.978s112.14-249.98 249.978-249.98c137.838 0 249.978 112.141 249.978 249.98s-112.137 249.978-249.978 249.978zM351.084 199.006c-115.782 0-209.978 94.195-209.978 209.98 0 115.78 94.196 209.978 209.978 209.978 115.783 0 209.978-94.198 209.978-209.978s-94.195-209.98-209.978-209.98zM624.781 698.665l68.834-25.292 25.293-68.834c2.893-7.872 10.389-13.102 18.773-13.102 8.388 0 15.881 5.232 18.773 13.102l25.293 68.834 68.834 25.292c7.872 2.892 13.103 10.386 13.103 18.772s-5.231 15.88-13.103 18.772l-68.834 25.292-25.293 68.834c-2.889 7.872-10.385 13.102-18.773 13.102-8.384 0-15.881-5.232-18.773-13.102l-25.293-68.834-68.834-25.292c-7.872-2.892-13.099-10.386-13.099-18.772s5.227-15.882 13.099-18.772zM716.096 727.148c5.508 2.024 9.852 6.366 11.874 11.876l9.711 26.424 9.707-26.424c2.027-5.51 6.37-9.852 11.874-11.876l26.428-9.71-26.428-9.71c-5.504-2.024-9.847-6.366-11.874-11.876l-9.707-26.424-9.711 26.424c-2.022 5.51-6.366 9.852-11.874 11.876l-26.428 9.71 26.428 9.71zM843.678 633.068c-8.384 0-15.876-5.232-18.773-13.102l-18.965-51.622-51.622-18.968c-7.872-2.892-13.103-10.386-13.103-18.773 0-8.384 5.231-15.881 13.103-18.769l51.622-18.97 18.965-51.618c2.893-7.876 10.389-13.103 18.773-13.103 8.388 0 15.881 5.231 18.778 13.103l18.965 51.618 51.622 18.97c7.872 2.889 13.099 10.385 13.099 18.769 0 8.387-5.227 15.881-13.099 18.773l-51.622 18.968-18.965 51.622c-2.897 7.87-10.394 13.102-18.778 13.102zM858.94 527.219c-5.508-2.027-9.852-6.366-11.874-11.878l-3.388-9.212-3.383 9.212c-2.022 5.513-6.366 9.852-11.874 11.878l-9.216 3.383 9.216 3.387c5.508 2.024 9.852 6.366 11.874 11.876l3.383 9.212 3.388-9.212c2.022-5.51 6.366-9.852 11.874-11.876l9.216-3.387-9.216-3.383z" />
<glyph unicode="&#xe916;" glyph-name="dishwasher" d="M889.263 933.891h-754.529c-74.378-0.069-134.665-60.345-134.734-134.734v-700.627c0.069-74.389 60.355-134.677 134.734-134.746h754.529c74.389 0.068 134.665 60.356 134.733 134.746v700.627c-0.068 74.388-60.343 134.665-134.733 134.734zM134.734 879.999h754.529c44.625-0.049 80.794-36.217 80.841-80.842v-80.842h-916.212v80.842c0.049 44.625 36.217 80.793 80.842 80.842zM889.263 17.685h-754.529c-44.625 0.051-80.793 36.207-80.842 80.845v565.894h916.212v-565.894c-0.047-44.638-36.215-80.794-80.841-80.845zM242.526 772.208h53.891c14.882 0 26.95 12.069 26.95 26.95s-12.069 26.951-26.95 26.951h-53.891c-14.882 0-26.951-12.069-26.951-26.951s12.069-26.95 26.951-26.95zM404.21 772.208h215.574c14.882 0 26.953 12.069 26.953 26.95s-12.070 26.951-26.953 26.951h-215.574c-14.882 0-26.95-12.069-26.95-26.951s12.069-26.95 26.95-26.95zM727.578 772.208h53.892c14.882 0 26.953 12.069 26.953 26.95s-12.070 26.951-26.953 26.951h-53.892c-14.882 0-26.948-12.069-26.948-26.951s12.066-26.95 26.948-26.95zM889.263 610.523h-754.529c-7.145 0.010-14.003-2.832-19.056-7.885s-7.895-11.911-7.885-19.056v-485.053c-0.010-7.155 2.832-14.003 7.885-19.068 5.053-5.052 11.911-7.885 19.056-7.885h754.529c7.147 0 14.003 2.833 19.055 7.885 5.065 5.065 7.898 11.913 7.898 19.068v485.053c0 7.145-2.833 14.003-7.898 19.056-5.052 5.053-11.908 7.895-19.055 7.885zM862.315 125.47h-700.63v431.162h700.63v-431.162zM296.418 290.982v-57.719h-26.941c-14.881 0-26.95-12.070-26.95-26.953s12.069-26.94 26.95-26.94h107.783c14.881 0 26.95 12.058 26.95 26.94s-12.069 26.953-26.95 26.953h-26.941v57.719c47.457 12.228 80.683 54.959 80.841 103.966v80.841c0 7.147-2.829 14.003-7.893 19.055-5.053 5.065-11.911 7.898-19.056 7.898h-161.684c-7.145 0-14.003-2.833-19.056-7.898-5.062-5.052-7.895-11.908-7.895-19.055v-80.841c0.158-49.007 33.385-91.738 80.842-103.966zM269.477 448.836h107.783v-53.888c0-29.764-24.128-53.892-53.892-53.892s-53.891 24.128-53.891 53.892v53.888zM646.737 179.371c89.301 0 161.685 72.384 161.685 161.685 0 89.289-72.384 161.685-161.685 161.685s-161.685-72.397-161.685-161.685c0.098-89.259 72.427-161.587 161.685-161.685zM646.737 448.836c59.524 0 107.793-48.256 107.793-107.78 0-59.537-48.269-107.793-107.793-107.793-59.529 0-107.793 48.256-107.793 107.793 0.081 59.494 48.294 107.712 107.793 107.78z" />
<glyph unicode="&#xe917;" glyph-name="double-arrow" d="M998.801 508.787l-425.946 425.951c-33.596 33.595-88.081 33.595-121.677 0s-33.596-88.081 0-121.676l365.069-365.071-365.069-365.065c-33.596-33.596-33.596-88.081 0-121.677s88.081-33.596 121.677 0l425.946 425.946c33.596 33.515 33.596 87.996 0 121.591zM486.647 534.582l-338.166 356.414c-33.98 35.769-89.018 35.769-122.998 0s-33.98-93.793 0-129.605l276.69-291.613-276.69-291.61c-33.98-35.772-33.98-93.837 0-129.604 33.98-35.772 89.018-35.772 122.998 0l338.166 356.412c33.98 35.772 33.98 93.794 0 129.607z" />
<glyph unicode="&#xe918;" glyph-name="download" d="M765.12 493.248c-5.184 11.456-16.576 18.752-29.12 18.752h-128v416c0 17.664-14.336 32-32 32h-128c-17.664 0-32.001-14.336-32.001-32v-416h-128c-12.544 0-23.936-7.36-29.12-18.752-5.248-11.456-3.2-24.832 5.056-34.304l224.001-256c6.080-6.976 14.848-10.944 24.064-10.944s17.984 4.032 24.064 10.944l224 256c8.32 9.408 10.24 22.848 5.056 34.304zM864 256v-192h-704v192h-128v-256c0-35.392 28.672-64 64-64h832c35.392 0 64 28.608 64 64v256h-128z" />
<glyph unicode="&#xe919;" glyph-name="edit" d="M132.039 827.961c56.937 56.937 142.138 78.706 251.961 78.706h85.333c17.673 0 32-14.327 32-32s-14.327-32-32-32h-85.333c-103.511 0-167.643-20.898-206.706-59.961s-59.961-103.195-59.961-206.706v-256c0-103.509 20.898-167.642 59.961-206.707 39.063-39.061 103.195-59.959 206.706-59.959h256c103.509 0 167.642 20.898 206.707 59.959 39.061 39.066 59.959 103.198 59.959 206.707v85.333c0 17.673 14.327 32 32 32s32-14.327 32-32v-85.333c0-109.824-21.769-195.025-78.707-251.959-56.934-56.939-142.135-78.707-251.959-78.707h-256c-109.823 0-195.023 21.769-251.961 78.707-56.937 56.934-78.706 142.135-78.706 251.959v256c0 109.823 21.769 195.023 78.706 251.961zM776.393 916.753c47.505 4.663 94.601-16.198 141.38-62.98 46.784-46.781 67.644-93.877 62.98-141.38-4.497-45.824-32.132-83.803-62.98-114.648l-336.585-336.583c-9.604-9.301-22.165-17.425-34.283-23.514-12.049-6.054-26.24-11.396-39.765-13.329l-128.591-18.368c-31.662-4.356-61.957 4.288-83.211 25.455-21.3 21.214-30.012 51.52-25.356 83.362 0.003 0.021 0.006 0.043 0.009 0.064l18.315 128.201c0.003 0.021 0.005 0.038 0.008 0.060 1.922 13.705 7.235 27.998 13.333 40.132 6.112 12.156 14.341 24.789 23.884 34.334l336.214 336.214c30.844 30.845 68.821 58.481 114.645 62.98zM782.647 853.059c-23.723-2.328-48.465-17.359-75.648-44.541l-336.212-336.212c-3.256-3.26-7.827-9.613-11.956-17.826-4.133-8.222-6.494-15.667-7.139-20.292l-0.015-0.102-18.364-128.546c-2.149-14.639 2.155-23.774 7.188-28.787 5.084-5.065 14.446-9.425 29.246-7.411 0.025 0.004 0.051 0.009 0.076 0.013l128.262 18.325c4.395 0.627 11.75 2.965 20.075 7.151 8.141 4.092 14.711 8.691 18.364 12.173l335.996 335.997c27.183 27.182 42.21 51.923 44.54 75.645 2.163 22.044-5.986 51.321-44.54 89.873s-67.831 46.705-89.873 44.541zM627.52 813.745c17.020 4.771 34.679-5.158 39.45-22.175 25.562-91.183 96.939-162.627 188.685-188.623 17.007-4.817 26.884-22.508 22.067-39.511s-22.507-26.883-39.514-22.065c-113.050 32.031-201.25 120.161-232.862 232.924-4.77 17.017 5.158 34.679 22.174 39.45z" />
<glyph unicode="&#xe91a;" glyph-name="edit-2" d="M896 21.333h-768c-17.493 0-32 14.507-32 32s14.507 32 32 32h768c17.493 0 32-14.507 32-32s-14.507-32-32-32zM811.52 811.52c-82.773 82.773-163.84 84.907-248.747 0l-51.627-51.627c-4.267-4.267-5.973-11.093-4.267-17.067 32.427-113.067 122.88-203.52 235.947-235.947 1.707-0.427 3.413-0.853 5.12-0.853 4.693 0 8.96 1.707 12.373 5.12l51.2 51.626c42.24 41.813 62.72 82.347 62.72 123.307 0.427 42.24-20.053 83.2-62.72 125.44zM666.027 468.053c-12.373 5.973-24.32 11.947-35.84 18.773-9.387 5.547-18.347 11.52-27.307 17.92-7.253 4.693-15.787 11.52-23.893 18.347-0.853 0.427-3.84 2.987-7.253 6.4-14.080 11.947-29.867 27.307-43.947 44.374-1.28 0.853-3.413 3.84-6.4 7.68-4.267 5.12-11.52 13.653-17.92 23.467-5.12 6.4-11.093 15.787-16.64 25.173-6.827 11.52-12.8 23.040-18.773 34.987-0.905 1.937-1.779 3.864-2.628 5.78-6.298 14.221-24.841 18.379-35.84 7.381l-244.414-244.415c-5.547-5.547-10.667-16.213-11.947-23.467l-23.040-163.413c-4.267-29.013 3.84-56.32 21.76-74.667 15.36-14.933 36.693-23.040 59.733-23.040 5.12 0 10.24 0.427 15.36 1.28l163.84 23.040c7.68 1.28 18.349 6.4 23.469 11.947l244.109 244.109c11.072 11.076 6.895 30.080-7.509 36.228-1.621 0.691-3.26 1.395-4.919 2.116z" />
<glyph unicode="&#xe91b;" glyph-name="exit" d="M724.002 176v-80c0-88.226-71.774-160-160-160h-402.002c-88.227 0-160 71.774-160 160v704c0 88.227 71.773 160 160 160h402.002c88.226 0 160-71.773 160-160v-80c0-22.094-17.907-40-40.004-40-22.093 0-39.996 17.906-39.996 40v80c0 44.109-35.891 80-80 80h-402.002c-44.11 0-80-35.891-80-80v-704c0-44.109 35.89-80 80-80h402.002c44.109 0 80 35.891 80 80v80c0 22.093 17.903 40 39.996 40 22.097 0 40.004-17.907 40.004-40zM996.71 516.71l-89.57 89.571c-15.625 15.625-40.951 15.625-56.572 0-15.625-15.617-15.625-40.945 0-56.563l63.714-63.72h-480.282c-22.095 0-40.001-17.907-40.001-40s17.906-40 40.001-40h480.282l-63.714-63.718c-15.625-15.616-15.625-40.943 0-56.563 7.812-7.812 18.048-11.716 28.284-11.716 10.24 0 20.476 3.904 28.288 11.716l89.57 89.57c38.993 38.993 38.993 102.43 0 141.423z" />
<glyph unicode="&#xe91c;" glyph-name="eye" d="M512 568.746c-66.807 0-120.748-53.939-120.748-120.746s53.94-120.747 120.748-120.747c66.807 0 120.747 53.939 120.747 120.747s-53.939 120.746-120.747 120.746zM327.252 448c0 102.153 82.594 184.746 184.748 184.746s184.747-82.594 184.747-184.746-82.594-184.747-184.747-184.747c-102.154 0-184.748 82.594-184.748 184.747zM96.32 576.129c102.013 160.357 251.5 257.151 415.68 257.151 164.186 0 313.681-96.802 415.693-257.172 23.253-36.452 33.801-83.146 33.801-127.895s-10.547-91.443-33.801-127.893c-102.012-160.371-251.507-257.173-415.693-257.173-164.188 0-313.681 96.802-415.694 257.173-23.252 36.45-33.8 83.145-33.8 127.893 0 44.757 10.551 91.461 33.813 127.916zM512 769.28c-137.039 0-268.293-80.691-361.693-227.522l-0.026-0.042c-15.129-23.7-23.773-57.629-23.773-93.503s8.644-69.803 23.773-93.504l0.027-0.043c93.4-146.829 224.654-227.52 361.693-227.52 137.037 0 268.292 80.691 361.694 227.52l0.026 0.043c15.13 23.701 23.774 57.63 23.774 93.504s-8.644 69.803-23.774 93.503l-0.026 0.042c-93.402 146.831-224.657 227.522-361.694 227.522z" />
<glyph unicode="&#xe91d;" glyph-name="eye-slash" d="M512 568.746c-66.807 0-120.746-53.939-120.746-120.746 0-21.777 5.714-42.091 15.799-59.695l164.642 164.642c-17.604 10.085-37.918 15.799-59.695 15.799zM327.254 448c0 102.153 82.594 184.746 184.746 184.746 51.106 0 97.114-20.712 130.573-54.173 12.497-12.497 12.497-32.758 0-45.253l-215.893-215.893c-12.495-12.497-32.756-12.497-45.253 0-33.46 33.459-54.173 79.467-54.173 130.573zM96.32 575.702c102.013 160.357 251.5 257.151 415.68 257.151 95.983 0 187.968-33.434 267.588-93.493 14.11-10.642 16.922-30.708 6.281-44.817-10.645-14.109-30.711-16.92-44.817-6.278-69.713 52.582-148.395 80.588-229.052 80.588-137.039 0-268.293-80.691-361.693-227.522l-0.026-0.042c-15.129-23.704-23.773-57.632-23.773-93.502 0-35.874 8.644-69.803 23.773-93.504l0.015-0.021c32.161-50.483 69.401-93.696 109.504-128.188 13.399-11.524 14.92-31.727 3.396-45.124-11.523-13.402-31.727-14.921-45.127-3.401-45.23 38.899-86.497 86.989-121.75 142.323-23.261 36.454-33.812 83.157-33.812 127.915s10.551 91.461 33.813 127.916zM835.409 646.589c13.773 11.077 33.916 8.893 44.992-4.879 16.38-20.364 32.469-42.245 47.309-65.63 23.241-36.448 33.783-83.127 33.783-127.867 0-44.757-10.551-91.46-33.813-127.915-102.012-160.358-251.499-257.152-415.68-257.152-57.024 0-112.861 12.058-165.165 34.082-16.288 6.857-23.933 25.621-17.074 41.911 6.858 16.286 25.622 23.932 41.91 17.071 44.976-18.935 92.393-29.065 140.329-29.065 137.037 0 268.292 80.691 361.694 227.524l0.026 0.038c15.13 23.706 23.774 57.634 23.774 93.504 0 35.874-8.644 69.803-23.774 93.504l-0.047 0.070c-13.316 20.989-27.947 40.92-43.14 59.81-11.076 13.771-8.892 33.914 4.877 44.991zM667.563 449.604c17.382-3.204 28.873-19.895 25.668-37.274-13.5-73.207-72.777-132.489-145.988-145.988-17.378-3.204-34.065 8.29-37.274 25.668-3.204 17.378 8.29 34.069 25.668 37.274 47.113 8.687 85.965 47.543 94.652 94.652 3.209 17.382 19.895 28.873 37.274 25.668zM426.679 362.679c12.497-12.497 12.497-32.755 0-45.252l-318.719-318.72c-12.497-12.497-32.758-12.497-45.255 0s-12.497 32.755 0 45.252l318.72 318.72c12.497 12.497 32.758 12.497 45.254 0zM961.293 897.294c12.497-12.497 12.497-32.758 0-45.255l-318.72-318.719c-12.497-12.497-32.755-12.497-45.252 0-12.497 12.495-12.497 32.757 0 45.254l318.72 318.72c12.497 12.497 32.755 12.497 45.252 0z" />
<glyph unicode="&#xe91e;" glyph-name="facebook" d="M376.345 761.682c0-25.805 0-140.984 0-140.984h-103.289v-172.395h103.289v-512.299h212.177v512.282h142.383c0 0 13.333 82.662 19.797 173.048-18.53 0-161.378 0-161.378 0s0 100.294 0 117.874c0 17.617 23.134 41.316 45.999 41.316 22.822 0 70.989 0 115.605 0 0 23.472 0 104.573 0 179.474-59.558 0-127.317 0-157.184 0-222.644 0.012-217.4-172.555-217.4-198.315z" />
<glyph unicode="&#xe91f;" glyph-name="fields-size" d="M316.34 100.604l-60.34 60.339 543.057 543.058 60.339-60.34-543.057-543.057zM829.227 372.13l-241.357-241.357-60.339 60.339 241.357 241.361 60.339-60.343z" />
<glyph unicode="&#xe920;" glyph-name="filter" d="M230.401 838.401c-28.246 0-53.333-23.042-53.333-57.6v-98.133c0-6.688 2.522-18.062 8.401-31.177 5.755-12.838 13.348-24.251 20.627-31.529l0.573-0.587 162.133-170.666c0.625-0.657 1.222-1.344 1.788-2.052 10.821-13.525 20.832-31.309 28.19-49.702 7.289-18.223 12.955-39.488 12.955-59.887v-226.133c0-41.25 47.508-67.179 83.259-45.423l59.439 38.208c0.277 0.179 0.555 0.354 0.841 0.521 3.883 2.334 9.967 8.593 15.27 18.79 5.201 10.005 7.59 19.87 7.59 26.304v183.467c0 21.99 5.397 45.436 14.276 66.364 8.755 20.642 21.922 41.229 39.518 56.030l182.332 161.13c7.236 7.446 15.607 19.727 22.208 34.252 6.835 15.028 10.466 29.596 10.466 40.625v93.867c0 29.26-24.073 53.333-53.333 53.333h-563.199zM113.068 780.801c0 67.842 51.713 121.6 117.333 121.6h563.199c64.606 0 117.333-52.727 117.333-117.333v-93.867c0-23.105-7.031-46.937-16.201-67.108-9.207-20.258-21.875-39.692-35.836-53.652-0.465-0.465-0.947-0.916-1.438-1.351l-183.467-162.135c-0.235-0.205-0.469-0.405-0.704-0.602-7.812-6.511-15.851-17.775-21.961-32.183-6.054-14.268-9.195-29.222-9.195-41.37v-183.467c0-19.166-6.144-39.164-14.81-55.829-8.482-16.316-21.436-33.357-38.647-43.853l-59.904-38.502c-75.157-46.251-181.038 4.595-181.038 99.785v226.133c0 9.468-2.867 22.34-8.378 36.117-5.22 13.047-11.925 24.7-17.975 32.516l-160.852 169.319c-13.915 14.015-25.41 32.331-33.462 50.292-7.988 17.819-14 38.445-14 57.356v98.133zM483.29 897.548c14.993-9.357 19.563-29.096 10.206-44.089l-210.346-337.065c-9.356-14.997-29.096-19.563-44.089-10.21-14.993 9.357-19.563 29.098-10.206 44.091l210.348 337.067c9.357 14.993 29.094 19.563 44.087 10.206z" />
<glyph unicode="&#xe921;" glyph-name="gallery" d="M132.039 827.961c56.937 56.937 142.138 78.706 251.961 78.706h256c109.824 0 195.025-21.769 251.959-78.706 56.939-56.937 78.707-142.138 78.707-251.961v-256c0-109.824-21.769-195.025-78.707-251.959-56.934-56.939-142.135-78.707-251.959-78.707h-256c-109.823 0-195.023 21.769-251.961 78.707-56.937 56.934-78.706 142.135-78.706 251.959v256c0 109.823 21.769 195.023 78.706 251.961zM177.294 782.706c-39.063-39.063-59.961-103.195-59.961-206.706v-256c0-103.509 20.898-167.642 59.961-206.707 39.063-39.061 103.195-59.959 206.706-59.959h256c103.509 0 167.642 20.898 206.707 59.959 39.061 39.066 59.959 103.198 59.959 206.707v256c0 103.511-20.898 167.643-59.959 206.706-39.066 39.063-103.198 59.961-206.707 59.961h-256c-103.511 0-167.643-20.898-206.706-59.961zM384 672c-29.455 0-53.333-23.878-53.333-53.333s23.878-53.333 53.333-53.333c29.455 0 53.333 23.878 53.333 53.333s-23.878 53.333-53.333 53.333zM266.667 618.667c0 64.801 52.532 117.333 117.333 117.333s117.333-52.532 117.333-117.333c0-64.801-52.531-117.333-117.333-117.333s-117.333 52.532-117.333 117.333zM848.269 402.394c-21.286 18.283-57.331 18.283-78.618 0l-177.493-152.32c-0.004-0.004 0.004 0 0 0-45.274-38.878-116.753-38.886-162.022 0l-0.273 0.235-13.929 12.241c-19.133 16.329-51.83 18.334-73.839 3.571l-210.337-141.222c-14.673-9.852-34.553-5.943-44.404 8.73s-5.943 34.556 8.73 44.407l210.347 141.227c45.358 30.43 109.86 27.358 151.333-8.269l0.269-0.235 13.926-12.241c21.303-18.18 57.25-18.146 78.498 0.102l177.493 152.32c-0.004-0.004 0.004 0.004 0 0 45.274 38.878 116.753 38.886 162.022 0 0 0 0 0 0 0l69.547-59.733c13.406-11.511 14.938-31.718 3.422-45.124-11.511-13.406-31.714-14.938-45.124-3.426l-69.547 59.738z" />
<glyph unicode="&#xe922;" glyph-name="gallery-add" d="M384 672c-29.455 0-53.333-23.878-53.333-53.333s23.878-53.333 53.333-53.333c29.455 0 53.333 23.878 53.333 53.333s-23.878 53.333-53.333 53.333zM266.667 618.667c0 64.801 52.532 117.333 117.333 117.333s117.333-52.532 117.333-117.333c0-64.801-52.531-117.333-117.333-117.333s-117.333 52.532-117.333 117.333zM132.039 827.961c56.937 56.937 142.138 78.706 251.961 78.706h170.667c17.673 0 32-14.327 32-32s-14.327-32-32-32h-170.667c-103.511 0-167.643-20.898-206.706-59.961s-59.961-103.195-59.961-206.706v-256c0-103.509 20.898-167.642 59.961-206.707 39.063-39.061 103.195-59.959 206.706-59.959h256c103.509 0 167.642 20.898 206.707 59.959 39.061 39.066 59.959 103.198 59.959 206.707v213.333c0 17.673 14.327 32 32 32s32-14.327 32-32v-213.333c0-109.824-21.769-195.025-78.707-251.959-56.934-56.939-142.135-78.707-251.959-78.707h-256c-109.823 0-195.023 21.769-251.961 78.707-56.937 56.934-78.706 142.135-78.706 251.959v256c0 109.823 21.769 195.023 78.706 251.961zM640 746.667c0 17.673 14.327 32 32 32h234.667c17.673 0 32-14.327 32-32s-14.327-32-32-32h-234.667c-17.673 0-32 14.327-32 32zM789.333 896c17.673 0 32-14.327 32-32v-234.667c0-17.673-14.327-32-32-32s-32 14.327-32 32v234.667c0 17.673 14.327 32 32 32zM848.269 402.394c-21.286 18.283-57.331 18.283-78.618 0l-177.493-152.32c-0.004-0.004 0.004 0 0 0-45.274-38.878-116.753-38.886-162.022 0l-0.273 0.235-13.929 12.241c-19.133 16.329-51.83 18.334-73.839 3.571l-210.337-141.222c-14.673-9.852-34.553-5.943-44.404 8.73s-5.943 34.556 8.73 44.407l210.347 141.227c45.358 30.43 109.86 27.358 151.333-8.269l0.269-0.235 13.926-12.241c21.303-18.18 57.25-18.146 78.498 0.102l177.493 152.32c-0.004-0.004 0.004 0.004 0 0 45.274 38.878 116.753 38.886 162.022 0 0 0 0 0 0 0l69.547-59.733c13.406-11.511 14.938-31.718 3.422-45.124-11.511-13.406-31.714-14.938-45.124-3.426l-69.547 59.738z" />
<glyph unicode="&#xe923;" glyph-name="group" d="M79.143 802.78c34.439 61.787 100.797 103.887 176.858 103.887h384c17.673 0 32-14.327 32-32v-426.667c0-64.606-52.727-117.333-117.333-117.333h-42.667c-17.673 0-32 14.327-32 32s14.327 32 32 32h42.667c29.261 0 53.333 24.073 53.333 53.333v394.667h-352c-51.939 0-97.367-28.726-120.955-71.046-8.604-15.437-28.093-20.976-43.531-12.372s-20.976 28.094-12.372 43.531zM608 746.667c0 17.673 14.327 32 32 32h78.507c42.406 0 80.969-22.955 101.914-59.025l0.107-0.182 72.956-127.573c5.666-9.904 5.628-22.074-0.098-31.943-5.722-9.869-16.269-15.943-27.678-15.943h-55.040c-5.794 0-10.667-4.873-10.667-10.667v-128c0-5.794 4.873-10.667 10.667-10.667h128c17.673 0 32-14.327 32-32v-128c0-88.499-71.501-160-160-160h-42.667c-17.673 0-32 14.327-32 32 0 29.261-24.073 53.333-53.333 53.333s-53.333-24.073-53.333-53.333c0-17.673-14.327-32-32-32h-170.667c-17.673 0-32 14.327-32 32 0 29.261-24.073 53.333-53.333 53.333s-53.333-24.073-53.333-53.333c0-17.673-14.327-32-32-32h-42.667c-88.5 0-160 71.501-160 160 0 17.673 14.327 32 32 32s32-14.327 32-32c0-53.154 42.846-96 96-96h15.117c13.993 49.148 59.361 85.333 112.883 85.333s98.889-36.186 112.883-85.333h115.567c13.995 49.148 59.362 85.333 112.883 85.333s98.889-36.186 112.883-85.333h15.117c53.154 0 96 42.846 96 96v96h-96c-41.139 0-74.667 33.527-74.667 74.667v128c0 41.098 33.459 74.599 74.543 74.667l-45.47 79.505c-0.013 0.026-0.030 0.053-0.047 0.079-9.783 16.789-27.511 27.083-46.519 27.083h-46.507v-266.667c0-64.606-52.727-117.333-117.333-117.333h-42.667c-17.673 0-32 14.327-32 32s14.327 32 32 32h42.667c29.261 0 53.333 24.073 53.333 53.333v298.667zM341.333 160c-29.455 0-53.333-23.876-53.333-53.333s23.878-53.333 53.333-53.333c29.455 0 53.333 23.876 53.333 53.333s-23.878 53.333-53.333 53.333zM224 106.667c0 64.802 52.532 117.333 117.333 117.333s117.333-52.531 117.333-117.333c0-64.802-52.532-117.333-117.333-117.333s-117.333 52.531-117.333 117.333zM682.667 160c-29.457 0-53.333-23.876-53.333-53.333s23.876-53.333 53.333-53.333c29.457 0 53.333 23.876 53.333 53.333s-23.876 53.333-53.333 53.333zM565.333 106.667c0 64.802 52.531 117.333 117.333 117.333s117.333-52.531 117.333-117.333c0-64.802-52.531-117.333-117.333-117.333s-117.333 52.531-117.333 117.333zM810.667 544c-5.794 0-10.667-4.873-10.667-10.667v-128c0-5.794 4.873-10.667 10.667-10.667h96v44.855l-59.554 104.478h-36.446zM736 533.333c0 41.14 33.527 74.667 74.667 74.667h55.040c11.494 0 22.106-6.166 27.802-16.153l72.96-128c2.752-4.83 4.198-10.291 4.198-15.846v-85.333c0-17.673-14.327-32-32-32h-128c-41.139 0-74.667 33.527-74.667 74.667v128zM53.333 618.667c0 17.673 14.327 32 32 32h256c17.673 0 32-14.327 32-32s-14.327-32-32-32h-256c-17.673 0-32 14.327-32 32zM53.333 490.667c0 17.673 14.327 32 32 32h170.667c17.673 0 32-14.327 32-32s-14.327-32-32-32h-170.667c-17.673 0-32 14.327-32 32zM53.333 362.667c0 17.673 14.327 32 32 32h85.333c17.673 0 32-14.327 32-32s-14.327-32-32-32h-85.333c-17.673 0-32 14.327-32 32z" />
<glyph unicode="&#xe924;" glyph-name="hamburger" d="M96 661.333c0 17.673 14.327 32 32 32h768c17.673 0 32-14.327 32-32s-14.327-32-32-32h-768c-17.673 0-32 14.327-32 32zM96 448c0 17.673 14.327 32 32 32h768c17.673 0 32-14.327 32-32s-14.327-32-32-32h-768c-17.673 0-32 14.327-32 32zM96 234.667c0 17.673 14.327 32 32 32h768c17.673 0 32-14.327 32-32s-14.327-32-32-32h-768c-17.673 0-32 14.327-32 32z" />
<glyph unicode="&#xe925;" glyph-name="heart" d="M322.56 795.733c-113.164 0-205.227-92.19-205.227-206.507 0-138.688 64.029-249.809 144.607-332.369 80.964-82.957 176.669-134.916 233.944-154.466l0.311-0.107v-0.004c2.765-0.973 8.491-2.014 15.804-2.014s13.039 1.041 15.804 2.014l0.311 0.111c57.276 19.55 152.981 71.509 233.946 154.466 80.576 82.56 144.606 193.681 144.606 332.369 0 114.317-92.062 206.507-205.227 206.507-66.654 0-126.421-32.389-163.75-82.652-6.037-8.129-15.565-12.921-25.69-12.921s-19.652 4.792-25.69 12.921c-37.35 50.29-96.701 82.652-163.75 82.652zM53.333 589.226c0 149.364 120.418 270.507 269.227 270.507 74.101 0 140.996-30.122 189.453-78.708 48.563 48.601 115.708 78.708 189.427 78.708 148.809 0 269.227-121.143 269.227-270.507 0-159.978-74.21-286.297-162.807-377.071-88.145-90.313-192.457-147.563-258.923-170.283-11.703-4.1-25.105-5.606-36.937-5.606s-25.233 1.506-36.937 5.606c-66.464 22.72-170.778 79.97-258.924 170.283-88.595 90.773-162.806 217.092-162.806 377.071z" />
<glyph unicode="&#xe927;" glyph-name="home" d="M489.971 905.858c44.177 1.036 90.129-10.188 126.566-35.696l263.625-184.71c-0.009 0.007 0.013-0.006 0 0 26.436-18.434 48.721-46.854 64.311-76.724 15.599-29.883 26.193-64.421 26.193-96.728v-310.613c0-116.186-94.916-211.627-211.627-211.627h-494.080c-116.759 0-211.627 95.492-211.627 212.053v316.16c0 30.313 9.575 63.124 23.645 91.802 14.072 28.681 34.191 56.386 58.233 75.093l229.973 179.2c35.189 27.369 80.605 40.753 124.787 41.789zM404.5 813.567c-0.004-0.003 0.003 0.003 0 0l-229.951-179.183c-14.348-11.159-29.017-30.184-40.114-52.8-11.103-22.629-17.102-45.711-17.102-63.611v-316.16c0-81.412 66.412-148.053 147.627-148.053h494.080c81.263 0 147.627 66.688 147.627 147.627v310.613c0 19.319-6.686 43.662-18.927 67.112-12.241 23.453-28.378 42.829-44.169 53.836l-0.068 0.045-263.667 184.739c-0.004 0.003 0.004-0.003 0 0-23.292 16.301-55.215 24.922-88.367 24.144-33.148-0.777-64.559-10.882-86.969-28.308zM512 352.427c17.673 0 32-14.327 32-32v-128c0-17.673-14.327-32-32-32s-32 14.327-32 32v128c0 17.673 14.327 32 32 32z" />
<glyph unicode="&#xe928;" glyph-name="hood" d="M200.179 63.027c28.468 18.978 45.464 50.739 45.464 84.949 0 34.214-16.996 65.971-45.464 84.949-13.782 9.186-32.408 5.466-41.596-8.32-9.188-13.781-5.464-32.405 8.32-41.596 11.914-7.94 18.748-20.715 18.748-35.034s-6.834-27.093-18.748-35.038c-28.468-18.978-45.464-51.11-45.464-85.952 0-34.837 16.998-66.97 45.464-85.948 13.722-9.148 32.368-5.525 41.596 8.32 9.188 13.786 5.464 32.41-8.32 41.596-11.914 7.945-18.75 21.082-18.75 36.036s6.834 28.087 18.75 36.036zM410.15 63.027c28.467 18.978 45.466 50.739 45.466 84.949 0 34.214-16.998 65.971-45.466 84.949-13.78 9.186-32.408 5.466-41.596-8.32-9.188-13.781-5.464-32.405 8.32-41.596 11.914-7.94 18.748-20.715 18.748-35.034s-6.834-27.093-18.748-35.038c-28.468-18.978-45.464-51.11-45.464-85.952 0-34.837 16.998-66.97 45.464-85.948 13.722-9.148 32.368-5.525 41.596 8.32 9.186 13.786 5.464 32.41-8.32 41.596-11.914 7.945-18.75 21.082-18.75 36.036s6.834 28.087 18.75 36.036zM830.097 63.027c28.467 18.978 45.466 50.739 45.466 84.949 0 34.214-16.998 65.971-45.466 84.949-13.781 9.186-32.405 5.466-41.596-8.32-9.186-13.781-5.461-32.405 8.32-41.596 11.917-7.94 18.748-20.715 18.748-35.034s-6.831-27.093-18.748-35.038c-28.467-18.978-45.461-51.11-45.461-85.952 0-34.837 16.994-66.97 45.461-85.948 13.722-9.148 32.367-5.525 41.596 8.32 9.19 13.786 5.466 32.41-8.32 41.596-11.913 7.945-18.748 21.082-18.748 36.036s6.831 28.087 18.748 36.036zM620.122 63.027c28.471 18.978 45.466 50.739 45.466 84.949 0 34.214-16.994 65.971-45.466 84.949-13.777 9.186-32.405 5.466-41.596-8.32-9.186-13.781-5.461-32.405 8.32-41.596 11.917-7.94 18.748-20.715 18.748-35.034s-6.831-27.093-18.748-35.038c-28.467-18.978-45.461-51.11-45.461-85.952 0-34.837 16.998-66.97 45.461-85.948 13.722-9.148 32.371-5.525 41.596 8.32 9.19 13.786 5.466 32.41-8.32 41.596-11.917 7.945-18.752 21.082-18.752 36.036s6.839 28.087 18.752 36.036zM1012.599 471.548l-290.628 230.964v227.493c0 16.566-13.431 29.996-29.995 29.996h-359.956c-16.566 0-29.996-13.43-29.996-29.996v-227.493l-290.627-230.964c-6.908-5.483-11.332-14.187-11.332-23.479v-119.987c0-16.563 13.43-29.995 29.996-29.995h963.875c16.567 0 29.999 13.431 29.999 29.995v119.987c-0.004 9.37-4.489 18.057-11.337 23.479zM362.017 900.008h299.96v-181.976h-299.96v181.976zM342.489 658.039h339.017l226.47-179.977h-791.958l226.47 179.977zM963.942 358.076h-903.886v59.994h903.886v-59.994z" />
<glyph unicode="&#xe929;" glyph-name="instagram" d="M1023.010 658.941c-2.398 54.409-11.196 91.815-23.799 124.227-13.005 34.405-33.007 65.208-59.217 90.814-25.604 26.005-56.61 46.212-90.62 59.012-32.597 12.604-69.807 21.403-124.215 23.802-54.818 2.602-72.218 3.204-211.247 3.204-139.026 0-156.428-0.602-211.040-3.001-54.409-2.399-91.815-11.205-124.219-23.802-34.413-13.003-65.216-33.006-90.822-59.215-26.005-25.606-46.204-56.613-59.012-90.619-12.604-32.608-21.403-69.81-23.802-124.219-2.602-54.816-3.204-72.217-3.204-211.243 0-139.029 0.602-156.429 3.001-211.042 2.399-54.409 11.205-91.814 23.809-124.228 13.002-34.406 33.202-65.207 59.207-90.816 25.606-26.005 56.612-46.212 90.619-59.008 32.608-12.604 69.811-21.406 124.227-23.804 54.604-2.406 72.014-2.999 211.040-2.999 139.029 0 156.429 0.593 211.042 2.999 54.409 2.398 91.814 11.2 124.22 23.804 68.817 26.607 123.226 81.015 149.833 149.824 12.599 32.61 21.406 69.82 23.804 124.228 2.398 54.613 2.999 72.013 2.999 211.042 0 139.025-0.201 156.427-2.603 211.040zM930.799 240.862c-2.206-50.014-10.603-77.018-17.604-95.019-17.207-44.612-52.612-80.017-97.225-97.225-18.001-7.002-45.205-15.403-95.019-17.596-54.007-2.406-70.208-2.999-206.835-2.999-136.629 0-153.031 0.593-206.846 2.999-50.010 2.193-77.015 10.594-95.019 17.596-22.199 8.205-42.406 21.21-58.808 38.212-17.003 16.602-30.006 36.608-38.211 58.807-7.001 18.005-15.401 45.21-17.597 95.019-2.407 54.012-3.001 70.217-3.001 206.844 0 136.629 0.594 153.031 3.001 206.838 2.196 50.010 10.596 77.015 17.597 95.018 8.205 22.208 21.207 42.407 38.414 58.816 16.597 17.003 36.601 30.006 58.808 38.202 18.003 7.002 45.212 15.402 95.018 17.605 54.010 2.399 70.217 3.001 206.839 3.001 136.828 0 153.028-0.602 206.844-3.001 50.010-2.203 77.013-10.604 95.019-17.605 22.199-8.197 42.406-21.199 58.807-38.202 17.003-16.605 30.007-36.609 38.212-58.816 7.002-18.003 15.398-45.204 17.604-95.018 2.398-54.010 2.999-70.209 2.999-206.838 0-136.627-0.602-152.631-2.999-206.639zM513.929 710.953c-145.226 0-263.054-117.82-263.054-263.051 0-145.233 117.828-263.053 263.054-263.053 145.229 0 263.049 117.82 263.049 263.053 0 145.231-117.82 263.051-263.049 263.051zM513.929 277.265c-94.216 0-170.637 76.416-170.637 170.637s76.422 170.635 170.637 170.635c94.221 0 170.633-76.413 170.633-170.635s-76.412-170.637-170.633-170.637zM848.768 721.355c0-33.913-27.499-61.411-61.419-61.411-33.916 0-61.41 27.498-61.41 61.411 0 33.921 27.494 61.411 61.41 61.411 33.92 0 61.419-27.49 61.419-61.411z" />
<glyph unicode="&#xe92a;" glyph-name="kitchen" d="M480 836h-480v-900h1024c0 25.212 0 461.564 0 480h-544v420zM420 776v-240h-360v240h360zM60-4.002v480h360v-480h-360zM480 235.998h304v-240h-304v240zM964.002-4.002h-120.004v240h120.004v-240zM964.002 356.002v-60.002h-484.002v60.002h484.002zM120 716h60v-120h-60v120zM120 296h60v-120h-60v120zM904 762.14v197.86h-240v-197.86l-120-124v-102.14h480v102.14l-120 124zM724.002 900h119.996v-120h-119.996v120zM964.002 596h-360.004v17.86l102.72 106.14h154.564l102.72-106.14v-17.86zM664 176h60.002v-120h-60.002v120z" />
<glyph unicode="&#xe92b;" glyph-name="laundry" d="M887.654 960h-749.768c-48.963 0-88.791-39.75-88.791-88.617v-846.764c0-48.87 39.828-88.619 88.791-88.619h749.768c48.964 0 88.794 39.748 88.794 88.619v846.764c0 48.867-39.829 88.617-88.794 88.617zM108.29 871.383c0 16.289 13.276 29.539 29.597 29.539h749.768c16.324 0 29.598-13.25 29.598-29.539v-118.148h-808.963v118.148zM917.252 24.619c0-16.29-13.274-29.542-29.598-29.542h-749.768c-16.321 0-29.597 13.252-29.597 29.542v669.538h808.963v-669.538zM710.050 856.617h-59.179c-16.341 0-29.594-13.227-29.594-29.539s13.252-29.539 29.594-29.539h59.179c16.346 0 29.598 13.227 29.598 29.539s-13.252 29.539-29.598 29.539zM867.93 856.617h-59.179c-16.346 0-29.598-13.227-29.598-29.539s13.252-29.539 29.598-29.539h59.179c16.346 0 29.589 13.227 29.589 29.539s-13.244 29.539-29.589 29.539zM226.677 344.619c0-157.449 128.337-285.542 286.091-285.542 157.76 0 286.097 128.094 286.097 285.542 0 7.663-0.311 15.258-0.909 22.763 0 0.043-0.009 0.081-0.009 0.111-11.716 146.79-135.138 262.664-285.18 262.664-150.036 0-273.457-115.874-285.175-262.664-0.008-0.030-0.008-0.068-0.008-0.111-0.595-7.505-0.908-15.1-0.908-22.763zM512.768 118.157c-120.032 0-218.576 93.508-226.388 211.358 6.388-2.624 12.047-6.093 18.505-10.052 17.456-10.726 39.194-24.081 79.632-24.081s62.169 13.346 79.633 24.073c14.473 8.892 24.922 15.313 48.61 15.313s34.146-6.421 48.619-15.313c17.463-10.718 39.202-24.073 79.637-24.073 40.439 0 62.178 13.346 79.642 24.073 6.46 3.968 12.117 7.437 18.496 10.061-7.804-117.85-106.347-211.358-226.385-211.358zM512.768 571.078c109.508 0 201.148-77.83 222.31-180.977-20.002-4.736-33.707-13.124-45.444-20.326-14.473-8.892-24.93-15.313-48.619-15.313-23.684 0-34.142 6.421-48.614 15.313-17.468 10.726-39.194 24.077-79.642 24.077-40.439 0-62.17-13.35-79.633-24.077-14.473-8.892-24.931-15.313-48.61-15.313-23.687 0-34.145 6.421-48.619 15.313-11.734 7.211-25.432 15.599-45.432 20.326 21.158 103.147 112.798 180.977 222.302 180.977z" />
<glyph unicode="&#xe92c;" glyph-name="loading" d="M554.667 789.333v-170.667c0-23.595-19.072-42.667-42.667-42.667s-42.667 19.072-42.667 42.667v170.667c0 23.595 19.072 42.667 42.667 42.667s42.667-19.072 42.667-42.667zM512 320c-23.595 0-42.667-19.072-42.667-42.667v-170.667c0-23.595 19.072-42.667 42.667-42.667s42.667 19.072 42.667 42.667v170.667c0 23.595-19.072 42.667-42.667 42.667zM384 448c0 23.595-19.072 42.667-42.667 42.667h-170.667c-23.595 0-42.667-19.072-42.667-42.667s19.072-42.667 42.667-42.667h170.667c23.595 0 42.667 19.072 42.667 42.667zM853.333 490.667h-170.667c-23.595 0-42.667-19.072-42.667-42.667s19.072-42.667 42.667-42.667h170.667c23.595 0 42.667 19.072 42.667 42.667s-19.072 42.667-42.667 42.667zM373.675 370.005l-120.704-120.704c-16.683-16.683-16.683-43.691 0-60.331 8.32-8.32 19.243-12.501 30.165-12.501s21.845 4.181 30.165 12.501l120.704 120.704c16.683 16.683 16.683 43.648 0 60.331-16.683 16.64-43.691 16.64-60.331 0zM650.325 525.995l120.704 120.704c16.683 16.683 16.683 43.648 0 60.331s-43.648 16.683-60.331 0l-120.704-120.704c-16.683-16.683-16.683-43.648 0-60.331 8.32-8.32 19.243-12.501 30.165-12.501s21.845 4.181 30.165 12.501zM671.659 348.672c-16.683 16.683-43.648 16.683-60.331 0s-16.683-43.648 0-60.331l120.704-120.704c8.32-8.32 19.243-12.501 30.165-12.501s21.845 4.181 30.165 12.501c16.683 16.683 16.683 43.648 0 60.331l-120.704 120.704zM313.301 707.029c-16.683 16.683-43.648 16.683-60.331 0s-16.683-43.648 0-60.331l120.704-120.704c8.32-8.32 19.243-12.501 30.165-12.501s21.845 4.181 30.165 12.501c16.683 16.683 16.683 43.648 0 60.331l-120.704 120.704z" />
<glyph unicode="&#xe92d;" glyph-name="location" d="M512 621.227c-55.846 0-101.12-45.273-101.12-101.12s45.274-101.12 101.12-101.12c55.846 0 101.12 45.274 101.12 101.12s-45.274 101.12-101.12 101.12zM346.88 520.107c0 91.193 73.927 165.12 165.12 165.12 91.191 0 165.12-73.927 165.12-165.12 0-91.191-73.929-165.12-165.12-165.12-91.193 0-165.12 73.929-165.12 165.12zM512.141 842.667c145.788-0.099 288.286-84.894 326.195-252.397v-0.002c45.107-199.245-78.336-371.627-194.901-483.558l-0.055-0.060c-73.323-70.767-189.376-70.852-263.21 0.030-116.143 111.936-239.609 284.74-194.508 484.002 38.111 167.492 180.697 252.084 326.479 251.985zM900.757 604.399c-45.717 201.989-218.739 302.153-388.574 302.268-169.841 0.115-342.983-99.82-388.932-301.809l-0.007-0.033c-53.022-234.218 93.153-429.192 212.524-544.239l0.041-0.038c98.534-94.635 253.807-94.716 352 0.038 119.799 115.055 265.971 309.594 212.949 543.812z" />
<glyph unicode="&#xe92e;" glyph-name="menu" d="M748.373 584.106c69.747 0 126.293 56.543 126.293 126.293s-56.546 126.293-126.293 126.293c-69.751 0-126.293-56.544-126.293-126.293s56.542-126.293 126.293-126.293zM275.627 584.106c69.75 0 126.293 56.543 126.293 126.293s-56.544 126.293-126.293 126.293c-69.75 0-126.293-56.544-126.293-126.293s56.544-126.293 126.293-126.293zM748.373 59.307c69.747 0 126.293 56.542 126.293 126.293s-56.546 126.293-126.293 126.293c-69.751 0-126.293-56.542-126.293-126.293s56.542-126.293 126.293-126.293zM275.627 59.307c69.75 0 126.293 56.542 126.293 126.293s-56.544 126.293-126.293 126.293c-69.75 0-126.293-56.542-126.293-126.293s56.544-126.293 126.293-126.293z" />
<glyph unicode="&#xe92f;" glyph-name="microwave" d="M933.999 838h-843.999c-49.626 0-90-40.374-90-90v-535.998c0-49.63 40.374-90.001 90-90.001h40v-34.001c0-16.567 13.432-29.999 30-29.999s30 13.431 30 29.999v34.001h644.001v-34.001c0-16.567 13.431-29.999 29.999-29.999s29.999 13.431 29.999 29.999v34.001h40c49.626 0 90.001 40.371 90.001 90.001v535.998c0 49.626-40.375 90-90.001 90zM706.001 181.999h-616.001c-16.542 0-30 13.457-30 30.003v535.998c0 16.542 13.458 30 30 30h616.001v-596.001zM964.002 212.002c0-16.546-13.461-30.003-30.003-30.003h-168v452.001h198.003v-421.998zM964.002 694h-198.003v84h168c16.542 0 30.003-13.458 30.003-30v-54zM834.581 274.142c3.371-16.256 18.679-26.671 35.277-23.561 16.303 3.396 26.654 18.756 23.561 35.281-3.772 18.001-21.687 27.836-38.123 22.839-15.424-4.924-23.509-19.635-20.715-34.56zM834.581 402.142c3.371-16.256 18.679-26.671 35.277-23.561 16.303 3.396 26.654 18.756 23.561 35.281-3.772 18.005-21.692 27.836-38.123 22.839-15.424-4.924-23.509-19.631-20.715-34.56zM834.581 530.142c3.371-16.256 18.679-26.671 35.277-23.561 16.303 3.396 26.654 18.756 23.561 35.28-3.772 18.006-21.692 27.836-38.123 22.84-15.424-4.924-23.509-19.632-20.715-34.559zM220 250.001h328.002c49.626 0 89.997 40.371 89.997 90.001v279.998c0 49.626-40.371 90-89.997 90h-328.002c-49.626 0-90-40.374-90-90v-279.998c0-49.63 40.374-90.001 90-90.001zM190 620c0 16.542 13.458 30 30 30h328.002c16.542 0 29.999-13.458 29.999-30v-279.998c0-16.546-13.457-30.003-29.999-30.003h-328.002c-16.542 0-30 13.457-30 30.003v279.998z" />
<glyph unicode="&#xe930;" glyph-name="minus" d="M943.202 529.199h-862.202c-44.735 0-81-36.267-81-81.003v-0.597c0-44.736 36.265-81.003 81-81.003h862.202c44.736 0 81.003 36.267 81.003 81.003v0.597c0 44.736-36.267 81.003-81.003 81.003z" />
<glyph unicode="&#xe931;" glyph-name="more" d="M387.84 654.507c0 68.446 55.714 124.16 124.16 124.16s124.16-55.714 124.16-124.16c0-68.446-55.714-124.16-124.16-124.16s-124.16 55.714-124.16 124.16zM512 714.667c-33.101 0-60.16-27.060-60.16-60.16s27.059-60.16 60.16-60.16c33.101 0 60.16 27.060 60.16 60.16s-27.059 60.16-60.16 60.16zM165.547 241.493c0 68.446 55.714 124.16 124.16 124.16s124.16-55.714 124.16-124.16c0-68.446-55.713-124.16-124.16-124.16-68.969 0-124.16 55.812-124.16 124.16zM289.707 301.653c-33.1 0-60.16-27.059-60.16-60.16 0-33.195 26.73-60.16 60.16-60.16 33.1 0 60.16 27.059 60.16 60.16s-27.060 60.16-60.16 60.16zM610.133 241.493c0 68.446 55.714 124.16 124.16 124.16s124.16-55.714 124.16-124.16c0-68.446-55.714-124.16-124.16-124.16s-124.16 55.714-124.16 124.16zM734.293 301.653c-33.101 0-60.16-27.059-60.16-60.16s27.059-60.16 60.16-60.16c33.101 0 60.16 27.059 60.16 60.16s-27.059 60.16-60.16 60.16z" />
<glyph unicode="&#xe932;" glyph-name="phone" d="M961.118 236.992c-1.694 1.408-193.566 137.92-245.376 129.566-24.99-4.412-39.262-21.47-67.9-55.582-4.608-5.504-15.714-18.658-24.29-28.032-18.103 5.897-35.759 13.082-52.834 21.504-88.141 42.91-159.358 114.129-202.27 202.274-8.42 17.071-15.607 34.729-21.504 52.83 9.408 8.608 22.592 19.712 28.224 24.448 33.952 28.48 50.976 42.784 55.39 67.808 9.058 51.808-128.158 243.616-129.566 245.344-6.249 8.862-14.387 16.227-23.828 21.561s-19.948 8.507-30.764 9.287c-55.616 0-214.4-205.952-214.4-240.672 0-2.016 2.912-206.944 255.616-464.002 256.768-252.412 461.696-255.326 463.71-255.326 34.692 0 240.674 158.784 240.674 214.4-0.789 10.816-3.968 21.325-9.306 30.767-5.342 9.438-12.71 17.574-21.577 23.825zM747.776 32.192c-27.776 2.368-199.936 25.054-414.976 236.288-212.256 216.094-234.368 388.544-236.576 415.264 41.945 65.836 92.601 125.695 150.592 177.952 1.28-1.28 2.976-3.2 5.152-5.696 44.474-60.711 82.787-125.705 114.368-194.016-10.27-10.332-21.125-20.065-32.512-29.152-17.658-13.455-33.873-28.704-48.384-45.504-2.455-3.445-4.203-7.343-5.143-11.468s-1.051-8.396-0.329-12.564c6.772-29.335 17.144-57.722 30.88-84.512 49.213-101.056 130.871-182.707 231.936-231.902 26.786-13.756 55.172-24.141 84.514-30.912 4.164-0.738 8.439-0.636 12.565 0.303 4.13 0.939 8.026 2.697 11.465 5.167 16.858 14.571 32.162 30.848 45.666 48.576 10.044 11.968 23.454 27.934 28.54 32.448 68.489-31.552 133.623-69.909 194.436-114.496 2.654-2.24 4.544-3.968 5.79-5.086-52.258-58.010-112.132-108.681-177.984-150.626v-0.064zM736 480h64c-0.077 67.872-27.072 132.943-75.063 180.935-47.996 47.993-113.062 74.988-180.937 75.065v-64c50.906-0.051 99.712-20.296 135.71-56.291 35.994-35.996 56.239-84.803 56.29-135.709zM896 480h64c-0.128 110.291-43.998 216.029-121.984 294.016s-183.727 121.857-294.016 121.984v-64c93.321-0.11 182.793-37.231 248.781-103.22s103.108-155.458 103.219-248.78z" />
<glyph unicode="&#xe933;" glyph-name="plus" d="M932.57 539.429h-310.857c-10.095 0-18.283 8.187-18.283 18.286v310.857c0 50.491-40.939 91.429-91.43 91.429s-91.429-40.938-91.429-91.429v-310.857c0-10.098-8.187-18.286-18.286-18.286h-310.857c-50.491 0-91.429-40.937-91.429-91.429s40.938-91.43 91.429-91.43h310.857c10.098 0 18.286-8.188 18.286-18.283v-310.857c0-50.492 40.937-91.43 91.429-91.43s91.43 40.939 91.43 91.43v310.857c0 10.095 8.188 18.283 18.283 18.283h310.857c50.492 0 91.43 40.939 91.43 91.43s-40.939 91.429-91.43 91.429z" />
<glyph unicode="&#xe934;" glyph-name="profile" d="M512 842.667c-87.24 0-157.44-70.533-157.44-157.44 0-84.609 66.094-153.259 149.542-156.966 5.060 0.354 10.406 0.371 15.45 0.004 83.366 3.746 149.5 72.351 149.888 157.027-0.034 86.83-70.601 157.375-157.44 157.375zM290.56 685.227c0 122.159 98.76 221.44 221.44 221.44 122.206 0 221.44-99.234 221.44-221.44v-0.134c-0.499-119.483-94.677-216.865-213.538-220.863-1.421-0.047-2.846 0-4.258 0.141-2.061 0.205-5.133 0.235-8-0.026-1.318-0.119-2.645-0.158-3.972-0.115-118.836 3.994-213.111 101.386-213.111 220.996zM519.36 429.333c82.27 0 166.165-20.646 231.002-63.949 58.274-38.788 91.665-93.163 91.665-151.68 0-58.509-33.382-112.981-91.639-151.974l-0.004-0.004c-65.033-43.516-149.035-64.286-231.343-64.286-82.291 0-166.276 20.762-231.304 64.26-58.287 38.788-91.683 93.167-91.683 151.689 0 58.509 33.384 112.981 91.639 151.974l0.117 0.081c65.213 43.238 149.271 63.889 231.55 63.889zM323.236 312.141c-44.956-30.114-63.183-66.505-63.183-98.752 0-32.243 18.219-68.523 63.165-98.428l0.070-0.047c52.3-34.991 123.18-53.474 195.752-53.474s143.445 18.479 195.746 53.47c44.996 30.127 63.241 66.534 63.241 98.795 0 32.247-18.219 68.523-63.164 98.428l-0.047 0.030c-52.075 34.778-122.846 53.171-195.456 53.171-72.572 0-143.583-18.377-196.124-53.193z" />
<glyph unicode="&#xe935;" glyph-name="history" d="M507.358 406.238l192-144c14.144-10.607 34.193-7.74 44.8 6.404 10.611 14.144 7.748 34.189-6.396 44.8l-177.762 134.558v272c0 17.68-14.319 32-32 32s-32-14.32-32-32v-288c0-10.624 4.446-20.194 11.358-25.762zM544 928c-234.224 0-434.24-169.056-473.28-400l-12.16 18.080c-9.904 14.672-29.808 18.544-44.48 8.64s-18.544-29.809-8.64-44.482l64-96c5.264-8 13.84-13.231 23.36-14.238h3.2c8.48 0.030 16.592 3.422 22.56 9.442l80 80c12.496 12.493 12.496 32.781 0 45.278-12.496 12.496-32.784 12.496-45.28 0l-19.84-19.998c36.848 226.782 250.56 380.734 477.329 343.886s380.753-250.544 343.902-477.326c-32.717-201.378-206.656-349.312-410.671-349.282-128.672-2.338-250.368 58.368-325.92 162.56-10.256 14.4-30.24 17.775-44.64 7.518-14.4-10.253-17.776-30.238-7.52-44.638 87.488-121.152 228.672-191.889 378.080-189.44 265.105 0 480 214.895 480 480s-214.895 480-480 480z" />
<glyph unicode="&#xe936;" glyph-name="refrigerator" d="M256 512h512v288c0 9.344-2.995 17.013-8.994 23.008-5.995 5.995-13.662 8.992-23.006 8.992h-448c-9.344 0-17.013-2.997-23.008-8.992s-8.992-13.664-8.992-23.008v-288zM256 448v-352c0-9.344 2.997-17.011 8.992-23.006 5.995-5.999 13.664-8.994 23.008-8.994h448c9.344 0 17.011 2.995 23.006 8.994 5.999 5.995 8.994 13.662 8.994 23.006v352h-512zM288 896h448c27.328-0.661 49.997-9.995 68.002-28 18.001-18.005 27.341-40.672 27.998-68v-704c-0.657-27.328-9.997-49.997-27.998-68.002-18.005-18.001-40.674-27.341-68.002-27.998h-448c-27.328 0.657-49.995 9.997-68 27.998-18.005 18.005-27.339 40.674-28 68.002v704c0.661 27.328 9.995 49.995 28 68s40.672 27.339 68 28zM320 672h64v-96h-64v96zM320 384h64v-96h-64v96z" />
<glyph unicode="&#xe937;" glyph-name="review" d="M640.96 509.312c0 15.902-12.898 28.8-28.8 28.8h-316.8c-15.904 0-28.8-12.898-28.8-28.8 0-15.906 12.896-28.8 28.8-28.8h316.8c15.902 0 28.8 12.894 28.8 28.8zM295.296 392.67c-15.904 0-28.8-12.894-28.8-28.8 0-15.902 12.896-28.8 28.8-28.8h167.97c15.902 0 28.8 12.898 28.8 28.8 0 15.906-12.898 28.8-28.8 28.8h-167.97zM830.72 507.712c-15.902 0-28.8-12.898-28.8-28.8v-232.93c0-43.584-35.456-79.040-79.040-79.040h-192.64c-6.238 0-12.318-2.014-17.31-5.79l-166.338-125.090c-4.224-3.166-8.192-1.856-10.176-0.768-2.016 1.024-5.344 3.554-5.216 8.704l3.2 93.12c0.256 7.808-2.656 15.394-8.064 20.992-5.408 5.632-12.896 8.802-20.704 8.802h-133.792c-43.584 0-79.040 35.422-79.040 79.040v380.8c0 43.744 35.456 79.328 79.040 79.328h354.88c15.906 0 28.8 12.896 28.8 28.8s-12.894 28.8-28.8 28.8h-354.88c-75.328 0-136.64-61.44-136.64-136.96v-380.768c0-75.328 61.312-136.674 136.64-136.674h103.968l-2.176-63.424c-0.768-26.048 13.088-49.728 36.224-61.726 9.888-5.154 20.544-7.68 31.104-7.68 14.176 0 28.224 4.574 40.192 13.504l158.688 119.326h183.010c75.328 0 136.64 61.312 136.64 136.674v232.926c0.030 15.936-12.864 28.834-28.77 28.834zM986.402 782.048c-5.218 16-18.048 27.968-34.338 32l-73.6 18.336-40.192 64.32c-17.822 28.608-64.35 28.544-82.142 0l-40.192-64.32-73.6-18.336c-16.29-4.032-29.154-16-34.338-32s-1.856-33.248 8.96-46.144l48.768-58.048-5.312-75.648c-1.182-16.768 6.242-32.672 19.84-42.56 8.448-6.144 18.368-9.312 28.416-9.312 6.114 0 12.288 1.184 18.21 3.584l70.336 28.416 70.302-28.416c15.586-6.336 32.994-4.16 46.626 5.696 13.598 9.888 21.022 25.792 19.87 42.592l-5.312 75.648 48.768 58.080c10.786 12.864 14.144 30.112 8.93 46.112zM877.090 705.984c-4.8-5.728-7.202-13.088-6.656-20.576l5.12-72.64-67.52 27.296c-3.456 1.408-7.138 2.112-10.786 2.112s-7.326-0.704-10.782-2.112l-67.49-27.296 5.090 72.64c0.512 7.456-1.89 14.848-6.656 20.576l-46.818 55.744 70.656 17.632c7.232 1.824 13.504 6.336 17.442 12.672l38.592 61.728 38.592-61.728c3.968-6.336 10.206-10.88 17.438-12.672l70.656-17.632-46.878-55.744z" />
<glyph unicode="&#xe938;" glyph-name="right-bottom" d="M657.801 115.2c-25.003 25.6-23.799 66.001 3.998 93.798l138.202 143.799h-23.799c-191.202 0-382.601 0-573.801 0-121.6 0-202.4 80.401-202.4 201.402 0 59 0 118 0 177 0.2 42.2 25.4 68.8 64.4 68.4 38-0.4 62.4-27 62.4-68.4 0-62.6-0.2-125.2 0.2-187.6 0.2-37.398 25.4-63.8 62.8-63.8 201.2-0.401 607.802 0.602 614.202 1.6-7.603 8-12.604 13.798-18.001 18.999-41.399 41.001-83.2 81.601-124.203 123.001-27.797 27.8-28.8 68.2-3.797 93.8 24.998 25.6 66.197 25 93.999-2.4 83.802-83.2 167.202-166.6 250.402-250.399 28.996-29.201 28.996-67.401 0-96.802-83.2-83.797-166.601-167.198-250.402-250.398-27.802-27.2-69.402-27.401-94.199-2.001z" />
<glyph unicode="&#xe939;" glyph-name="search-normal" d="M490.667 842.667c-206.186 0-373.333-167.147-373.333-373.333s167.147-373.333 373.333-373.333c206.187 0 373.333 167.147 373.333 373.333s-167.147 373.333-373.333 373.333zM53.333 469.333c0 241.533 195.801 437.333 437.333 437.333s437.333-195.801 437.333-437.333c0-241.532-195.802-437.333-437.333-437.333s-437.333 195.802-437.333 437.333zM830.707 129.293c12.497 12.497 32.755 12.497 45.252 0l85.333-85.333c12.497-12.497 12.497-32.755 0-45.252s-32.755-12.497-45.252 0l-85.333 85.333c-12.497 12.497-12.497 32.755 0 45.252z" />
<glyph unicode="&#xe93a;" glyph-name="search-normal-1" d="M490.667 906.667c-241.153 0-437.333-196.18-437.333-437.333s196.18-437.333 437.333-437.333c241.153 0 437.333 196.18 437.333 437.333s-196.18 437.333-437.333 437.333zM490.667 842.667c206.565 0 373.333-166.768 373.333-373.333s-166.768-373.333-373.333-373.333c-206.565 0-373.333 166.768-373.333 373.333s166.768 373.333 373.333 373.333zM853.333 138.667c-0.023 0-0.051 0-0.078 0-8.817 0-16.801-3.566-22.589-9.334l0.001 0.001c-5.814-5.795-9.412-13.811-9.412-22.667s3.598-16.872 9.411-22.666l85.334-85.334c5.795-5.814 13.811-9.412 22.667-9.412s16.872 3.598 22.666 9.411l0.001 0.001c5.814 5.795 9.412 13.811 9.412 22.667s-3.598 16.872-9.411 22.666l-85.334 85.334c-5.787 5.767-13.771 9.333-22.588 9.333-0.028 0-0.055 0-0.083 0h0.004z" />
<glyph unicode="&#xe93b;" glyph-name="shop_adv" d="M465.92-12.8c-59.279 0-107.52 48.239-107.52 107.52s48.241 107.52 107.52 107.52c59.281 0 107.52-48.239 107.52-107.52s-48.239-107.52-107.52-107.52zM465.92 140.8c-25.404 0-46.080-20.676-46.080-46.080 0-25.408 20.676-46.080 46.080-46.080s46.080 20.672 46.080 46.080c0 25.404-20.676 46.080-46.080 46.080zM773.12-12.8c-59.281 0-107.52 48.239-107.52 107.52s48.239 107.52 107.52 107.52c59.281 0 107.52-48.239 107.52-107.52s-48.239-107.52-107.52-107.52zM773.12 140.8c-25.404 0-46.080-20.676-46.080-46.080 0-25.408 20.676-46.080 46.080-46.080s46.080 20.672 46.080 46.080c0 25.404-20.676 46.080-46.080 46.080zM997.009 681.943c-5.82 7.455-14.746 11.817-24.209 11.817h-125.009c-15.198 121.037-118.549 215.040-243.631 215.040s-228.434-94.003-243.63-215.040h-90.132l-24.924 112.169c-9.441 42.486-46.449 72.151-89.969 72.151h-104.305c-16.968 0-30.72-13.752-30.72-30.72s13.752-30.72 30.72-30.72h104.315c14.51 0 26.849-9.902 30.003-24.044l101.489-456.767c9.441-42.483 46.449-72.149 89.958-72.149h455.7c42.372 0 79.147 28.71 89.417 69.807l80.516 322.098c2.304 9.175 0.235 18.903-5.589 26.358zM604.16 847.36c101.641 0 184.32-82.678 184.32-184.32s-82.679-184.32-184.32-184.32c-101.641 0-184.32 82.677-184.32 184.32s82.679 184.32 184.32 184.32zM862.473 348.395c-3.418-13.7-15.676-23.275-29.807-23.275h-455.7c-14.51 0-26.849 9.903-30.003 24.043l-62.904 283.157h76.483c15.186-121.036 118.538-215.040 243.62-215.040s228.433 94.003 243.631 215.040h85.666l-70.985-283.925zM696.32 693.76h-61.44v61.44c0 16.968-13.751 30.72-30.72 30.72s-30.72-13.752-30.72-30.72v-61.44h-61.44c-16.969 0-30.72-13.752-30.72-30.72s13.751-30.72 30.72-30.72h61.44v-61.44c0-16.968 13.751-30.72 30.72-30.72s30.72 13.752 30.72 30.72v61.44h61.44c16.969 0 30.72 13.752 30.72 30.72s-13.751 30.72-30.72 30.72z" />
<glyph unicode="&#xe93c;" glyph-name="sidebar-left" d="M384 906.667h256c231.808 0 330.667-98.859 330.667-330.667v-256c0-231.808-98.859-330.667-330.667-330.667h-256c-231.808 0-330.667 98.859-330.667 330.667v256c0 231.808 98.859 330.667 330.667 330.667zM416 53.333h224c196.864 0 266.667 69.803 266.667 266.667v256c0 196.864-69.803 266.667-266.667 266.667h-224v-789.333zM117.333 320c0-185.771 62.251-258.304 234.667-265.899v787.797c-172.416-7.595-234.667-80.128-234.667-265.899v-256zM660.053 579.84l-109.227-109.227c-2.974-2.97-5.329-6.494-6.938-10.372-1.609-3.883-2.441-8.043-2.441-12.241s0.832-8.358 2.441-12.241c1.609-3.878 3.964-7.403 6.938-10.372l109.227-109.227c6.037-5.828 14.123-9.050 22.515-8.973 8.388 0.077 16.414 3.447 22.345 9.382 5.931 5.939 9.289 13.965 9.361 22.353 0.068 8.393-3.162 16.474-8.994 22.507l-86.613 86.571 86.613 86.571c5.833 6.033 9.062 14.114 8.994 22.505-0.073 8.39-3.43 16.418-9.361 22.354s-13.956 9.305-22.345 9.382c-8.393 0.077-16.478-3.145-22.515-8.971z" />
<glyph unicode="&#xe93d;" glyph-name="sidebar-right" d="M640 906.667h-256c-231.808 0-330.667-98.859-330.667-330.667v-256c0-231.808 98.859-330.667 330.667-330.667h256c231.808 0 330.667 98.859 330.667 330.667v256c0 231.808-98.859 330.667-330.667 330.667zM608 53.333h-224c-196.864 0-266.667 69.803-266.667 266.667v256c0 196.864 69.803 266.667 266.667 266.667h224v-789.333zM906.667 320c0-185.771-62.251-258.304-234.667-265.899v787.797c172.416-7.595 234.667-80.128 234.667-265.899v-256zM363.947 579.84l109.227-109.227c2.974-2.97 5.329-6.494 6.938-10.372 1.609-3.883 2.441-8.043 2.441-12.241s-0.832-8.358-2.441-12.241c-1.609-3.878-3.964-7.403-6.938-10.372l-109.227-109.227c-6.038-5.828-14.123-9.050-22.513-8.973s-16.415 3.447-22.345 9.382c-5.93 5.939-9.292 13.965-9.361 22.353-0.069 8.393 3.16 16.474 8.992 22.507l86.613 86.571-86.613 86.571c-5.832 6.033-9.061 14.114-8.992 22.505s3.431 16.418 9.361 22.354c5.93 5.936 13.955 9.305 22.345 9.382s16.475-3.145 22.513-8.971z" />
<glyph unicode="&#xe93e;" glyph-name="sink" d="M192 260.002c29.162 0 55.46 14.967 70.346 40.047 14.886 25.075 15.438 55.33 1.472 80.934l-45.482 83.379c-5.256 9.643-15.358 15.637-26.336 15.637s-21.080-5.995-26.336-15.633l-45.484-83.383c-13.964-25.604-13.414-55.859 1.472-80.934 14.888-25.079 41.186-40.047 70.348-40.047zM172.854 352.252l19.146 35.102 19.146-35.102c5.366-9.839 1.512-18.364-0.392-21.577-1.906-3.209-7.548-10.675-18.754-10.675s-16.848 7.467-18.752 10.675c-1.906 3.213-5.76 11.738-0.394 21.577zM952 200h-349.999v120h139.998v-29.999c0-16.567 13.431-29.999 30.003-29.999 16.567 0 29.999 13.431 29.999 29.999v240c0 16.567-13.431 29.999-29.999 29.999-16.572 0-30.003-13.432-30.003-29.999v-29.999h-139.998v209.998c0 137.85-112.149 250-250.001 250-136.764 0-248.21-110.394-249.958-246.75-23.65-11.246-40.042-35.368-40.042-63.25v-40c0-38.598 31.402-70 70-70h120c38.598 0 70 31.402 70 70v40c0 27.836-16.334 51.924-39.918 63.196 1.676 37.118 32.39 66.804 69.918 66.804 38.598 0 70-31.402 70-70v-510h-350c-16.568 0-30-13.431-30-29.999v-204.002c0-16.567 13.432-29.999 30-29.999h880c16.567 0 29.999 13.431 29.999 29.999v204.002c0 16.567-13.431 29.999-29.999 29.999zM741.999 440v-60.002h-139.998v60.002h139.998zM262 610c0-5.514-4.486-10-10-10h-120c-5.514 0-10 4.486-10 10v40c0 5.514 4.486 10 10 10h120c5.514 0 10-4.486 10-10v-40zM352 840c-68.318 0-124.496-52.972-129.62-120h-60.12c5.222 100.132 88.332 180 189.74 180 104.768 0 189.999-85.234 189.999-190v-510h-59.998v510c0 71.682-58.319 130-130.001 130zM922.001-4.002h-820.001v144h820.001v-144z" />
<glyph unicode="&#xe93f;" glyph-name="star" d="M957.15 520l-199.326-194.304 47.070-274.432c2.048-11.998-2.88-24.128-12.736-31.296-5.568-4.062-12.19-6.11-18.816-6.11-5.086 0-10.206 1.216-14.878 3.678l-246.464 129.57-246.432-129.536c-10.752-5.696-23.84-4.77-33.696 2.432-9.856 7.168-14.784 19.294-12.736 31.296l47.072 274.432-199.36 194.27c-8.704 8.512-11.872 21.248-8.096 32.8s13.792 20.032 25.856 21.792l275.488 40 123.198 249.664c10.786 21.856 46.626 21.856 57.408 0l123.2-249.664 275.49-40c12.062-1.76 22.080-10.208 25.856-21.792s0.606-24.254-8.098-32.8z" />
<glyph unicode="&#xe940;" glyph-name="support" d="M952.094 513.553c-3.917 111.695-49.152 216.143-128.576 295.567-83.247 83.264-193.886 129.104-311.518 129.104-237.584 0-431.712-189.104-440.080-424.671-36.256-16.115-61.632-52.399-61.632-94.575v-116.194c0-57.054 46.416-103.488 103.488-103.488 36.928 0 66.96 30.033 66.96 66.961v189.261c0 34.675-26.592 62.946-60.4 66.308 12.48 205.23 183.328 368.398 391.664 368.398 104.832 0 203.409-40.864 277.598-115.056 68.13-68.128 108.002-156.928 114.001-253.359-33.775-3.392-60.318-31.65-60.318-66.291v-189.248c0-34.957 27.008-63.407 61.214-66.368v-47.821c0-53.858-43.823-97.664-97.681-97.664h-72.333c-3.554 10.142-9.122 19.52-16.93 27.294-13.679 13.743-31.919 21.312-51.345 21.312h-74.56c-10.701 0-20.975-2.27-30.383-6.656-25.664-11.789-42.24-37.679-42.24-65.95 0-19.426 7.569-37.666 21.282-51.311 13.709-13.747 31.949-21.316 51.341-21.316h74.56c30.912 0 58.163 19.985 68.322 48.627h72.286c80.337 0 145.681 65.344 145.681 145.664v56.367c36.032 16.209 61.218 52.369 61.218 94.366v116.194c0 42.142-25.378 78.43-61.619 94.545zM132.72 455.518v-189.248c0-10.445-8.496-18.957-18.96-18.957-30.592 0-55.488 24.896-55.488 55.488v116.19c0 30.609 24.896 55.488 55.488 55.488 10.464 0 18.96-8.512 18.96-18.961zM690.287 25.263c-2.385-11.294-12.527-19.503-24.094-19.503h-74.56c-6.562 0-12.723 2.56-17.425 7.266-4.642 4.621-7.202 10.799-7.202 17.357 0 9.587 5.619 18.338 14.417 22.387 3.136 1.472 6.575 2.223 10.21 2.223h74.56c6.558 0 12.719-2.543 17.408-7.249 4.638-4.625 7.198-10.799 7.198-17.361 0.017-1.758-0.175-3.52-0.512-5.12zM965.713 302.801c0-30.592-24.896-55.488-55.488-55.488-10.449 0-18.961 8.495-18.961 18.957v189.248c0 10.449 8.495 18.961 18.961 18.961 30.592 0 55.488-24.896 55.488-55.488v-116.19zM667.409 294.528c56.077 0 101.696 45.632 101.696 101.696v207.215c0 27.104-10.594 52.64-29.824 71.872-19.234 19.232-44.753 29.824-71.872 29.824h-310.817c-56.080 0-101.696-45.616-101.696-101.696v-207.215c0-56.081 45.616-101.696 101.696-101.696h1.904v-53.696c0-20.48 12.208-38.656 31.088-46.319 6.096-2.449 12.432-3.665 18.704-3.665 13.072 0 25.807 5.184 35.134 14.831l89.331 88.849h134.656zM505.95 335.552l-96.67-96.145c-0.432-0.448-0.752-0.785-1.664-0.384-1.104 0.448-1.104 1.169-1.104 1.809v77.696c0 13.248-10.736 24-24 24h-25.904c-29.616 0-53.696 24.094-53.696 53.696v207.215c0 29.616 24.080 53.696 53.696 53.696h310.814c14.306 0 27.763-5.6 37.939-15.76 10.176-10.176 15.757-23.648 15.757-37.936v-207.215c0-29.615-24.094-53.696-53.696-53.696h-144.542c-6.353 0-12.433-2.513-16.93-6.976zM395.408 531.409c-19.52 0-35.408-15.906-35.408-35.409s15.904-35.409 35.408-35.409c19.536 0 35.44 15.906 35.44 35.409s-15.888 35.409-35.44 35.409zM511.983 531.409c-19.52 0-35.409-15.906-35.409-35.409s15.906-35.409 35.409-35.409c19.554 0 35.439 15.906 35.439 35.409s-15.885 35.409-35.439 35.409zM628.561 531.409c-19.52 0-35.409-15.906-35.409-35.409s15.902-35.409 35.409-35.409c19.533 0 35.439 15.906 35.439 35.409s-15.906 35.409-35.439 35.409z" />
<glyph unicode="&#xe941;" glyph-name="trash" d="M211.871 745.229c85.527 8.638 171.065 12.957 256.609 12.957 143.59 0 287.578-7.308 430.677-21.489 17.583-1.743 30.43-17.413 28.685-34.999-1.741-17.587-17.412-30.431-34.999-28.689-141.060 13.979-282.94 21.178-424.363 21.178-83.401 0-166.807-4.212-250.224-12.638l-0.094-0.009-87.040-8.533c-17.589-1.725-33.245 11.136-34.97 28.725s11.136 33.245 28.725 34.97l86.993 8.529zM403.609 798.525l-9.384-55.878c-2.927-17.429-19.429-29.185-36.858-26.258s-29.185 19.429-26.258 36.858l9.387 55.893c0.164 0.974 0.333 1.993 0.504 3.026 2.938 17.744 7.248 43.776 24.6 63.453 20.227 22.936 51.087 31.048 90.508 31.048h111.787c39.898 0 70.729-8.764 90.837-31.934 17.374-20.024 21.577-46.149 24.384-63.593 0.137-0.849 0.269-1.677 0.401-2.483l9.37-55.371c2.948-17.425-8.789-33.942-26.214-36.891s-33.941 8.787-36.89 26.212l-9.417 55.657c-3.571 21.889-5.828 29.746-9.975 34.523-2.291 2.643-10.287 9.879-42.496 9.879h-111.787c-32.687 0-40.439-7.035-42.506-9.379-3.93-4.457-6.148-11.945-9.992-34.763zM806.327 601.96c17.638-1.138 31.010-16.358 29.871-33.995l-27.742-429.827-0.060-0.811c-1.122-16.055-2.359-33.707-5.666-50.133-3.43-17.028-9.476-35.004-21.726-50.953-25.651-33.395-69.299-46.908-132.045-46.908h-273.92c-62.744 0-106.395 13.513-132.045 46.908-12.25 15.949-18.295 33.924-21.725 50.953-3.308 16.427-4.544 34.078-5.668 50.133l-0.069 0.986-27.733 429.652c-1.138 17.636 12.236 32.856 29.872 33.995s32.856-12.236 33.995-29.872l27.722-429.478c0.002-0.030 0.004-0.060 0.006-0.085 1.204-17.186 2.223-30.814 4.616-42.692 2.33-11.571 5.564-19.17 9.741-24.606 7.203-9.378 24.992-21.892 81.289-21.892h273.92c56.294 0 74.086 12.514 81.289 21.892 4.177 5.436 7.411 13.035 9.741 24.606 2.394 11.878 3.413 25.506 4.617 42.692 0 0.026 0.004 0.055 0.004 0.085l27.721 429.478c1.139 17.636 16.358 31.011 33.997 29.872zM408.748 256c0 17.673 14.327 32 31.999 32h142.080c17.673 0 32-14.327 32-32s-14.327-32-32-32h-142.080c-17.673 0-31.999 14.327-31.999 32zM373.333 426.667c0 17.673 14.327 32 32 32h213.333c17.673 0 32-14.327 32-32s-14.327-32-32-32h-213.333c-17.673 0-32 14.327-32 32z" />
<glyph unicode="&#xe942;" glyph-name="up-arrow" d="M842.419 333.568l-304.073 304.069c-7.027 7.026-16.397 10.884-26.603 10.884-10.001 0-19.375-3.857-26.389-10.884l-303.793-303.779c-7.026-7.031-10.895-16.405-10.895-26.406 0-10.005 3.863-19.383 10.895-26.411l22.372-22.37c7.027-7.027 16.406-10.906 26.408-10.906s19.375 3.878 26.407 10.906l255.102 255.1 255.381-255.394c7.027-7.023 16.401-10.897 26.406-10.897 10.001 0 19.371 3.874 26.402 10.897l22.379 22.383c14.554 14.558 14.554 38.251 0 52.809z" />
<glyph unicode="&#xe943;" glyph-name="warning" d="M512 661.333c-17.673 0-32-14.327-32-32v0-224c0-17.673 14.327-32 32-32v0c17.673 0 32 14.327 32 32v0 224c0 17.673-14.327 32-32 32v0zM511.583 906.667c-28.711-0.001-57.358-7.363-83-22.167l-253.417-146.417c-0.309-0.094-0.392-0.122-0.475-0.151l0.225 0.068c-51.076-30.014-82.75-84.868-82.75-144.083v-291.833c0-59.541 31.705-114.553 83-144.167l253.417-146.417c0.025 0 0.054 0 0.083 0s0.058 0 0.088 0h-0.004c51.583-29.476 114.967-29.607 166.25 0l253.417 146.417c0.309 0.096 0.393 0.125 0.476 0.154l-0.224-0.069c51.076 30.013 82.75 84.868 82.75 144.083v291.831c0 59.541-31.815 114.152-82.75 144.083 0.142-0.038 0.058-0.010-0.026 0.018l-0.226 0.065-253.416 146.417c-0.025 0-0.054 0-0.083 0s-0.058 0-0.088 0h0.004c-25.792 14.738-54.54 22.168-83.25 22.167zM511.669 842.667c17.689-0.001 35.395-4.511 51.417-13.667l253.331-146.333c31.712-18.732 51-51.946 51-88.75v-291.833c0-36.278-19.426-70.097-51-88.75l-253.417-146.333c-31.466-18.166-70.387-18.269-102.417 0h-0.085l-253.331 146.333c-31.478 18.173-51 51.864-51 88.75v291.833c0 36.277 19.427 70.098 51 88.75l253.417 146.333c15.745 9.090 33.394 13.668 51.083 13.667zM512 311.5c-23.564 0-42.667-19.103-42.667-42.667v0-4.333c0-23.564 19.103-42.667 42.667-42.667v0c23.564 0 42.667 19.103 42.667 42.667v0 4.333c0 23.564-19.103 42.667-42.667 42.667v0z" />
<glyph unicode="&#xe944;" glyph-name="youtube" d="M1002.901 688.705c-11.802 42.958-46.387 76.82-90.253 88.388-80.128 21.469-400.661 21.469-400.661 21.469s-320.518 0-400.65-20.656c-43.019-11.555-78.45-46.25-90.25-89.201-21.087-78.461-21.087-241.178-21.087-241.178s0-163.538 21.087-241.179c11.813-42.948 46.388-76.813 90.256-88.38 80.969-21.478 400.656-21.478 400.656-21.478s320.521 0 400.649 20.659c43.87 11.558 78.451 45.423 90.266 88.375 21.077 78.464 21.077 241.176 21.077 241.176s0.845 163.543-21.090 242.004zM409.937 297.203v300.648l266.538-150.324-266.538-150.324z" />
<glyph unicode="&#xe945;" glyph-name="bag-checked" d="M661.333 682.241c0 87.373-75.065 157.306-163.987 148.68l-0.155-0.015c-71.621-6.684-134.525-80.253-134.525-156.772v-41.387c0-23.564-19.103-42.667-42.667-42.667s-42.667 19.103-42.667 42.667v41.387c0 115.457 91.51 230.451 211.851 241.728 139.734 13.512 257.483-96.593 257.483-233.622v-58.88c0-23.564-19.103-42.667-42.667-42.667s-42.667 19.103-42.667 42.667v58.88zM135.807 590.664c40.77 48.471 109.457 70.669 205.558 70.669h341.336c96.102 0 164.784-22.198 205.557-70.669 40.363-47.988 43.514-110.306 37.382-165.704l-0.068-0.6-31.954-255.634c-4.801-44.459-16.225-95.704-58.249-134.093-41.751-38.144-105.205-55.967-195.334-55.967h-256.002c-90.132 0-153.584 17.823-195.338 55.967-42.020 38.389-53.448 89.634-58.245 134.093l-32.025 256.234c-6.13 55.397-2.981 117.716 37.383 165.704zM183.208 434.638l31.961-255.694 0.087-0.745c4.186-39.077 12.654-63.812 30.994-80.566 18.726-17.106 56.394-33.633 137.781-33.633h256.002c81.385 0 119.051 16.526 137.779 33.633 18.341 16.754 26.806 41.489 30.993 80.566l0.091 0.745 31.96 255.693c5.33 48.547-0.7 80.647-17.903 101.098-16.833 20.009-54.17 40.264-140.254 40.264h-341.336c-86.085 0-123.424-20.255-140.254-40.264-17.201-20.451-23.237-52.552-17.903-101.098zM738.128 489.573c18.051-18.050 18.051-47.317 0-65.368l-231.111-231.113c-18.050-18.051-47.317-18.051-65.368 0l-115.556 115.558c-18.051 18.051-18.051 47.314 0 65.365 18.050 18.053 47.317 18.053 65.368 0l82.872-82.87 198.429 198.427c18.051 18.051 47.314 18.051 65.365 0z" />
<glyph unicode="&#xe946;" glyph-name="heart-filled" d="M540.858 33.327c-15.825-5.646-41.891-5.646-57.716 0-134.982 46.597-436.596 240.989-436.596 570.47 0 145.442 115.898 263.113 258.793 263.113 84.713 0 159.651-41.42 206.662-105.433 47.011 64.013 122.415 105.433 206.662 105.433 142.895 0 258.793-117.671 258.793-263.113 0-329.481-301.615-523.873-436.596-570.47z" />
</font>
</defs>
</svg>
