<svg width="32" height="33" viewBox="0 0 32 33" fill="none" xmlns="http://www.w3.org/2000/svg">
<path d="M26.667 16.5001V29.8334H5.33366V16.5001M16.0003 29.8334V9.83342M16.0003 9.83342H10.0003C9.11627 9.83342 8.26842 9.48223 7.6433 8.8571C7.01818 8.23198 6.66699 7.38414 6.66699 6.50008C6.66699 5.61603 7.01818 4.76818 7.6433 4.14306C8.26842 3.51794 9.11627 3.16675 10.0003 3.16675C14.667 3.16675 16.0003 9.83342 16.0003 9.83342ZM16.0003 9.83342H22.0003C22.8844 9.83342 23.7322 9.48223 24.3573 8.8571C24.9825 8.23198 25.3337 7.38414 25.3337 6.50008C25.3337 5.61603 24.9825 4.76818 24.3573 4.14306C23.7322 3.51794 22.8844 3.16675 22.0003 3.16675C17.3337 3.16675 16.0003 9.83342 16.0003 9.83342ZM2.66699 9.83342H29.3337V16.5001H2.66699V9.83342Z" stroke="#F3F3F3" stroke-width="3" stroke-linecap="round" stroke-linejoin="round"/>
</svg>
