<svg width="48" height="48" viewBox="0 0 48 48" fill="none" xmlns="http://www.w3.org/2000/svg">
<g clip-path="url(#clip0_102_7394)">
<g clip-path="url(#clip1_102_7394)">
<path d="M24 47.7775C37.2548 47.7775 48 37.165 48 24.0738C48 10.9826 37.2548 0.370117 24 0.370117C10.7452 0.370117 0 10.9826 0 24.0738C0 37.165 10.7452 47.7775 24 47.7775Z" fill="#EBFFEE"/>
<path d="M12.5 35L14.478 29.324C13.4401 27.6563 12.8936 25.7509 12.8964 23.8101C12.8964 17.84 17.9564 13 24.1986 13C30.44 13 35.5 17.84 35.5 23.8101C35.5 29.7801 30.44 34.6209 24.1986 34.6209C22.2995 34.6209 20.5109 34.1706 18.94 33.3793L12.5 35Z" fill="#14AE5C"/>
<path d="M31.377 27.1056C30.8657 26.2071 28.9778 25.1801 28.9778 25.1801C28.5508 24.9539 28.0358 24.9288 27.7922 25.3323C27.7922 25.3323 27.1787 26.0151 27.023 26.1128C26.3103 26.561 25.6501 26.5436 24.984 25.925L23.436 24.4875L21.8879 23.0501C21.2218 22.4315 21.2037 21.8185 21.6857 21.1574C21.7909 21.0122 22.527 20.4432 22.527 20.4432C22.9608 20.2163 22.933 19.7381 22.6901 19.3423C22.6901 19.3423 21.5849 17.5899 20.6173 17.1145C20.4169 17.0159 20.1878 16.9796 19.9636 17.0109C19.7393 17.0422 19.5318 17.1394 19.3715 17.2883L18.6873 17.9236C16.519 19.9371 17.5866 22.2102 19.7557 24.2243L21.7375 26.0646L23.7202 27.9056C25.8892 29.9198 28.3372 30.9111 30.5063 28.897L31.1898 28.2617C31.3499 28.1129 31.4545 27.9203 31.4882 27.7122C31.5219 27.5042 31.4829 27.2915 31.377 27.1056Z" fill="#EBFFEE"/>
</g>
</g>
<defs>
<clipPath id="clip0_102_7394">
<rect width="48" height="48" fill="white"/>
</clipPath>
<clipPath id="clip1_102_7394">
<rect width="48" height="48" fill="white"/>
</clipPath>
</defs>
</svg>
