<svg width="111" height="24" viewBox="0 0 111 24" fill="none" xmlns="http://www.w3.org/2000/svg">
<g clip-path="url(#clip0_863_37694)">
<path fill-rule="evenodd" clip-rule="evenodd" d="M47.4767 11.5992C48.1474 11.3488 48.7229 10.9065 49.1261 10.3317C49.5292 9.75683 49.7408 9.07686 49.7326 8.38275C49.7326 5.48791 47.6049 4.05286 44.6825 4.05286H37.0176V19.7939H45.349C47.9125 19.7939 50.4247 18.0619 50.4247 15.4145C50.4247 12.2673 47.4767 11.6289 47.4767 11.5992ZM41.0167 7.31884H43.9903C44.1807 7.30744 44.3716 7.33241 44.552 7.3923C44.7324 7.45219 44.8988 7.54583 45.0417 7.66786C45.1846 7.78989 45.3011 7.93792 45.3846 8.10347C45.4681 8.26902 45.517 8.44885 45.5284 8.63265C45.5284 8.68873 45.5284 8.74564 45.5284 8.80337C45.5203 9.19035 45.3542 9.55857 45.0661 9.82782C44.778 10.0971 44.3913 10.2455 43.9903 10.2409H40.991L41.0167 7.31884ZM44.016 16.4982H41.0423V13.4054H43.9391C45.4003 13.4054 46.0924 14.024 46.0924 14.9395C46.0924 16.0825 45.2208 16.4982 44.016 16.4982Z" fill="#ED0007"/>
<path fill-rule="evenodd" clip-rule="evenodd" d="M59.2433 3.65698C54.5264 3.65698 51.7578 7.2941 51.7578 11.8962C51.7578 16.4982 54.5264 20.1353 59.2433 20.1353C63.9601 20.1353 66.7287 16.523 66.7287 11.8962C66.7287 7.26935 63.9858 3.65698 59.2433 3.65698ZM59.2433 16.3745C56.9361 16.3745 55.7825 14.3704 55.7825 11.8962C55.7825 9.42193 56.9361 7.44255 59.2433 7.44255C61.5504 7.44255 62.7296 9.44667 62.7296 11.8962C62.7296 14.3951 61.5504 16.3745 59.2433 16.3745Z" fill="#ED0007"/>
<path fill-rule="evenodd" clip-rule="evenodd" d="M75.4198 10.2384L74.8558 10.1147C73.4715 9.84251 72.3692 9.49612 72.3692 8.53117C72.3692 7.492 73.4202 7.07138 74.3431 7.07138C74.9727 7.08043 75.5937 7.21474 76.1671 7.46592C76.7405 7.71709 77.2541 8.07973 77.6757 8.53117L80.2135 6.10643C79.06 4.84457 77.1886 3.6322 74.2662 3.6322C70.8311 3.6322 68.2163 5.48787 68.2163 8.58066C68.2163 11.4013 70.3184 12.7868 72.8819 13.3064L73.4459 13.4301C75.5736 13.8508 76.3683 14.1724 76.3683 15.1621C76.3683 16.1023 75.4967 16.7209 74.1637 16.7209C72.5743 16.7209 71.1387 16.0528 70.0364 14.692L67.4473 17.1662C68.8828 18.824 70.7029 20.1106 74.2149 20.1106C77.2655 20.1106 80.5212 18.4281 80.5212 14.9889C80.5724 11.4013 77.7526 10.7085 75.4198 10.2384Z" fill="#ED0007"/>
<path fill-rule="evenodd" clip-rule="evenodd" d="M89.6461 16.3744C87.8516 16.3744 85.9803 14.9394 85.9803 11.7971C85.9803 9.00123 87.7235 7.44247 89.5436 7.44247C90.9791 7.44247 91.8251 8.08576 92.4916 9.19917L95.7729 7.09607C94.1322 4.69607 92.184 3.68164 89.4923 3.68164C84.5703 3.68164 81.9043 7.36824 81.9043 11.8218C81.9043 16.4981 84.8523 20.16 89.441 20.16C92.671 20.16 94.2091 19.0713 95.8754 16.7456L92.5685 14.5979C91.902 15.6322 91.1842 16.3744 89.6461 16.3744Z" fill="#ED0007"/>
<path fill-rule="evenodd" clip-rule="evenodd" d="M106.719 4.05286V9.84255H101.771V4.05286H97.4902V19.7889H101.771V13.5786H106.719V19.7889H111V4.05286H106.719Z" fill="#ED0007"/>
<path d="M12.3561 0.0445557C9.91232 0.0445557 7.52339 0.74399 5.49143 2.05441C3.45948 3.36483 1.87576 5.22738 0.940559 7.40653C0.00535371 9.58568 -0.239339 11.9836 0.237425 14.2969C0.714189 16.6103 1.891 18.7353 3.61903 20.4031C5.34706 22.071 7.54871 23.2068 9.94557 23.667C12.3424 24.1271 14.8268 23.8909 17.0846 22.9883C19.3424 22.0857 21.2722 20.5571 22.6299 18.5959C23.9876 16.6348 24.7122 14.329 24.7122 11.9703C24.7122 8.80742 23.4104 5.77405 21.0932 3.53753C18.776 1.30102 15.6332 0.0445557 12.3561 0.0445557ZM12.3561 22.7827C10.1405 22.7827 7.97458 22.1486 6.13233 20.9605C4.29008 19.7724 2.85422 18.0837 2.00633 16.108C1.15843 14.1323 0.936586 11.9583 1.36884 9.86094C1.80109 7.76355 2.86803 5.83697 4.43473 4.32483C6.00144 2.81269 7.99754 1.78291 10.1706 1.36571C12.3437 0.948517 14.5962 1.16264 16.6432 1.981C18.6901 2.79936 20.4397 4.18521 21.6707 5.9633C22.9017 7.74138 23.5587 9.83184 23.5587 11.9703C23.558 14.8377 22.3775 17.5875 20.2768 19.6151C18.176 21.6427 15.327 22.782 12.3561 22.7827Z" fill="black"/>
<path d="M17.4579 4.52295H16.6119V8.60542H8.12673V4.52295H7.25513C5.97853 5.33581 4.93083 6.44167 4.20592 7.74144C3.48102 9.04121 3.10156 10.4943 3.10156 11.9704C3.10156 13.4465 3.48102 14.8995 4.20592 16.1993C4.93083 17.4991 5.97853 18.6049 7.25513 19.4178H8.12673V15.3403H16.6119V19.4227H17.4579C18.7351 18.6103 19.7833 17.5045 20.5086 16.2047C21.2339 14.9049 21.6136 13.4517 21.6136 11.9753C21.6136 10.499 21.2339 9.04573 20.5086 7.74591C19.7833 6.44609 18.7351 5.34036 17.4579 4.5279V4.52295ZM6.94751 17.8145C6.15247 17.1327 5.50437 16.3064 5.04021 15.3828C4.57605 14.4592 4.30493 13.4565 4.24232 12.4317C4.17971 11.407 4.32685 10.3805 4.67533 9.41062C5.02381 8.4408 5.5668 7.54672 6.27331 6.77944C6.48507 6.55114 6.71017 6.33471 6.94751 6.1312V17.8145ZM16.6119 14.2021H8.12673V9.71882H16.6119V14.2021ZM17.7655 17.7898V15.3155V8.60542V6.1312C18.5586 6.81855 19.2036 7.65 19.6637 8.57803C20.1237 9.50606 20.3898 10.5125 20.4467 11.5398C20.5036 12.5671 20.3502 13.5952 19.9953 14.5653C19.6403 15.5354 19.0909 16.4284 18.3782 17.1935C18.1844 17.4003 17.9799 17.5977 17.7655 17.7848V17.7898Z" fill="black"/>
</g>
<defs>
<clipPath id="clip0_863_37694">
<rect width="111" height="24" fill="white"/>
</clipPath>
</defs>
</svg>
