<svg width="45" height="45" viewBox="0 0 45 45" fill="none" xmlns="http://www.w3.org/2000/svg">
<g clip-path="url(#clip0_863_37707)">
<path d="M45 0H0V45H45V0Z" fill="#C8102E"/>
<mask id="mask0_863_37707" style="mask-type:luminance" maskUnits="userSpaceOnUse" x="-17" y="-17" width="79" height="79">
<path d="M61.6046 -16.6028H-16.6035V61.6053H61.6046V-16.6028Z" fill="white"/>
</mask>
<g mask="url(#mask0_863_37707)">
<path d="M4.8457 20.442V19.1823C4.8457 19.084 4.92539 19.0043 5.0237 19.0043H6.28343C6.38174 19.0043 6.46143 19.084 6.46143 19.1823V20.442C6.46143 20.5403 6.38174 20.62 6.28343 20.62H5.0237C4.92539 20.62 4.8457 20.5403 4.8457 20.442Z" fill="white"/>
</g>
<mask id="mask1_863_37707" style="mask-type:luminance" maskUnits="userSpaceOnUse" x="-17" y="-17" width="79" height="79">
<path d="M61.6046 -16.6028H-16.6035V61.6053H61.6046V-16.6028Z" fill="white"/>
</mask>
<g mask="url(#mask1_863_37707)">
<path d="M40.1282 25.742L36.6523 19.0969C36.6215 19.0381 36.5608 19.0013 36.4945 19.0013H33.396C33.3301 19.0013 33.2696 19.0377 33.2387 19.0959L30.1368 24.9442C30.1105 24.9936 30.0457 25.0069 30.0022 24.9717L27.0723 22.6005C26.988 22.5322 26.9838 22.405 27.0635 22.3314L30.3321 19.3087C30.451 19.1987 30.3732 19 30.2113 19H28.0335C27.8847 19 27.7415 19.0565 27.6327 19.158L25.0761 21.6151C25.0596 21.6305 25.0378 21.6391 25.0153 21.6391H24.2654C24.2163 21.6391 24.1764 21.5992 24.1764 21.5501V19.1833C24.1764 19.085 24.0967 19.0053 23.9984 19.0053H22.2053C22.107 19.0053 22.0273 19.085 22.0273 19.1833V25.8232C22.0273 25.9215 22.107 26.0012 22.2053 26.0012H23.9984C24.0967 26.0012 24.1764 25.9215 24.1764 25.8232V23.3503C24.1764 23.3011 24.2163 23.2612 24.2654 23.2612H24.9861C25.0073 23.2612 25.0278 23.2688 25.0439 23.2826L27.97 25.8625C28.0748 25.952 28.208 26.0012 28.3458 26.0026H31.9024C31.9695 26.0026 32.0308 25.9648 32.0612 25.905L32.5872 24.8665C32.6023 24.8366 32.633 24.8177 32.6666 24.8177H37.1888C37.2223 24.8177 37.253 24.8366 37.2681 24.8665L37.794 25.905C37.8244 25.9648 37.8858 26.0026 37.9529 26.0026H39.9704C40.1042 26.0025 40.1901 25.8605 40.1282 25.742ZM36.3495 23.2841H33.5162C33.4498 23.2841 33.4068 23.2139 33.4369 23.1547L34.856 20.3701C34.8891 20.3053 34.9818 20.3053 35.0147 20.3702L36.4289 23.1548C36.459 23.214 36.4159 23.2841 36.3495 23.2841Z" fill="white"/>
</g>
<path d="M16.5847 20.62H21.218C21.3163 20.62 21.396 20.5403 21.396 20.442V19.1823C21.396 19.084 21.3163 19.0043 21.218 19.0043H7.06273C6.96445 19.0043 6.88477 19.084 6.88477 19.1823V20.442C6.88477 20.5403 6.96445 20.62 7.06273 20.62H8.7744C8.82357 20.62 8.86341 20.6598 8.86341 20.7089V25.823C8.86341 25.9213 8.9431 26.0009 9.04141 26.0009H10.8278C10.926 26.0009 11.0058 25.9213 11.0058 25.823V20.7089C11.0058 20.6598 11.0456 20.62 11.0947 20.62H14.2643C14.3135 20.62 14.3534 20.6598 14.3534 20.7089V25.823C14.3534 25.9213 14.433 26.0009 14.5313 26.0009H21.218C21.3163 26.0009 21.396 25.9213 21.396 25.823V24.4782C21.396 24.3799 21.3163 24.3002 21.218 24.3002H16.5847C16.5356 24.3002 16.4957 24.2604 16.4957 24.2112V23.3252C16.4957 23.2761 16.5356 23.2362 16.5847 23.2362H20.3627C20.461 23.2362 20.5407 23.1565 20.5407 23.0582V21.8836C20.5407 21.7853 20.461 21.7055 20.3627 21.7055H16.5847C16.5356 21.7055 16.4957 21.6657 16.4957 21.6166V20.7089C16.4957 20.6598 16.5356 20.62 16.5847 20.62Z" fill="white"/>
</g>
<defs>
<clipPath id="clip0_863_37707">
<rect width="45" height="45" rx="7" fill="white"/>
</clipPath>
</defs>
</svg>
