<?xml version="1.0" encoding="UTF-8"?><svg id="Livello_1" xmlns="http://www.w3.org/2000/svg" viewBox="0 0 400 130"><defs><style>.cls-1{fill:#e63741;}</style></defs><path class="cls-1" d="M135.36,130h129.27V0H135.36V130Zm69.16-48.66h4.43V48.66h-4.25v-10.96h19.58l20.31,27.86v-16.9h-4.43v-10.96h19.95v10.96h-4.25v43.64h-15.14l-19.95-29.53v18.57h4.8v10.96h-21.05v-10.96Zm-64.64,0h4.43l10.71-32.69h-7.2v-10.96h42.66v10.96h-6.83l10.16,32.69h4.62v10.96h-27.89v-10.96h5.17l-2.03-6.87h-14.96l-2.22,6.87h5.17v10.96h-21.79v-10.96Z"/><polygon class="cls-1" points="166.3 48.47 161.13 65.74 171.84 65.74 166.3 48.47"/><path class="cls-1" d="M0,130H129.27V0H0V130Zm61.04-48.66h5.36V48.66h-5.36v-10.96h38.78c11.08,0,20.5,5.2,20.5,15.23,0,7.06-5.17,10.77-8.68,12.26l7.02,16.16h4.8v10.96h-19.76l-8.68-22.84h-9.05v11.89h5.36v10.96h-30.29v-10.96Zm-55.23,0h5.54V48.66H5.81v-10.96H55.3v16.53h-10.71v-5.57h-13.67v10.4h10.34v10.96h-10.34v11.33h6.46v10.96H5.81v-10.96Z"/><path class="cls-1" d="M270.73,0V130h129.27V0h-129.27Zm69.07,92.3h-28.07v-10.96h4.62l-16.25-16.34v16.34h4.8v10.96h-28.62v-10.96h5.72V48.66h-5.72v-10.96h28.81v10.96h-4.99v15.23l16.25-15.23h-4.06v-10.96h24.38v10.96h-3.88l-15.88,13.93,19.02,18.76h3.88v10.96Zm54.66-37.89h-11.63v-5.76h-13.11v10.96h10.71v10.03h-10.71v11.7h13.11v-7.24h11.63v18.2h-48.57v-10.96h5.73V48.66h-5.73v-10.96h48.57v16.71Z"/><path class="cls-1" d="M99.45,54.97c0-4.09-3.51-6.13-9.6-6.13h-3.69v12.26h3.69c6.09,0,9.6-2.04,9.6-6.13Z"/></svg>