<svg width="16" height="16" viewBox="0 0 16 16" fill="none" xmlns="http://www.w3.org/2000/svg">
<path d="M4.33262 7.47052L6.34654 9.45789L11.6584 4.16936C11.8742 4.04223 12.1238 3.98438 12.3735 4.00361C12.6231 4.02284 12.8609 4.11822 13.0548 4.2769C13.214 4.46904 13.3098 4.70586 13.3291 4.95477C13.3483 5.20367 13.29 5.45243 13.1622 5.6668L7.2398 11.5635C7.15183 11.6852 7.03924 11.7869 6.90936 11.8621C6.77947 11.9373 6.63522 11.9843 6.486 12C6.30419 12.0014 6.12388 11.967 5.9554 11.8985C5.78691 11.8301 5.63357 11.7291 5.50416 11.6012L2.83568 8.95979C2.7084 8.74638 2.65039 8.4987 2.66962 8.25088C2.68886 8.00307 2.78441 7.76734 2.9431 7.57618C3.13614 7.41847 3.37284 7.32378 3.62128 7.30489C3.86973 7.286 4.11799 7.34381 4.33262 7.47052Z" fill="white"/>
</svg>
