<svg width="28" height="26" viewBox="0 0 28 26" fill="none" xmlns="http://www.w3.org/2000/svg">
<path d="M26.6119 24.974H21.7369C21.4734 24.9903 21.2111 24.9273 20.9839 24.7931C20.7566 24.6589 20.5748 24.4596 20.4619 24.221L14.2009 7.04499L7.9379 24.225C7.82502 24.4636 7.64321 24.6629 7.41593 24.7971C7.18865 24.9313 6.92635 24.9943 6.6629 24.978H1.7879C1.58483 24.9754 1.39035 24.8957 1.2439 24.755C1.16946 24.6943 1.10916 24.6182 1.06719 24.5318C1.02522 24.4455 1.00259 24.351 1.0009 24.255C0.997136 24.151 1.00962 24.0471 1.0379 23.947L9.7749 2.01599C9.87852 1.70713 10.0825 1.44181 10.3543 1.26223C10.6261 1.08265 10.9502 0.999144 11.2749 1.02499H17.1249C17.4498 0.999207 17.7739 1.08286 18.0458 1.26263C18.3176 1.4424 18.5215 1.70795 18.6249 2.01699L27.3619 23.949C27.3902 24.0491 27.4027 24.153 27.3989 24.257C27.3785 24.4522 27.2871 24.6332 27.142 24.7654C26.9969 24.8976 26.8082 24.9719 26.6119 24.974Z" fill="#3388FF"/>
</svg>
